<svg width="28" height="28" viewBox="0 0 28 28" fill="none" xmlns="http://www.w3.org/2000/svg">
<path d="M25.3749 10.5002C25.3749 10.5002 17.6409 4.0835 16.0416 4.0835C14.4423 4.0835 4.54662 11.7641 4.54662 11.7641C4.32798 11.9658 3.88842 12.8335 4.18009 14.2918C4.47175 15.7502 4.18009 24.716 4.18009 24.716C4.18086 24.9679 4.28128 25.2093 4.45943 25.3875C4.63758 25.5656 4.87898 25.6661 5.13092 25.6668C5.13092 25.6668 10.8884 26.5418 11.4718 25.6668C12.0551 24.7918 11.3063 20.5656 11.3063 20.5656C11.3063 19.5986 11.8559 18.6713 12.5396 17.9876C13.2233 17.3039 14.0048 17.2085 14.9718 17.2085C15.9387 17.2085 17.0119 17.3039 17.6956 17.9876C18.3793 18.6713 18.7634 19.5986 18.7634 20.5656C18.7634 20.5656 18.2769 25.0864 18.7634 25.6697C19.2499 26.2531 25.1033 25.6697 25.1033 25.6697C25.3553 25.669 25.5968 25.5686 25.7751 25.3905C25.9534 25.2123 26.0541 24.9632 26.0551 24.7112V18.9585C26.0551 18.9585 26.3468 14.8752 26.3468 13.1252C26.3468 11.3752 25.7751 10.7918 25.3749 10.5002Z" fill="#FABFA1"/>
<path d="M24.4252 10.8887L13.8591 2.9165L3.28328 10.8887C3.06464 11.0905 2.93317 11.3695 2.91675 11.6665V23.8407C2.91752 24.0926 3.01794 24.334 3.19609 24.5122C3.37424 24.6903 3.61564 24.7907 3.86758 24.7915H10.2084V19.6903C10.2084 18.7233 10.5925 17.796 11.2763 17.1123C11.96 16.4285 12.8873 16.0444 13.8542 16.0444C14.8212 16.0444 15.7485 16.4285 16.4322 17.1123C17.116 17.796 17.5001 18.7233 17.5001 19.6903V24.7944H23.8399C24.092 24.7937 24.3335 24.6933 24.5118 24.5151C24.6901 24.337 24.7907 24.0956 24.7918 23.8436V11.6665C24.7749 11.3696 24.6435 11.0907 24.4252 10.8887Z" stroke="#1A1A1A" stroke-width="1.5" stroke-linecap="round" stroke-linejoin="round"/>
</svg>
