<svg width="40" height="40" viewBox="0 0 40 40" fill="none" xmlns="http://www.w3.org/2000/svg">
<path d="M24.2682 39.6613C29.1217 38.5443 33.3628 35.5878 36.0162 31.6196C36.8692 30.344 37.5623 28.9731 38.2538 27.6055C38.9336 26.2605 39.6209 24.893 39.8749 23.4009C40.1015 22.0768 39.9774 20.7059 39.8383 19.3517C39.4126 15.2131 38.712 10.7863 35.7712 7.59005C34.6624 6.3854 33.2904 5.42719 31.8783 4.56254C30.0256 3.42806 28.082 2.43727 26.0735 1.6027C23.3918 0.488273 20.4511 -0.356322 17.6636 0.150769C16.4757 0.366304 15.3618 0.8216 14.2963 1.33872C8.9197 3.95019 4.55024 8.28093 2.01438 13.5097C0.228274 17.1939 -0.651449 21.482 0.55817 25.5229C1.86109 29.8745 4.42029 33.4793 8.22159 36.2411C12.0237 39.003 19.4147 40.7782 24.2682 39.6613Z" fill="#FABFA1"/>
</svg>
