<svg width="128" height="128" viewBox="0 0 128 128" fill="none" xmlns="http://www.w3.org/2000/svg">
<path d="M78.1647 125.944C92.7251 122.593 105.449 113.723 113.409 101.819C115.968 97.9919 118.047 93.8792 120.121 89.7765C122.161 85.7415 124.223 81.6389 124.985 77.1628C125.665 73.1904 125.292 69.0777 124.875 65.0151C123.598 52.5993 121.496 39.3189 112.674 29.7301C109.347 26.1162 105.231 23.2415 100.995 20.6476C95.4368 17.2442 89.6061 14.2718 83.5805 11.7681C75.5355 8.42478 66.7133 5.891 58.3509 7.41227C54.7871 8.05887 51.4456 9.42476 48.2491 10.9761C32.1192 18.8105 19.0108 31.8028 11.4032 47.4892C6.04493 58.5416 3.40576 71.406 7.03462 83.5285C10.9434 96.5834 18.621 107.398 30.0249 115.683C41.4313 123.969 63.6043 129.295 78.1647 125.944" fill="#A0A1FA"/>
<path d="M66 11.6C63.6 11.6 59.6 16.4 59.6 24.4C60 32.4 62.4 44.4 64 49.6C62.8 50 62 50.4 61.2 50.8C54.4 44.4 33.2 24 28.4 28.4C22.8 33.6 30 39.6 35.2 46.8C40.4 54 43.6 56.8 47.2 59.2C49.6 60.8 51.2 65.2 53.6 67.6C54 70.4 54.8 74 54.8 74C54.8 74 51.2 79.2 52.4 84.4C52.8 86.8 54 89.6 56 92C58 94.4 60 95.6 60 95.6C58.8 100.4 56.4 111.2 53.6 118C57.6 118.8 61.6 118.4 66 118.4C79.2 118.4 91.6 112 101.6 104.8L92.4 87.2C92.4 87.2 94 81.6 94 78.4C94 72 90 68 84 64.4C82.4 59.2 81.6 53.6 77.2 50.8C74.4 39.6 68 11.6 66 11.6Z" fill="white"/>
<path d="M71.5998 51.2C64.7998 48.8 57.9998 49.6 53.9998 55.2C49.9998 61.2 53.5998 73.2 53.5998 73.2C53.5998 73.2 46.3998 76.8 49.1998 86.8C49.9998 90.4 56.3998 100.4 65.9998 96.8C69.9998 95.2 71.9998 92.4 72.3998 88.4C72.3998 88.4 77.9998 94 82.3998 92C86.7998 90 89.1998 86.8 89.1998 80.4C89.1998 74 85.9998 70.8 80.3998 67.2C78.3998 60.8 77.5998 53.2 71.5998 51.2Z" stroke="#1A1A1A" stroke-width="2.5" stroke-linecap="round" stroke-linejoin="round"/>
<path d="M72.3999 87.5999C72.3999 87.5999 72.7999 85.5999 74.3999 82.3999" stroke="#1A1A1A" stroke-width="2.5" stroke-linecap="round" stroke-linejoin="round"/>
<path d="M66.7998 84.3999C66.7998 84.3999 69.5998 86.3999 72.3998 87.9999" stroke="#1A1A1A" stroke-width="2.5" stroke-linecap="round" stroke-linejoin="round"/>
<path d="M68.7998 95.9999C68.7998 95.9999 75.5998 102 79.1998 92.7999" stroke="#1A1A1A" stroke-width="2.5" stroke-linecap="round" stroke-linejoin="round"/>
<path d="M73.6 66.4C73.2 65.2 74 64 74.8 64C75.6 64 76.4 64.8 76.8 66.4C77.2 67.6 76.4 68.8 75.6 68.8C74.8 68.8 74 67.6 73.6 66.4Z" fill="#1A1A1A"/>
<path fill-rule="evenodd" clip-rule="evenodd" d="M74.0999 64.9442C73.8991 65.3056 73.8184 65.7896 73.9797 66.2735C74.1687 66.8407 74.4497 67.3978 74.7659 67.8044C75.0986 68.2321 75.3948 68.4 75.6002 68.4C75.801 68.4 76.0903 68.2341 76.3005 67.8557C76.5013 67.4944 76.582 67.0104 76.4207 66.5265L76.411 66.4973L76.4121 66.497C76.2225 65.7386 75.9456 65.2022 75.6492 64.8634C75.3546 64.5267 75.0569 64.4 74.8002 64.4C74.5994 64.4 74.3101 64.5658 74.0999 64.9442ZM73.4005 64.5557C73.6903 64.0341 74.201 63.6 74.8002 63.6C75.3434 63.6 75.8458 63.8732 76.2512 64.3366C76.6525 64.7951 76.9741 65.4538 77.1846 66.2885C77.4167 66.9996 77.297 67.7093 76.9999 68.2442C76.7101 68.7658 76.1994 69.2 75.6002 69.2C75.0056 69.2 74.5018 68.7679 74.1345 68.2955C73.7507 67.8021 73.4316 67.1592 73.2207 66.5265C72.982 65.8104 73.1013 65.0944 73.4005 64.5557Z" fill="#1A1A1A"/>
<path d="M55.9999 71.1999C55.5999 69.9999 56.3999 68.7999 57.1999 68.7999C57.9999 68.7999 58.7999 69.5999 59.1999 71.1999C59.5999 72.3999 58.7999 73.5999 57.9999 73.5999C57.1999 73.5999 55.9999 72.3999 55.9999 71.1999Z" fill="#1A1A1A"/>
<path fill-rule="evenodd" clip-rule="evenodd" d="M56.4998 69.7442C56.299 70.1055 56.2183 70.5895 56.3796 71.0734L56.4001 71.135V71.1999C56.4001 71.6729 56.6418 72.1823 56.9991 72.5842C57.1747 72.7818 57.3677 72.9408 57.5516 73.0481C57.7398 73.1579 57.8946 73.1999 58.0001 73.1999C58.2009 73.1999 58.4902 73.0341 58.7004 72.6556C58.9012 72.2943 58.9819 71.8103 58.8206 71.3264L58.8109 71.2972L58.812 71.2969C58.6224 70.5385 58.3455 70.0021 58.0491 69.6633C57.7545 69.3266 57.4568 69.1999 57.2001 69.1999C56.9993 69.1999 56.71 69.3658 56.4998 69.7442ZM55.8004 69.3556C56.0902 68.8341 56.6009 68.3999 57.2001 68.3999C57.7434 68.3999 58.2457 68.6732 58.6511 69.1365C59.0524 69.5951 59.3741 70.2537 59.5845 71.0884C59.8166 71.7995 59.6969 72.5093 59.3998 73.0442C59.11 73.5658 58.5993 73.9999 58.0001 73.9999C57.7056 73.9999 57.4104 73.8919 57.1485 73.7392C56.8825 73.584 56.6255 73.368 56.4011 73.1157C55.9716 72.6324 55.6216 71.9681 55.601 71.2651C55.3889 70.5696 55.5097 69.8789 55.8004 69.3556Z" fill="#1A1A1A"/>
<path d="M57.2002 88.7999C57.6002 92.3999 64.4002 97.1999 68.0002 95.5999" stroke="#1A1A1A" stroke-width="2.5" stroke-linecap="round" stroke-linejoin="round"/>
<path d="M80.7998 92C80.7998 92 86.3998 88 83.1998 81.2" stroke="#1A1A1A" stroke-width="2.5" stroke-linecap="round" stroke-linejoin="round"/>
<path d="M60.8 49.5999C60.8 49.5999 56.8 35.5999 56.4 25.1999C56 17.1999 60.4 12.3999 62.8 12.3999C65.2 12.3999 71.2 41.1999 72.8 51.1999" stroke="#1A1A1A" stroke-width="2.5" stroke-linecap="round" stroke-linejoin="round"/>
<path d="M57.2 52C56.4118 50.4235 44.578 39.7 34.9624 34C45.3323 40.4 50.6416 59.8667 52 68.8C50.4 58.24 54.8 53.2 57.2 52Z" fill="#1A1A1A"/>
<path d="M51.9999 68.8C51.9999 68.8 46.7999 62.8 43.5999 60.4C40.3999 58 36.7999 55.2 31.5999 48C26.7999 40.8 17.9999 36 23.5999 31.2C29.1999 26 55.9999 49.6 57.1999 52" stroke="#1A1A1A" stroke-width="2.5" stroke-linecap="round" stroke-linejoin="round"/>
<path d="M32.3999 32.3999C47.1999 42.3999 48.7999 56.7999 50.7999 66.3999" stroke="#1A1A1A" stroke-width="2.5" stroke-linecap="round" stroke-linejoin="round"/>
<path d="M56.0001 96.7999C54.8001 101.2 53.2001 110.8 49.6001 118" stroke="#1A1A1A" stroke-width="2.5" stroke-linecap="round" stroke-linejoin="round"/>
<path d="M87.2002 88.3999C87.2002 88.3999 96.0002 103.2 97.2002 108" stroke="#1A1A1A" stroke-width="2.5" stroke-linecap="round" stroke-linejoin="round"/>
</svg>
