<svg width="60" height="60" viewBox="0 0 60 60" fill="none" xmlns="http://www.w3.org/2000/svg">
<path d="M39.7724 58.1476C46.3349 55.7101 51.7724 50.8351 54.9599 44.8351C55.8974 42.9601 56.6474 40.8976 57.3974 38.8351C58.1474 36.7726 58.8974 34.8976 58.8974 32.6476C59.0849 30.7726 58.5224 28.8976 58.1474 27.0226C56.8349 21.2101 55.1474 15.2101 50.4599 11.2726C48.7724 9.77259 46.7099 8.64759 44.4599 7.71009C41.6474 6.39759 38.8349 5.46009 35.8349 4.52259C31.8974 3.39759 27.5849 2.64759 23.8349 3.96009C22.1474 4.52259 20.6474 5.27259 19.3349 6.21009C12.2099 10.7101 6.95995 17.4601 4.14745 25.1476C2.27245 30.5851 1.70995 36.7726 4.14745 42.2101C6.77245 48.0226 10.8974 52.7101 16.7099 55.8976C22.5224 59.2726 33.2099 60.3976 39.7724 58.1476Z" fill="#FABFA1"/>
<path d="M25.3348 9.20999C29.4598 8.45999 37.8973 12.7725 40.3348 15.585C42.5848 18.21 42.2098 21.21 43.8973 22.5225C45.0223 23.2725 48.9598 25.71 49.1473 26.46C49.7098 35.835 41.0848 37.5225 37.8973 38.46C37.3348 40.5225 37.5223 55.71 35.4598 56.085C21.3973 58.71 9.39727 50.46 10.7098 48.585C12.2098 46.5225 15.9598 41.2725 18.5848 37.5225C21.0223 33.96 20.2723 33.21 18.0223 30.7725C15.2098 27.7725 15.7723 19.8975 19.3348 14.085C22.1473 10.71 23.8348 10.1475 25.3348 9.20999Z" fill="white"/>
<path d="M18.585 37.1477C18.585 37.1477 12.96 43.8977 9.95996 47.8352C9.95996 50.4602 12.0225 51.5852 13.71 51.5852C15.7725 50.0852 17.6475 48.3977 18.0225 43.8977C18.3975 39.2102 18.585 37.1477 18.585 37.1477Z" fill="#FABFA1"/>
<path d="M19.7103 55.5226C21.0228 54.7726 20.4603 51.9601 19.1478 51.9601C16.8978 51.7726 15.5853 54.5851 17.4603 55.1476C17.2728 55.1476 19.3353 55.7101 19.7103 55.5226Z" fill="#FABFA1"/>
<path d="M33.585 9.77271L41.085 13.3352L43.335 19.7102L44.6475 16.5227L40.71 10.5227L36.7725 9.02271L33.585 9.77271Z" fill="#1A1A1A"/>
<path d="M20.835 12.3977C20.835 12.3977 23.835 9.39769 25.71 8.64769C27.585 8.08519 31.5225 9.21019 33.3975 9.77269C35.2725 10.3352 40.8975 12.9602 41.46 14.2727C42.21 16.1477 42.96 18.5852 43.335 22.1477C44.085 22.8977 50.085 25.3352 50.085 25.3352C50.085 25.3352 50.835 27.3977 50.085 29.8352C49.335 32.4602 48.7725 33.7727 48.21 34.3352C47.6475 34.8977 46.8975 32.4602 46.8975 32.4602C46.8975 32.4602 43.8975 36.0227 36.96 38.2727C34.335 39.2102 29.46 35.0852 28.335 33.2102" stroke="#1A1A1A" stroke-width="1.5" stroke-linecap="round" stroke-linejoin="round"/>
<path d="M46.8975 32.4602C46.8975 32.4602 47.46 30.5852 47.6475 28.8977" stroke="#1A1A1A" stroke-width="1.5" stroke-linecap="round" stroke-linejoin="round"/>
<path d="M47.46 34.1477C47.46 34.1477 45.3975 38.2727 39.3975 37.8977" stroke="#1A1A1A" stroke-width="1.5" stroke-linecap="round" stroke-linejoin="round"/>
<path d="M44.085 27.5851C44.085 26.6476 44.835 25.7101 45.7725 25.5226C46.71 25.1476 48.96 24.5851 49.335 25.5226C50.085 26.8351 47.46 28.8976 47.46 28.8976C47.46 28.8976 45.21 28.7101 44.085 27.5851Z" stroke="#1A1A1A" stroke-width="1.5" stroke-linecap="round" stroke-linejoin="round"/>
<path d="M31.71 24.1352C31.71 23.2352 31.935 22.5602 32.61 22.3352C33.285 22.3352 33.735 22.7852 33.96 23.6852C34.185 24.5852 33.735 25.4852 33.06 25.4852C32.385 25.4852 31.935 25.0352 31.71 24.1352Z" fill="#1A1A1A"/>
<path d="M40.5253 21.0977C40.3003 20.1977 40.7503 19.5227 41.4253 19.5227C42.1003 19.5227 42.5503 19.9727 42.7753 20.8727C43.0003 21.7727 42.5503 22.4477 41.8753 22.4477C40.9753 22.4477 40.7503 21.9977 40.5253 21.0977Z" fill="#1A1A1A"/>
<path d="M39.2104 37.7102C39.2104 37.7102 37.898 42.3977 38.4605 55.3352" stroke="#1A1A1A" stroke-width="1.5" stroke-linecap="round" stroke-linejoin="round"/>
<path d="M19.5225 37.1477C19.5225 37.1477 25.1475 44.6477 33.0225 44.8352C38.6475 44.8352 38.6475 43.3352 38.6475 43.3352L38.46 46.7102C38.46 46.7102 35.085 48.3977 30.3975 47.8352C27.3975 47.4602 21.21 45.5852 17.46 39.5852L19.5225 37.1477Z" fill="#1A1A1A"/>
<path d="M31.7101 50.4602C32.0851 48.3977 34.1476 46.8977 36.2101 47.2727C38.2726 47.6477 39.7726 49.7102 39.3976 51.7727C39.0226 53.8352 36.9601 55.3352 34.8976 54.9602C32.6476 54.5852 31.3351 52.5227 31.7101 50.4602Z" fill="#1A1A1A"/>
<path d="M34.1479 50.8352C34.3354 49.5227 35.2729 48.5852 36.3979 48.5852C37.5229 48.7727 38.2729 49.8977 38.0854 51.2102C37.8979 52.5227 36.9604 53.4602 35.8354 53.4602C34.7104 53.4602 33.9604 52.1477 34.1479 50.8352Z" fill="white"/>
<path d="M47.6476 29.0851C47.6476 29.0851 44.6476 28.5226 44.2726 27.5851C43.7101 26.0851 46.8976 25.3351 46.8976 25.3351C46.8976 25.3351 49.3351 24.7726 49.8976 25.7101C50.4601 26.6476 47.6476 29.0851 47.6476 29.0851Z" fill="#1A1A1A"/>
<path d="M33.0225 9.5852C33.0225 9.5852 34.1475 9.2102 36.21 8.8352C37.335 8.6477 40.71 10.5227 40.71 10.5227C40.71 10.5227 42.585 12.9602 44.6475 15.9602C44.835 16.5227 43.335 20.4602 43.335 20.4602C43.335 20.4602 41.6475 14.0852 41.2725 13.7102C41.085 13.5227 36.96 11.0852 33.0225 9.5852Z" stroke="#1A1A1A" stroke-width="1.5" stroke-linecap="round" stroke-linejoin="round"/>
<path d="M28.1481 13.1477C28.1481 13.1477 24.3981 11.4602 23.0856 10.8977C23.0856 10.8977 13.5231 15.0227 10.8981 16.7102C10.8981 16.7102 10.3356 24.5852 16.5231 35.0852C16.5231 35.0852 17.4606 35.2727 18.7731 32.2727C18.7731 32.2727 23.2731 13.3352 28.1481 13.1477Z" stroke="#1A1A1A" stroke-width="1.5" stroke-linecap="round" stroke-linejoin="round"/>
<path d="M10.8975 17.0852C10.8975 17.0852 11.085 29.2727 16.335 34.5227C16.335 34.5227 17.835 36.0227 19.335 29.8352C21.0225 23.6477 24.96 12.5852 27.7725 13.5227C27.7725 13.5227 23.835 10.5227 22.5225 11.2727C21.3975 11.8352 11.2725 15.9602 10.8975 17.0852Z" fill="#1A1A1A"/>
<path d="M18.3975 27.9602C18.3975 29.0852 19.335 30.3977 20.085 31.5227C21.21 32.8352 21.21 34.5227 20.2725 35.8352C18.21 39.0227 14.2725 44.6477 10.5225 48.5852" stroke="#1A1A1A" stroke-width="1.5" stroke-linecap="round" stroke-linejoin="round"/>
</svg>
