<svg width="20" height="20" viewBox="0 0 20 20" fill="none" xmlns="http://www.w3.org/2000/svg">
<path d="M12.1341 19.8306C14.5608 19.2722 16.6814 17.7939 18.0081 15.8098C18.4346 15.172 18.7812 14.4865 19.1269 13.8028C19.4668 13.1303 19.8104 12.4465 19.9375 11.7005C20.0508 11.0384 19.9887 10.353 19.9191 9.67586C19.7063 7.60656 19.356 5.39316 17.8856 3.79503C17.3312 3.1927 16.6452 2.71359 15.9391 2.28127C15.0128 1.71403 14.041 1.21864 13.0367 0.801352C11.6959 0.244136 10.2255 -0.178161 8.83181 0.0753846C8.23783 0.183152 7.68092 0.4108 7.14817 0.669358C4.45985 1.9751 2.27512 4.14047 1.00719 6.75487C0.114137 8.59694 -0.325725 10.741 0.279085 12.7614C0.930546 14.9372 2.21014 16.7396 4.11079 18.1206C6.01186 19.5015 9.70736 20.3891 12.1341 19.8306" fill="#1A1A1A"/>
<path d="M7 13L13 7" stroke="white" stroke-width="2.5" stroke-linecap="round" stroke-linejoin="round"/>
<path d="M13 13L7 7" stroke="white" stroke-width="2.5" stroke-linecap="round" stroke-linejoin="round"/>
</svg>
