<svg width="344" height="66" viewBox="0 0 344 66" fill="none" xmlns="http://www.w3.org/2000/svg">
<path d="M3.00003 16.8079C3.00002 7.6623 10.6342 0.374846 19.7691 0.816108C55.9041 2.5616 138.989 6.5 153 6.5C171 6.5 198.059 6.5 232 6.5C258.102 6.5 285 6.13741 294.5 6.13741C300.317 6.13741 315.32 6.6483 326.079 7.04442C333.155 7.30499 339.218 12.2028 340.734 19.1203C342.104 25.3714 343.48 32.4991 343.5 36C343.54 43 346.873 65.4588 323 64.5C302.926 63.6938 249 64.9452 239.5 65.5C230 66.0548 152.465 64.6312 101.899 62.6643C57.5778 60.9402 33.1877 60.1504 19.8984 59.7909C11.296 59.5582 4.05784 52.7027 3.58928 44.11C3.27485 38.3439 2.99997 32.5685 3 30C3.00002 27.5941 3.00003 22.2942 3.00003 16.8079Z" fill="#FABFA1"/>
<rect x="0.75" y="3.75" width="340.5" height="58.5" rx="15.25" stroke="#1A1A1A" stroke-width="1.5"/>
</svg>
