<svg width="34" height="34" viewBox="0 0 34 34" fill="none" xmlns="http://www.w3.org/2000/svg">
<path d="M20.5026 32.9464C24.1315 32.1113 27.3026 29.9007 29.2864 26.9338C29.9243 25.98 30.4425 24.9549 30.9595 23.9324C31.4678 22.9268 31.9816 21.9043 32.1716 20.7887C32.341 19.7987 32.2482 18.7736 32.1442 17.7611C31.8259 14.6667 31.3021 11.3568 29.1033 8.96702C28.2743 8.06631 27.2484 7.34986 26.1926 6.70337C24.8073 5.85513 23.3541 5.11432 21.8524 4.49032C19.8473 3.65707 17.6485 3.02557 15.5644 3.40472C14.6761 3.56587 13.8434 3.9063 13.0467 4.29294C9.02661 6.24552 5.75961 9.48358 3.86356 13.3931C2.5281 16.1477 1.87034 19.3539 2.77476 22.3752C3.74895 25.6289 5.66244 28.3242 8.50464 30.3892C11.3475 32.4542 16.8737 33.7815 20.5026 32.9464Z" fill="#70B394"/>
<circle cx="16.9997" cy="16.9997" r="14.4865" stroke="#1A1A1A" stroke-width="1.5"/>
<path d="M22.6953 11.3042L15.055 22.2184C14.9542 22.3633 14.8204 22.4821 14.6647 22.5651C14.5089 22.6481 14.3357 22.6929 14.1592 22.6959C13.9828 22.6988 13.8082 22.6597 13.6498 22.5819C13.4914 22.5041 13.3537 22.3898 13.2482 22.2483L11.3047 19.6573" stroke="white" stroke-width="2.5" stroke-linecap="round" stroke-linejoin="round"/>
</svg>
