<svg width="56" height="56" viewBox="0 0 56 56" fill="none" xmlns="http://www.w3.org/2000/svg">
<path d="M33.9755 55.5258C40.7703 53.9621 46.708 49.823 50.4226 44.2675C51.6169 42.4816 52.5873 40.5623 53.5553 38.6477C54.507 36.7647 55.4692 34.8502 55.8249 32.7613C56.1422 30.9075 55.9684 28.9883 55.7736 27.0924C55.1776 21.2984 54.1968 15.1008 50.0797 10.6261C48.5274 8.93956 46.6065 7.59806 44.6296 6.38756C42.0358 4.79929 39.3148 3.41218 36.5028 2.24378C32.7485 0.683582 28.6315 -0.49885 24.7291 0.211077C23.0659 0.512825 21.5066 1.15024 20.0149 1.8742C12.4876 5.53027 6.37034 11.5933 2.82013 18.9136C0.319583 24.0714 -0.912029 30.0748 0.781438 35.732C2.60553 41.8243 6.1884 46.871 11.5102 50.7376C16.8332 54.6041 27.1806 57.0895 33.9755 55.5258" fill="#1A1A1A"/>
<path fill-rule="evenodd" clip-rule="evenodd" d="M39.7484 37.7616C40.2937 37.2163 40.6 36.4767 40.6 35.7055V24.0166C40.6 23.2455 40.2937 22.5059 39.7484 21.9606C39.2031 21.4153 38.4635 21.1089 37.6923 21.1089H35.1335C34.932 21.1074 34.7359 21.0431 34.5727 20.925C34.4094 20.8069 34.287 20.6408 34.2225 20.4499L33.8154 19.2286C33.6225 18.6812 33.2701 18.2041 32.8038 17.8586C32.3374 17.5132 31.7783 17.3152 31.1985 17.2902H24.9566C24.3501 17.2838 23.7568 17.4672 23.2597 17.8148C22.7627 18.1624 22.3868 18.6568 22.1846 19.2286L21.7 20.508C21.6355 20.6989 21.5131 20.865 21.3498 20.9832C21.1865 21.1013 20.9905 21.1656 20.7889 21.1671H18.3077C17.5365 21.1671 16.7969 21.4734 16.2516 22.0187C15.7063 22.564 15.4 23.3036 15.4 24.0748V35.7055C15.4 36.4767 15.7063 37.2163 16.2516 37.7616C16.7969 38.3069 17.5365 38.6132 18.3077 38.6132H37.6923C38.4635 38.6132 39.2031 38.3069 39.7484 37.7616ZM33.8154 28.9209C33.8154 32.1327 31.2118 34.7363 28 34.7363C24.7883 34.7363 22.1846 32.1327 22.1846 28.9209C22.1846 25.7092 24.7883 23.1056 28 23.1056C31.2118 23.1056 33.8154 25.7092 33.8154 28.9209Z" fill="#F7F3F0"/>
</svg>
