<svg width="128" height="128" viewBox="0 0 128 128" fill="none" xmlns="http://www.w3.org/2000/svg">
<path d="M84.8483 124.048C98.8483 118.848 110.448 108.448 117.248 95.6482C119.248 91.6482 120.848 87.2482 122.448 82.8482C124.048 78.4482 125.648 74.4482 125.648 69.6482C126.048 65.6482 124.848 61.6482 124.048 57.6482C121.248 45.2482 117.648 32.4482 107.648 24.0482C104.048 20.8482 99.6483 18.4482 94.8483 16.4482C88.8483 13.6482 82.8483 11.6482 76.4483 9.6482C68.0483 7.2482 58.8483 5.6482 50.8483 8.4482C47.2483 9.6482 44.0483 11.2482 41.2483 13.2482C26.0483 22.8482 14.8483 37.2482 8.84834 53.6482C4.84834 65.2482 3.64834 78.4482 8.84834 90.0482C14.4483 102.448 23.2483 112.448 35.6483 119.248C48.0483 126.448 70.8483 128.848 84.8483 124.048Z" fill="#FABFA1"/>
<path d="M54.0482 19.6483C62.8482 18.0483 80.8482 27.2483 86.0482 33.2483C90.8482 38.8483 90.0482 45.2483 93.6482 48.0483C96.0482 49.6483 104.448 54.8483 104.848 56.4483C106.048 76.4483 87.6482 80.0483 80.8482 82.0483C79.6482 86.4483 80.0482 118.848 75.6482 119.648C45.6482 125.248 20.0482 107.648 22.8482 103.648C26.0482 99.2483 34.0482 88.0483 39.6482 80.0483C44.8482 72.4483 43.2482 70.8483 38.4482 65.6483C32.4482 59.2483 33.6482 42.4483 41.2482 30.0483C47.2482 22.8483 50.8482 21.6483 54.0482 19.6483Z" fill="white"/>
<path d="M39.6483 79.2483C39.6483 79.2483 27.6483 93.6483 21.2483 102.048C21.2483 107.648 25.6483 110.048 29.2483 110.048C33.6483 106.848 37.6483 103.248 38.4483 93.6483C39.2483 83.6483 39.6483 79.2483 39.6483 79.2483Z" fill="#FABFA1"/>
<path d="M42.0483 118.448C44.8483 116.848 43.6483 110.848 40.8483 110.848C36.0483 110.448 33.2483 116.448 37.2483 117.648C36.8483 117.648 41.2483 118.848 42.0483 118.448Z" fill="#FABFA1"/>
<path d="M71.6482 20.8483L87.6482 28.4483L92.4482 42.0483L95.2482 35.2483L86.8482 22.4483L78.4482 19.2483L71.6482 20.8483Z" fill="#1A1A1A"/>
<path d="M44.4482 26.4481C44.4482 26.4481 50.8482 20.0481 54.8482 18.4481C58.8482 17.2481 67.2482 19.6481 71.2482 20.8481C75.2482 22.0481 87.2482 27.6481 88.4482 30.4481C90.0482 34.4481 91.6482 39.6481 92.4482 47.2481C94.0482 48.8481 106.848 54.0481 106.848 54.0481C106.848 54.0481 108.448 58.4481 106.848 63.6481C105.248 69.2481 104.048 72.0481 102.848 73.2481C101.648 74.4481 100.048 69.2481 100.048 69.2481C100.048 69.2481 93.6482 76.8481 78.8482 81.6481C73.2482 83.6481 62.8482 74.8481 60.4482 70.8481" stroke="#1A1A1A" stroke-width="2.5" stroke-linecap="round" stroke-linejoin="round"/>
<path d="M100.048 69.2482C100.048 69.2482 101.248 65.2482 101.648 61.6482" stroke="#1A1A1A" stroke-width="2.5" stroke-linecap="round" stroke-linejoin="round"/>
<path d="M101.248 72.8481C101.248 72.8481 96.8483 81.6481 84.0483 80.8481" stroke="#1A1A1A" stroke-width="2.5" stroke-linecap="round" stroke-linejoin="round"/>
<path d="M94.0483 58.8483C94.0483 56.8483 95.6483 54.8483 97.6483 54.4483C99.6483 53.6483 104.448 52.4483 105.248 54.4483C106.848 57.2483 101.248 61.6483 101.248 61.6483C101.248 61.6483 96.4483 61.2483 94.0483 58.8483Z" stroke="#1A1A1A" stroke-width="2.5" stroke-linecap="round" stroke-linejoin="round"/>
<path d="M67.6482 51.4882C67.6482 49.5682 68.1282 48.1282 69.5682 47.6482C71.0082 47.6482 71.9682 48.6082 72.4482 50.5282C72.9282 52.4482 71.9682 54.3682 70.5282 54.3682C69.0882 54.3682 68.1282 53.4082 67.6482 51.4882Z" fill="#1A1A1A"/>
<path d="M86.4532 45.0082C85.9732 43.0882 86.9332 41.6482 88.3732 41.6482C89.8132 41.6482 90.7732 42.6082 91.2532 44.5282C91.7332 46.4482 90.7732 47.8882 89.3332 47.8882C87.4132 47.8882 86.9332 46.9282 86.4532 45.0082Z" fill="#1A1A1A"/>
<path d="M83.6482 80.4482C83.6482 80.4482 80.8482 90.4482 82.0482 118.048" stroke="#1A1A1A" stroke-width="2.5" stroke-linecap="round" stroke-linejoin="round"/>
<path d="M41.6483 79.2483C41.6483 79.2483 53.6483 95.2483 70.4483 95.6483C82.4483 95.6483 82.4483 92.4483 82.4483 92.4483L82.0483 99.6483C82.0483 99.6483 74.8483 103.248 64.8483 102.048C58.4483 101.248 45.2483 97.2483 37.2483 84.4483L41.6483 79.2483Z" fill="#1A1A1A"/>
<path d="M67.6483 107.648C68.4483 103.248 72.8483 100.048 77.2483 100.848C81.6483 101.648 84.8483 106.048 84.0483 110.448C83.2483 114.848 78.8483 118.048 74.4483 117.248C69.6483 116.448 66.8483 112.048 67.6483 107.648Z" fill="#1A1A1A"/>
<path d="M72.8484 108.448C73.2484 105.648 75.2484 103.648 77.6484 103.648C80.0484 104.048 81.6484 106.448 81.2484 109.248C80.8484 112.048 78.8484 114.048 76.4484 114.048C74.0484 114.048 72.4484 111.248 72.8484 108.448Z" fill="white"/>
<path d="M101.648 62.0482C101.648 62.0482 95.2482 60.8482 94.4482 58.8482C93.2482 55.6482 100.048 54.0482 100.048 54.0482C100.048 54.0482 105.248 52.8482 106.448 54.8482C107.648 56.8482 101.648 62.0482 101.648 62.0482Z" fill="#1A1A1A"/>
<path d="M70.4482 20.4482C70.4482 20.4482 72.8482 19.6482 77.2482 18.8482C79.6482 18.4482 86.8482 22.4482 86.8482 22.4482C86.8482 22.4482 90.8482 27.6482 95.2482 34.0482C95.6482 35.2482 92.4482 43.6482 92.4482 43.6482C92.4482 43.6482 88.8482 30.0482 88.0482 29.2482C87.6482 28.8482 78.8482 23.6482 70.4482 20.4482Z" stroke="#1A1A1A" stroke-width="2.5" stroke-linecap="round" stroke-linejoin="round"/>
<path d="M60.0481 28.0483C60.0481 28.0483 52.0481 24.4483 49.2481 23.2483C49.2481 23.2483 28.8481 32.0483 23.2481 35.6483C23.2481 35.6483 22.0481 52.4483 35.2481 74.8483C35.2481 74.8483 37.2481 75.2483 40.0481 68.8483C40.0481 68.8483 49.6481 28.4483 60.0481 28.0483Z" stroke="#1A1A1A" stroke-width="2.5" stroke-linecap="round" stroke-linejoin="round"/>
<path d="M23.2483 36.4483C23.2483 36.4483 23.6483 62.4483 34.8483 73.6483C34.8483 73.6483 38.0483 76.8483 41.2483 63.6483C44.8483 50.4483 53.2483 26.8483 59.2483 28.8483C59.2483 28.8483 50.8483 22.4483 48.0483 24.0483C45.6483 25.2483 24.0483 34.0483 23.2483 36.4483Z" fill="#1A1A1A"/>
<path d="M39.2482 59.6482C39.2482 62.0482 41.2482 64.8482 42.8482 67.2482C45.2482 70.0482 45.2482 73.6482 43.2482 76.4482C38.8482 83.2482 30.4482 95.2482 22.4482 103.648" stroke="#1A1A1A" stroke-width="2.5" stroke-linecap="round" stroke-linejoin="round"/>
<path d="M6.84825 80.8483C-3.15175 50.0483 14.0483 16.8483 44.8483 6.84825C75.6483 -3.15175 108.848 14.0483 118.848 44.8483C128.848 75.6483 112.048 109.248 80.8483 118.848C49.6483 128.448 16.8483 111.648 6.84825 80.8483Z" stroke="#1A1A1A" stroke-width="4" stroke-linecap="round" stroke-linejoin="round"/>
</svg>
