<svg width="128" height="128" viewBox="0 0 128 128" fill="none" xmlns="http://www.w3.org/2000/svg">
<path d="M78.1728 125.952C92.7332 122.601 105.457 113.732 113.417 101.827C115.976 98.0002 118.055 93.8875 120.13 89.7848C122.169 85.7498 124.231 81.6472 124.993 77.1711C125.673 73.1987 125.3 69.086 124.883 65.0234C123.606 52.6076 121.504 39.3272 112.682 29.7384C109.355 26.1245 105.239 23.2498 101.003 20.6559C95.4448 17.2525 89.6142 14.2801 83.5886 11.7764C75.5436 8.43308 66.7214 5.8993 58.359 7.42057C54.7951 8.06717 51.4537 9.43306 48.2572 10.9844C32.1273 18.8188 19.0189 31.8111 11.4113 47.4975C6.05299 58.5499 3.41382 71.4143 7.04267 83.5368C10.9514 96.5917 18.629 107.406 30.0329 115.692C41.4393 123.977 63.6123 129.303 78.1728 125.952Z" fill="#FABFA1"/>
<path d="M44.4001 16.4001C44.4001 16.4001 42.4001 20.8001 44.0001 25.6001C44.4001 27.2001 45.6001 28.8001 47.2001 30.4001C45.2001 31.6001 42.8001 35.6001 42.4001 37.2001C41.2001 36.8001 34.4001 35.6001 30.4001 34.8001C29.2001 34.0001 28.4001 35.2001 28.8001 36.4001C30.4001 39.6001 34.0001 44.8001 40.4001 45.6001C40.4001 46.4001 39.6001 58.0001 33.6001 68.8001C30.4001 74.4001 30.4001 80.4001 30.0001 80.8001C30.0001 82.4001 36.8001 87.6001 39.6001 96.8001C39.6001 96.8001 43.6001 98.4001 46.8001 96.4001C46.8001 96.4001 52.0001 92.0001 55.6001 90.8001C58.4001 88.4001 62.8001 82.4001 60.0001 76.0001C60.0001 75.6001 61.6001 69.6001 62.8001 69.2001C71.2001 66.8001 72.8001 63.6001 75.2001 54.0001C78.8001 58.8001 77.2001 63.6001 74.4001 67.2001C72.0001 70.0001 69.2001 72.4001 68.0001 73.6001C70.8001 80.8001 80.4001 94.0001 73.6001 108.4C71.6001 112.8 70.4001 117.6 66.4001 120.8C90.8001 117.2 114.4 103.6 119.2 79.2001C119.2 78.8001 108.8 70.8001 100 53.6001C96.0001 45.6001 76.0001 31.2001 62.0001 26.4001C52.8001 24.8001 47.6001 13.6001 44.4001 16.4001Z" fill="white"/>
<path d="M52 91.6C52 91.6 55.6 90 59.2 88.8C62 86.4 65.2 83.2 62.8 76.8C63.6 74.4 64 72.8 64 72.8C64 72.8 78.8 70 76.4 54" stroke="#1A1A1A" stroke-width="2.5" stroke-linecap="round" stroke-linejoin="round"/>
<path d="M70 71.2C70 71.2 87.6 101.2 71.6 120.4" stroke="#1A1A1A" stroke-width="2.5" stroke-linecap="round" stroke-linejoin="round"/>
<path d="M120.4 71.6C118.4 62.4 115.6 54 104.8 40.4C83.6002 12.7999 48.0002 28.4 46.8002 31.6C41.6002 55.6 33.2002 77.6 33.2002 79.2C33.2002 80.8 40.0002 86 42.8002 95.2C42.8002 95.2 47.6002 95.2 50.4002 93.2L56.4002 82.7999C56.4002 82.7999 58.0002 79.2 55.6002 76" stroke="#1A1A1A" stroke-width="2.5" stroke-linecap="round" stroke-linejoin="round"/>
<path d="M62.4002 24.8C62.4002 24.8 52.4002 20.4 48.0002 15.2C48.0002 15.2 44.4002 24.8 52.0002 29.2" stroke="#1A1A1A" stroke-width="2.5" stroke-linecap="round" stroke-linejoin="round"/>
<path d="M45.6 36C47.2 36.8 30 32.8 30 32.8C30 32.8 36 43.2 43.6 44.4" stroke="#1A1A1A" stroke-width="2.5" stroke-linecap="round" stroke-linejoin="round"/>
<path d="M53.2 47.2001C52.8 45.6001 53.6 44.0001 54.8 43.6001C56 43.6001 57.2 44.8001 57.2 46.4001C57.6 48.0001 56.8 49.6001 55.6 50.0001C54.8 50.0001 53.6 48.8001 53.2 47.2001Z" fill="#1A1A1A"/>
<path fill-rule="evenodd" clip-rule="evenodd" d="M54.7351 43.2H54.8C56.246 43.2 57.5752 44.5936 57.5997 46.3506C58.0105 48.0881 57.1579 49.9023 55.7265 50.3794L55.6649 50.4H55.6C55.0272 50.4 54.4267 49.9943 53.9527 49.4675C53.4604 48.9206 53.0283 48.1625 52.812 47.297C52.374 45.5451 53.2291 43.702 54.6735 43.2205L54.7351 43.2ZM54.8649 44.0015C53.9393 44.3566 53.2339 45.6861 53.5881 47.1029C53.7717 47.8374 54.1396 48.4793 54.5473 48.9324C54.9386 49.3671 55.3076 49.5665 55.5412 49.596C56.4638 49.2375 57.1654 47.9107 56.812 46.497L56.8 46.4492V46.4C56.8 45.0128 55.7886 44.0452 54.8649 44.0015Z" fill="#1A1A1A"/>
<path d="M54.8001 26.8001C51.6001 23.2001 39.6001 22.0001 39.6001 35.2001C39.6001 35.2001 36.0001 44.4001 28.4001 48.0001C25.6001 49.2001 40.4001 55.6001 51.6001 38.8001C54.4001 34.4001 57.6001 30.0001 54.8001 26.8001Z" fill="#1A1A1A"/>
<path d="M42 84.3999C40.8 84.7999 39.2 80.7999 38.8 77.5999C38.8 73.9999 43.2 74.7999 43.2 78.3999C43.6 81.1999 43.6 83.9999 42 84.3999Z" fill="#1A1A1A"/>
<path d="M64.0001 25.9999C64.0001 25.9999 93.2001 31.1999 119.6 74.3999C120.8 69.1999 120.8 67.1999 120.4 64.7999C110.8 31.1999 82.4001 14.7999 57.6001 21.1999C60.4001 23.1999 61.2001 23.5999 64.0001 25.9999Z" fill="#1A1A1A"/>
<path d="M4 62.8C4 30.4 30.4 4 62.8 4C95.2 4 121.6 30.4 121.6 62.8C121.6 95.2 95.2 121.6 62.8 121.6C30.4 121.6 4 95.2 4 62.8Z" stroke="#1A1A1A" stroke-width="4" stroke-linecap="round" stroke-linejoin="round"/>
</svg>
