<svg width="34" height="34" viewBox="0 0 34 34" fill="none" xmlns="http://www.w3.org/2000/svg">
<path fill-rule="evenodd" clip-rule="evenodd" d="M26.4497 5.5249C27.3817 5.5249 28.1372 6.95542 28.1372 7.8874V18.1812C28.1372 19.6999 28.4747 29.1499 28.4747 29.1499C28.4747 30.0819 27.1247 30.8374 26.1122 30.8374C26.1122 30.8374 20.0372 31.1749 18.0122 31.1749H9.91221C8.98023 31.1749 7.88721 30.0819 7.88721 29.1499C7.88721 29.1499 8.22471 19.6999 8.22471 18.0124V7.2124C8.22471 6.28042 8.64273 5.5249 9.57471 5.5249C9.57471 5.5249 15.6497 5.8624 17.6747 5.8624C19.6997 5.8624 26.4497 5.5249 26.4497 5.5249ZM24.4247 13.6249C24.7412 13.3084 24.7622 12.8912 24.7622 12.4437C24.7622 11.9961 24.7412 11.5669 24.4247 11.2504C24.1082 10.9339 23.1848 10.7562 22.7372 10.7562H18.0122C17.5647 10.7562 16.9787 10.9339 16.6622 11.2504C16.3457 11.5669 16.3247 11.9961 16.3247 12.4437C16.3247 12.8912 16.6832 13.3084 16.9997 13.6249C17.3162 13.9414 17.5647 14.1312 18.0122 14.1312H23.0747C23.5223 14.1312 24.1082 13.9414 24.4247 13.6249Z" fill="#A0A1FA"/>
<path d="M25.4375 4.34375H8.5625C7.63052 4.34375 6.875 5.09927 6.875 6.03125V27.9688C6.875 28.9007 7.63052 29.6562 8.5625 29.6562H25.4375C26.3695 29.6562 27.125 28.9007 27.125 27.9688V6.03125C27.125 5.09927 26.3695 4.34375 25.4375 4.34375Z" stroke="#1A1A1A" stroke-width="1.5" stroke-linecap="round" stroke-linejoin="round"/>
<path d="M11.9375 4.34375V29.6562" stroke="#1A1A1A" stroke-width="1.5" stroke-linecap="round" stroke-linejoin="round"/>
<path d="M23.75 11.0937C23.75 11.5413 23.5722 11.9705 23.2557 12.287C22.9393 12.6035 22.5101 12.7812 22.0625 12.7812H17C16.5524 12.7812 16.1232 12.6035 15.8068 12.287C15.4903 11.9705 15.3125 11.5413 15.3125 11.0937C15.3125 10.6462 15.4903 10.217 15.8068 9.90051C16.1232 9.58404 16.5524 9.40625 17 9.40625H22.0625C22.5101 9.40625 22.9393 9.58404 23.2557 9.90051C23.5722 10.217 23.75 10.6462 23.75 11.0937Z" stroke="#1A1A1A" stroke-width="1.5" stroke-linecap="round" stroke-linejoin="round"/>
</svg>
