<svg width="28" height="28" viewBox="0 0 28 28" fill="none" xmlns="http://www.w3.org/2000/svg">
<path d="M17.6208 16.9571C17.6208 15.8901 17.197 14.8668 16.4425 14.1124C15.688 13.3579 14.6648 12.9341 13.5978 12.9341C12.5309 12.9341 11.5076 13.3579 10.7531 14.1124C9.99869 14.8668 9.57484 15.8901 9.57484 16.9571C8.72127 16.9571 7.90265 17.2961 7.29909 17.8997C6.69552 18.5033 6.35645 19.3219 6.35645 20.1755C6.35645 21.029 6.69552 21.8476 7.29909 22.4512C7.90265 23.0548 8.72127 23.3939 9.57484 23.3939C10.2835 23.3773 10.9783 23.1935 11.6024 22.8575C12.2186 22.5371 12.9028 22.3698 13.5973 22.3698C14.2917 22.3698 14.976 22.5371 15.5922 22.8575C16.2167 23.1934 16.9118 23.3772 17.6208 23.3939C18.4744 23.3939 19.293 23.0548 19.8966 22.4512C20.5001 21.8476 20.8392 21.029 20.8392 20.1755C20.8392 19.3219 20.5001 18.5033 19.8966 17.8997C19.293 17.2961 18.4744 16.9571 17.6208 16.9571Z" stroke="#807D7C" stroke-width="1.5" stroke-linecap="round" stroke-linejoin="round"/>
<path d="M2.3335 12.9343C2.3335 13.2513 2.39593 13.5652 2.51724 13.858C2.63854 14.1509 2.81634 14.417 3.04048 14.6411C3.26462 14.8653 3.53072 15.0431 3.82357 15.1644C4.11643 15.2857 4.43031 15.3481 4.74729 15.3481C5.06427 15.3481 5.37815 15.2857 5.67101 15.1644C5.96386 15.0431 6.22996 14.8653 6.4541 14.6411C6.67824 14.417 6.85604 14.1509 6.97734 13.858C7.09865 13.5652 7.16108 13.2513 7.16108 12.9343C7.16108 12.6173 7.09865 12.3034 6.97734 12.0106C6.85604 11.7177 6.67824 11.4516 6.4541 11.2275C6.22996 11.0034 5.96386 10.8256 5.67101 10.7042C5.37815 10.5829 5.06427 10.5205 4.74729 10.5205C4.43031 10.5205 4.11643 10.5829 3.82357 10.7042C3.53072 10.8256 3.26462 11.0034 3.04048 11.2275C2.81634 11.4516 2.63854 11.7177 2.51724 12.0106C2.39593 12.3034 2.3335 12.6173 2.3335 12.9343V12.9343Z" stroke="#807D7C" stroke-width="1.5" stroke-linecap="round" stroke-linejoin="round"/>
<path d="M7.16113 6.49729C7.16113 7.13747 7.41544 7.75142 7.86812 8.2041C8.32079 8.65677 8.93475 8.91108 9.57493 8.91108C10.2151 8.91108 10.8291 8.65677 11.2817 8.2041C11.7344 7.75142 11.9887 7.13747 11.9887 6.49729C11.9887 5.85711 11.7344 5.24315 11.2817 4.79048C10.8291 4.33781 10.2151 4.0835 9.57493 4.0835C8.93475 4.0835 8.32079 4.33781 7.86812 4.79048C7.41544 5.24315 7.16113 5.85711 7.16113 6.49729V6.49729Z" stroke="#807D7C" stroke-width="1.5" stroke-linecap="round" stroke-linejoin="round"/>
<path d="M15.207 6.49729C15.207 7.13747 15.4613 7.75142 15.914 8.2041C16.3667 8.65677 16.9806 8.91108 17.6208 8.91108C18.261 8.91108 18.875 8.65677 19.3276 8.2041C19.7803 7.75142 20.0346 7.13747 20.0346 6.49729C20.0346 5.85711 19.7803 5.24315 19.3276 4.79048C18.875 4.33781 18.261 4.0835 17.6208 4.0835C16.9806 4.0835 16.3667 4.33781 15.914 4.79048C15.4613 5.24315 15.207 5.85711 15.207 6.49729V6.49729Z" stroke="#807D7C" stroke-width="1.5" stroke-linecap="round" stroke-linejoin="round"/>
<path d="M20.8394 12.9343C20.8394 13.5745 21.0937 14.1884 21.5463 14.6411C21.999 15.0938 22.613 15.3481 23.2531 15.3481C23.8933 15.3481 24.5073 15.0938 24.96 14.6411C25.4126 14.1884 25.6669 13.5745 25.6669 12.9343C25.6669 12.2941 25.4126 11.6802 24.96 11.2275C24.5073 10.7748 23.8933 10.5205 23.2531 10.5205C22.613 10.5205 21.999 10.7748 21.5463 11.2275C21.0937 11.6802 20.8394 12.2941 20.8394 12.9343V12.9343Z" stroke="#807D7C" stroke-width="1.5" stroke-linecap="round" stroke-linejoin="round"/>
</svg>
