<svg width="132" height="195" viewBox="0 0 132 195" fill="none" xmlns="http://www.w3.org/2000/svg">
<path d="M131.5 43.2L131.2 42.9L130.8 42.8L130.9 43.1001L131.2 43.4" fill="white"/>
<path d="M64.8999 2.2C71.3999 0.999997 84.8999 7.8 88.8999 12.3C92.4999 16.5 91.8999 21.3 94.5999 23.3C96.2999 24.6 102.8 28.3 102.9 29.6C103.8 44.6 89.9999 47.3 84.8999 48.7C82.6999 56.9 86.4999 144.6 89.0999 152.7C89.9999 155.6 95.5999 158.2 97.0999 159.5C99.2999 161.5 98.8999 161.7 95.7999 165.6C93.8999 168 89.0999 168.7 86.5999 168.1C82.4999 167.1 80.7999 162.9 79.5999 160.1C77.9999 156.4 69.5999 109.5 69.5999 109.5C69.5999 109.5 63.0999 115.1 63.7999 115.4C68.0999 117.6 66.6999 123.7 62.4999 130.2C63.4999 137.2 62.1999 140.8 63.1999 142.5C64.1999 144.3 67.2999 148.4 69.1999 149.2C74.0999 148.4 80.3999 153.4 80.4999 155C80.6999 159.3 78.2999 160.6 74.1999 161.3C70.1999 161.9 64.8999 157.2 64.2999 157.6C63.5999 158.1 63.6999 162.9 64.0999 163.5C64.5999 164.2 68.3999 166.7 69.1999 168.5C69.5999 169.5 69.9999 176 67.5999 177.1C64.2999 178.7 57.4999 174.8 55.7999 174.8C52.9999 174.8 51.6999 167.7 51.0999 160.3C50.3999 152.3 50.4999 143.9 49.9999 143.5C48.7999 142.7 40.0999 142.4 37.6999 143.3C35.8999 144 29.3999 149.7 31.3999 152.4C32.7999 154.3 35.4999 158.2 37.8999 159.4C40.0999 160.5 46.8999 163.4 47.7999 165.5C48.4999 167.3 51.3999 168 49.9999 172.7C49.1999 175.2 44.6999 174.4 43.3999 175.5C40.8999 177.5 37.6999 173.5 37.6999 173.5C37.6999 173.5 13.1999 157.5 11.1999 155.9C7.59992 153 -0.200071 133.2 0.399929 125.6C0.999929 118.1 5.59992 116.4 4.69992 113C-1.70008 88 18.2999 64 19.2999 67.9C20.3999 71.8 16.2999 85.3 16.4999 91.7C16.4999 92.6 25.4999 83.9 28.9999 79.2C32.7999 74 54.7999 46.1 54.7999 46.1C54.7999 46.1 50.8999 15.5 55.3999 9.89999C59.7999 4.59999 62.2999 3.6 64.8999 2.2Z" fill="white"/>
<path d="M89.1998 180.9C90.2998 180.8 101.5 174.4 101.5 174.4C101.5 174.4 100.3 170.3 102.8 169.1C105.2 167.9 108.8 168.8 108.6 172.2C108.6 172.2 114 168 116.4 172.9C118.3 176.7 117.1 178.8 114.1 180.7C111.1 182.6 108.8 181.1 107.6 179.9L98.9998 185.4C98.9998 185.4 101.2 189.5 97.8998 192C94.5998 194.5 92.1998 194.5 89.3998 193.6C86.5998 192.7 86.9998 188.3 86.9998 188.3C86.9998 188.3 83.7998 189.6 81.2998 187.5C79.5998 186.1 78.9998 182.5 82.3998 180.4C85.5998 178.4 87.9998 181 89.1998 180.9Z" fill="#FABFA1"/>
<path d="M18.8999 67.3999C16.3999 67.4999 8.2999 77.8 6.8999 86.2C6.8999 86.2 9.7999 89.5999 16.9999 87.3999C17.0999 81.5999 21.3999 67.2999 18.8999 67.3999Z" fill="#FABFA1"/>
<path d="M5.5999 116.8C5.9999 119.5 6.2999 129.2 9.9999 129.6C20.7999 130.7 28.3999 109.9 20.3999 103.3C11.7999 96.3 4.5999 110 5.5999 116.8Z" fill="#FABFA1"/>
<path d="M31.8999 87.9C32.1999 89.6 35.2999 92.5001 37.8999 92.7001C45.3999 93.4001 47.6999 83.7001 42.1999 79.7001C36.1999 75.4001 31.2999 83.7 31.8999 87.9Z" fill="#FABFA1"/>
<path d="M40.8999 74.1C41.0999 75.4 43.4999 77.6 45.3999 77.7C51.0999 78.2 52.7999 70.8999 48.6999 67.8999C44.0999 64.6999 40.3999 70.9 40.8999 74.1Z" fill="#FABFA1"/>
<path d="M55.3002 87.8C57.5002 86.7 56.5002 82.2 54.4002 82C50.8002 81.8 48.7002 86.1001 51.6002 87.2001C51.6002 87.2001 54.7002 88.1 55.3002 87.8Z" fill="#FABFA1"/>
<path d="M24.3002 101.8C26.5002 100.7 25.5002 96.2 23.4002 96C19.8002 95.8 17.7002 100.1 20.6002 101.2C20.6002 101.2 23.7002 102.1 24.3002 101.8Z" fill="#FABFA1"/>
<path d="M46.7999 126.3C48.4999 127.3 52.2999 120.3 52.5999 119.2C54.1999 114 55.6999 106.1 50.1999 102.7C49.1999 102.1 47.0999 103.3 46.4999 104.1C44.6999 106.2 43.7999 110.5 43.6999 113.1C43.5999 113.9 45.5999 125.5 46.7999 126.3Z" fill="#FABFA1"/>
<path d="M78.3999 3.19997L90.2999 8.79997L93.7999 18.9L95.7999 13.8L89.3999 4.09998L83.0999 1.59998L78.3999 3.19997Z" fill="#1A1A1A"/>
<path d="M6.79998 112.4C6.79998 112.4 2.49998 96.2 12.8 78.2C23.7 59.1 20.4 72.6 19.8 77.8C19.3 82.5 19 88.4 20.2 92.4" stroke="#1A1A1A" stroke-width="1.5" stroke-linecap="round" stroke-linejoin="round"/>
<path d="M58 7.30004C58 7.30004 62.7 2.40004 65.7 1.40004C68.8 0.500035 74.9 2.40004 77.9 3.20004C80.9 4.00004 90 8.30005 90.9 10.3C92.2 13.3 93.2 17.1 93.9 22.8C95.2 24 104.6 27.9 104.6 27.9C104.6 27.9 105.7 31.1 104.6 35C103.5 39.1 102.4 41.2 101.5 42.2C100.6 43.2 99.4 39.2 99.4 39.2C99.4 39.2 94.6 44.9 83.6 48.6C79.3 50.1 71.6 43.4 69.8 40.6C68 37.8 68.7 33.5 68.7 33.5" stroke="#1A1A1A" stroke-width="1.5" stroke-linecap="round" stroke-linejoin="round"/>
<path d="M99.2998 39.2C99.2998 39.2 100.4 36.6 100.7 33.8" stroke="#1A1A1A" stroke-width="1.5" stroke-linecap="round" stroke-linejoin="round"/>
<path d="M100.4 42.1C100.4 42.1 96.3998 47.3 87.7998 47.2" stroke="#1A1A1A" stroke-width="1.5" stroke-linecap="round" stroke-linejoin="round"/>
<path d="M95.1998 31.6C94.9998 30 96.3998 28.7 97.9998 28.2C99.5998 27.7 103.1 26.8 103.8 28.2C105 30.4 100.7 33.6 100.7 33.6C100.7 33.6 96.9998 33.3 95.1998 31.6Z" stroke="#1A1A1A" stroke-width="1.5" stroke-linecap="round" stroke-linejoin="round"/>
<path d="M75.2002 25.5C75.0002 24.3 75.6002 23.3 76.5002 23.2C77.4002 23.1 78.2002 23.9 78.4002 25C78.6002 26.2 78.0002 27.2 77.1002 27.3C76.2002 27.4 75.4002 26.7 75.2002 25.5Z" fill="#1A1A1A"/>
<path d="M90.3 20.9C90.1 19.8 90.7 18.8 91.5 18.7C92.3 18.6 93.1 19.3 93.3 20.4C93.5 21.5 92.9 22.5 92.1 22.6C91.3 22.8 90.5 22 90.3 20.9Z" fill="#1A1A1A"/>
<path d="M87.0999 47.3C87.0999 47.3 85.5999 59.5001 86.5999 80.1001C87.5999 100.8 89.2999 152.2 89.2999 152.2C89.2999 152.2 96.7999 156.8 97.7999 157.9C98.6999 158.9 98.3999 161 98.3999 162.1C98.3999 163.2 96.7999 165.7 95.9999 166.2C95.1999 166.7 90.1999 167.5 88.9999 167.5C86.0999 167.5 80.8999 161.5 80.6999 160.6C80.4999 159.7 72.3999 109.1 72.3999 109.1" stroke="#1A1A1A" stroke-width="1.5" stroke-linecap="round" stroke-linejoin="round"/>
<path d="M42 108.1C42 108.1 53.6 155 53.7 166.1C53.9 177.2 61.8 176.8 62.8 177.1C63.8 177.4 66.7 178.2 69 176.1C72.9 174.9 71.5 170.2 70.5 168.2C69.2 166.3 64.1 163 64.1 163C64.1 163 62.6 104.3 63.7 99" stroke="#1A1A1A" stroke-width="1.5" stroke-linecap="round" stroke-linejoin="round"/>
<path d="M63.7998 120.3C63.7998 120.3 69.3998 113 72.8998 107.9C76.3998 102.8 77.6998 98.6 78.3998 96.6" stroke="#1A1A1A" stroke-width="1.5" stroke-linecap="round" stroke-linejoin="round"/>
<path d="M31.1001 149.4C31.1001 149.4 38.2001 143.6 47.2001 144.6C47.2001 144.6 48.8001 142.9 49.7001 141.3" stroke="#1A1A1A" stroke-width="1.5" stroke-linecap="round" stroke-linejoin="round"/>
<path d="M47.1001 144.6C47.1001 144.6 49.7001 145.7 50.9001 147.7" stroke="#1A1A1A" stroke-width="1.5" stroke-linecap="round" stroke-linejoin="round"/>
<path d="M67.8998 115.7C67.8998 115.7 70.5998 119 67.3998 127.1C64.9998 133 63.7998 134.1 63.7998 134.1" stroke="#1A1A1A" stroke-width="1.5" stroke-linecap="round" stroke-linejoin="round"/>
<path d="M43.6999 173C43.6999 173 44.0999 170.6 43.9999 169.3C43.7999 168 40.8999 166.7 40.8999 166.7" stroke="#1A1A1A" stroke-width="1.5" stroke-linecap="round" stroke-linejoin="round"/>
<path d="M48.1 172.4C48.1 172.4 49.2 171 48.5 168.3C47.8 165.6 44.5 164.4 44.5 164.4" stroke="#1A1A1A" stroke-width="1.5" stroke-linecap="round" stroke-linejoin="round"/>
<path d="M62.8002 176.9C62.8002 176.9 63.8002 176 63.4002 173.1C63.0002 170.3 61.7002 170 61.7002 170" stroke="#1A1A1A" stroke-width="1.5" stroke-linecap="round" stroke-linejoin="round"/>
<path d="M68.3999 176.3C68.3999 176.3 69.1999 174.4 68.4999 172C67.9999 170.4 66.3999 169.4 66.3999 169.4" stroke="#1A1A1A" stroke-width="1.5" stroke-linecap="round" stroke-linejoin="round"/>
<path d="M91.4001 167C91.4001 167 92.5001 165.4 92.1001 163.2C91.8001 161 88.6001 159.8 88.6001 159.8" stroke="#1A1A1A" stroke-width="1.5" stroke-linecap="round" stroke-linejoin="round"/>
<path d="M95.3999 166.1C95.3999 166.1 96.5999 163.8 96.0999 161.2C96.1999 159.5 91.8999 157.5 91.8999 157.5" stroke="#1A1A1A" stroke-width="1.5" stroke-linecap="round" stroke-linejoin="round"/>
<path d="M64.2002 155.1C64.2002 155.1 71.6002 160.5 75.5002 158.9C79.3002 159.7 79.8002 155.7 79.8002 155.7" stroke="#1A1A1A" stroke-width="1.5" stroke-linecap="round" stroke-linejoin="round"/>
<path d="M55.9001 47C55.9001 47 64.8001 59.1 77.5001 59.2C86.4001 59.2 86.4001 56.9 86.4001 56.9L86.2001 62.4C86.2001 62.4 80.9001 65.2 73.4001 64.2C68.7001 63.6 58.8001 60.7 52.6001 51L55.9001 47Z" fill="#1A1A1A"/>
<path d="M76.3998 68.1C76.9998 64.7 80.2998 62.5 83.6998 63.1C87.0998 63.7 89.2998 66.9999 88.6998 70.3999C88.0998 73.7999 84.7998 75.9999 81.3998 75.3999C77.9998 74.7999 75.7998 71.5 76.3998 68.1Z" fill="#1A1A1A"/>
<path d="M80.0998 68.9C80.3998 66.5 82.1998 64.8 84.1998 65C86.1998 65.3 87.5998 67.4 87.2998 69.8C86.9998 72.2 85.1998 73.9 83.1998 73.7C81.1998 73.4 79.8998 71.3 80.0998 68.9Z" fill="white"/>
<path d="M100.8 33.9C100.8 33.9 95.8999 32.9 95.4999 31.5C94.6999 29 99.5999 27.8 99.5999 27.8C99.5999 27.8 103.6 26.8 104.4 28.5C105.2 30.1 100.8 33.9 100.8 33.9Z" fill="#1A1A1A"/>
<path d="M64 142.8C64 142.8 68.2 146.6 68.8 146.9C68.8 146.9 75.6 146.2 78.8 149.5" stroke="#1A1A1A" stroke-width="1.5" stroke-linecap="round" stroke-linejoin="round"/>
<path d="M75.3999 158.9C75.3999 158.9 75.8999 156.8 75.0999 155C74.1999 153.8 71.8999 152 71.8999 152" stroke="#1A1A1A" stroke-width="1.5" stroke-linecap="round" stroke-linejoin="round"/>
<path d="M79.5998 154.2C79.5998 154.2 78.1998 151.4 75.2998 150.2" stroke="#1A1A1A" stroke-width="1.5" stroke-linecap="round" stroke-linejoin="round"/>
<path d="M88.2999 179.3C89.3999 179.2 100.6 172.8 100.6 172.8C100.6 172.8 99.3999 168.7 101.9 167.5C104.3 166.3 107.9 167.2 107.7 170.6C107.7 170.6 112.6 170.4 114 172.3C115.3 174.2 115.4 176.9 113.3 178.9C111.2 180.9 107.9 179.5 106.7 178.3L96.0999 184.2C96.0999 184.2 97.2999 188.4 95.3999 190.4C93.4999 192.4 91.2999 192.9 88.4999 192C85.6999 191.1 86.0999 186.7 86.0999 186.7C86.0999 186.7 82.8999 188 80.3999 185.9C78.6999 184.5 78.0999 180.9 81.4999 178.8C84.6999 176.7 87.1999 179.3 88.2999 179.3Z" stroke="#1A1A1A" stroke-width="1.5" stroke-linecap="round" stroke-linejoin="round"/>
<path d="M77.2998 2.79997C77.2998 2.79997 79.1998 2.29998 82.2998 1.59998C84.0998 1.39998 89.5998 4.29997 89.5998 4.29997C89.5998 4.29997 92.6998 8.29997 95.7998 13C95.9998 14 93.7998 20.2 93.7998 20.2C93.7998 20.2 91.1998 9.99997 90.6998 9.49997C90.1998 9.09997 83.6998 5.09997 77.2998 2.79997Z" stroke="#1A1A1A" stroke-width="1.5" stroke-linecap="round" stroke-linejoin="round"/>
<path d="M69.6001 8.40002C69.6001 8.40002 63.5001 5.80002 61.5001 4.90002C61.5001 4.90002 46.1001 11.6 41.9001 14.1C41.9001 14.1 41.0001 26.8 50.8001 43.5C50.8001 43.5 52.4001 43.8 54.5001 39.1C54.6001 39.1 61.9001 8.80002 69.6001 8.40002Z" stroke="#1A1A1A" stroke-width="1.5" stroke-linecap="round" stroke-linejoin="round"/>
<path d="M42.1001 14.7C42.1001 14.7 42.5001 34.1 50.9001 42.6C50.9001 42.6 53.2001 45 55.8001 35.2C58.4001 25.4 64.9001 7.7 69.3001 9C69.3001 9 63.1001 4.19999 61.0001 5.39999C58.9001 6.39999 42.5001 12.9 42.1001 14.7Z" fill="#1A1A1A"/>
<path d="M53.9 32.2C53.9 33.6 54.8 35.3 55.9 36.8C58 39.6 58.1 43.4 56.1 46.2C49.2 56.1 34.3 77.3 27.6 84.2C19.3 92.7 4.70002 113.6 3.00002 121.7C1.70002 127.5 4.00002 134.5 5.20002 137.8C7.20002 143.4 9.30002 150.3 9.90002 151.3C11 152.9 11.4 154.2 18.5 158.6C24.7 162.5 34 170.4 36.9 172.7C39.8 174.9 44.2 173.2 44.2 173.2C44.2 173.2 47.5 173.6 48.8 171.8C50.1 170.1 49.4 168.3 48.6 165.6C47.7 162.9 47.1 162.9 44.8 161.4C42.5 159.9 38.5 159.1 38.5 159.1L30.2 149.5C30.2 149.5 38.1 141.8 40.4 134.5C42.7 127.2 40.9 117.2 36.6 112.5" stroke="#1A1A1A" stroke-width="1.5" stroke-linecap="round" stroke-linejoin="round"/>
</svg>
