<svg width="40" height="40" viewBox="0 0 40 40" fill="none" xmlns="http://www.w3.org/2000/svg">
<path d="M13.1231 27.9166L12.9147 32.9166C12.8909 33.4438 12.9764 35.4428 13.3314 35.8333C13.6864 36.2237 14.8877 36.6403 15.4147 36.6666C15.4147 36.6666 21.2481 36.6666 22.9147 36.6666C24.5814 36.6666 32.0633 36.2499 32.0633 36.2499C32.5901 36.2233 33.085 35.9892 33.4397 35.5988C33.7944 35.2085 33.9802 34.6935 33.9564 34.1666C33.9564 34.1666 33.4401 24.5833 33.4397 21.2499C33.4393 17.9166 33.9564 9.16659 33.9564 9.16659C33.9806 8.63956 33.7949 8.12442 33.4401 7.73396C33.0853 7.34349 32.5903 7.10952 32.0633 7.08325C32.0633 7.08325 30.4147 7.26597 27.9147 7.49992C25.4147 7.73387 15.0175 7.08325 15.0175 7.08325C14.4905 7.10952 13.9953 7.34345 13.6403 7.73387C13.2852 8.12429 13.0993 8.63942 13.1231 9.16659C13.1231 9.16659 12.4981 13.3333 12.4981 16.2499" fill="#FABFA1"/>
<path d="M26.248 20.0055H4.37305" stroke="#1A1A1A" stroke-width="1.5" stroke-linecap="round" stroke-linejoin="round"/>
<path d="M9.58105 25.2138L4.37272 20.0055L9.58105 14.7971" stroke="#1A1A1A" stroke-width="1.5" stroke-linecap="round" stroke-linejoin="round"/>
<path d="M14.7896 26.25V32.5C14.7658 33.0271 14.9517 33.5422 15.3068 33.9327C15.6618 34.3231 16.157 34.557 16.684 34.5833H33.7298C34.2566 34.5567 34.7515 34.3226 35.1062 33.9322C35.4609 33.5418 35.6467 33.0269 35.6229 32.5V7.49996C35.6471 6.97293 35.4614 6.45779 35.1066 6.06733C34.7518 5.67687 34.2568 5.44289 33.7298 5.41663H16.684C16.157 5.4429 15.6618 5.67683 15.3068 6.06725C14.9517 6.45767 14.7658 6.9728 14.7896 7.49996V13.75" stroke="#1A1A1A" stroke-width="1.5" stroke-linecap="round" stroke-linejoin="round"/>
</svg>
