<svg width="128" height="128" viewBox="0 0 128 128" fill="none" xmlns="http://www.w3.org/2000/svg">
<path d="M78.1728 125.952C92.7332 122.601 105.457 113.732 113.417 101.827C115.976 98.0002 118.055 93.8875 120.13 89.7848C122.169 85.7498 124.231 81.6472 124.993 77.1711C125.673 73.1987 125.3 69.086 124.883 65.0234C123.606 52.6076 121.504 39.3272 112.682 29.7384C109.355 26.1245 105.239 23.2498 101.003 20.6559C95.4448 17.2525 89.6142 14.2801 83.5886 11.7764C75.5436 8.43308 66.7214 5.8993 58.359 7.42057C54.7951 8.06717 51.4537 9.43306 48.2572 10.9844C32.1273 18.8188 19.0189 31.8111 11.4113 47.4975C6.05299 58.5499 3.41382 71.4143 7.04267 83.5368C10.9514 96.5917 18.629 107.406 30.0329 115.692C41.4393 123.977 63.6123 129.303 78.1728 125.952Z" fill="#FABFA1"/>
<path d="M52.6738 71.5668C54.0085 71.2596 55.1748 70.4466 55.9044 69.3553C56.139 69.0045 56.3296 68.6275 56.5198 68.2514C56.7067 67.8816 56.8957 67.5055 56.9656 67.0952C57.0279 66.731 56.9938 66.354 56.9555 65.9816C56.8385 64.8435 56.6458 63.6261 55.8371 62.7472C55.5322 62.4159 55.1548 62.1524 54.7665 61.9146C54.257 61.6026 53.7225 61.3302 53.1702 61.1007C52.4327 60.7942 51.624 60.5619 50.8575 60.7014C50.5308 60.7606 50.2245 60.8859 49.9315 61.0281C48.4529 61.7462 47.2513 62.9372 46.554 64.3751C46.0628 65.3882 45.8209 66.5675 46.1535 67.6787C46.5118 68.8754 47.2156 69.8667 48.2609 70.6262C49.3065 71.3857 51.339 71.8739 52.6738 71.5668Z" fill="white"/>
<path d="M65.3262 71.5668C63.9915 71.2596 62.8252 70.4466 62.0956 69.3553C61.861 69.0045 61.6704 68.6275 61.4802 68.2514C61.2933 67.8816 61.1043 67.5055 61.0344 67.0952C60.9721 66.731 61.0062 66.354 61.0445 65.9816C61.1615 64.8435 61.3542 63.6261 62.1629 62.7472C62.4678 62.4159 62.8452 62.1524 63.2335 61.9146C63.743 61.6026 64.2775 61.3302 64.8298 61.1007C65.5673 60.7942 66.376 60.5619 67.1425 60.7014C67.4692 60.7606 67.7755 60.8859 68.0685 61.0281C69.5471 61.7462 70.7487 62.9372 71.446 64.3751C71.9372 65.3882 72.1791 66.5675 71.8465 67.6787C71.4882 68.8754 70.7844 69.8667 69.7391 70.6262C68.6935 71.3857 66.661 71.8739 65.3262 71.5668Z" fill="white"/>
<path d="M81.6738 60.7531C83.0085 61.0602 84.1748 61.8733 84.9044 62.9645C85.139 63.3153 85.3296 63.6923 85.5198 64.0684C85.7067 64.4383 85.8957 64.8143 85.9656 65.2247C86.0279 65.5888 85.9938 65.9658 85.9555 66.3382C85.8385 67.4763 85.6458 68.6937 84.8371 69.5726C84.5322 69.9039 84.1548 70.1674 83.7665 70.4052C83.257 70.7172 82.7225 70.9897 82.1702 71.2192C81.4327 71.5256 80.624 71.7579 79.8575 71.6185C79.5308 71.5592 79.2245 71.434 78.9315 71.2918C77.4529 70.5736 76.2513 69.3827 75.554 67.9447C75.0628 66.9316 74.8209 65.7524 75.1535 64.6411C75.5118 63.4444 76.2156 62.4531 77.2609 61.6936C78.3065 60.9341 80.339 60.4459 81.6738 60.7531Z" fill="white"/>
<path d="M45.25 64.0383C45.25 65.1987 45.7109 66.3115 46.5314 67.1319C47.3519 67.9524 48.4647 68.4133 49.625 68.4133C50.7853 68.4133 51.8981 67.9524 52.7186 67.1319C53.5391 66.3115 54 65.1987 54 64.0383C54 62.878 53.5391 61.7652 52.7186 60.9447C51.8981 60.1243 50.7853 59.6633 49.625 59.6633C48.4647 59.6633 47.3519 60.1243 46.5314 60.9447C45.7109 61.7652 45.25 62.878 45.25 64.0383V64.0383Z" stroke="#1A1A1A" stroke-width="2.5" stroke-linecap="round" stroke-linejoin="round"/>
<path d="M74 64.0383C74 64.6129 74.1132 65.1818 74.333 65.7126C74.5529 66.2434 74.8752 66.7257 75.2814 67.1319C75.6877 67.5382 76.17 67.8604 76.7008 68.0803C77.2316 68.3002 77.8005 68.4133 78.375 68.4133C78.9495 68.4133 79.5184 68.3002 80.0492 68.0803C80.58 67.8604 81.0623 67.5382 81.4686 67.1319C81.8748 66.7257 82.1971 66.2434 82.417 65.7126C82.6368 65.1818 82.75 64.6129 82.75 64.0383C82.75 63.4638 82.6368 62.8949 82.417 62.3641C82.1971 61.8333 81.8748 61.351 81.4686 60.9447C81.0623 60.5385 80.58 60.2162 80.0492 59.9964C79.5184 59.7765 78.9495 59.6633 78.375 59.6633C77.8005 59.6633 77.2316 59.7765 76.7008 59.9964C76.17 60.2162 75.6877 60.5385 75.2814 60.9447C74.8752 61.351 74.5529 61.8333 74.333 62.3641C74.1132 62.8949 74 63.4638 74 64.0383V64.0383Z" stroke="#1A1A1A" stroke-width="2.5" stroke-linecap="round" stroke-linejoin="round"/>
<path d="M59.625 64.0383C59.625 65.1987 60.0859 66.3115 60.9064 67.1319C61.7269 67.9524 62.8397 68.4133 64 68.4133C65.1603 68.4133 66.2731 67.9524 67.0936 67.1319C67.9141 66.3115 68.375 65.1987 68.375 64.0383C68.375 62.878 67.9141 61.7652 67.0936 60.9447C66.2731 60.1243 65.1603 59.6633 64 59.6633C62.8397 59.6633 61.7269 60.1243 60.9064 60.9447C60.0859 61.7652 59.625 62.878 59.625 64.0383V64.0383Z" stroke="#1A1A1A" stroke-width="2.5" stroke-linecap="round" stroke-linejoin="round"/>
<path d="M6.84825 80.9619C-3.15175 50.1163 14.0483 16.8673 44.8483 6.85247C75.6483 -3.16232 108.848 14.0631 118.848 44.9086C128.848 75.7542 112.048 109.404 80.8483 119.018C49.6483 128.632 16.8483 111.807 6.84825 80.9619Z" stroke="#1A1A1A" stroke-width="4" stroke-linecap="round" stroke-linejoin="round"/>
</svg>
