<svg width="294" height="328" viewBox="0 0 294 328" fill="none" xmlns="http://www.w3.org/2000/svg">
<path d="M55.1805 219.573C55.4454 225.312 56.0634 230.609 57.476 235.112C97.4706 245.088 118.483 247.207 118.483 247.207L124.752 246.148C125.105 273.605 125.723 300.622 126.871 302.122C130.844 306.713 189.555 335.76 209.773 325.607C229.991 315.454 221.074 290.204 237.761 269.544C254.359 248.796 268.926 265.218 276.784 230.167C284.642 195.205 285.083 187.966 288.791 157.33C292.499 126.694 291.881 125.193 291.352 124.045C290.734 122.897 263.982 102.414 239.615 104.18C228.314 107.535 180.108 115.569 177.195 116.276C175.606 116.629 125.899 124.222 124.928 127.841C124.752 128.459 124.399 182.227 124.222 194.676C124.222 194.94 124.31 197.324 124.222 197.589L119.278 198.56C119.278 198.56 120.426 176.223 119.631 170.926C102.062 165.717 65.1571 163.598 55.7102 162.009C55.3571 172.692 54.3859 202.268 55.1805 219.573Z" fill="#F7F3F0"/>
<path d="M67.9823 162.804L122.898 150.267C122.986 150.267 122.986 150.267 123.074 150.267C125.635 150.531 180.55 157.065 181.168 157.771C181.963 158.654 181.433 182.933 181.433 182.933C181.433 182.933 181.08 183.022 180.55 183.198C174.546 184.787 139.231 194.234 128.813 196.618C126.694 197.059 121.22 198.207 119.278 198.56C118.925 198.649 118.572 198.295 118.66 197.942L118.572 172.78C118.572 172.515 118.395 172.25 118.13 172.162L68.0706 163.951C67.3643 163.863 67.3643 162.98 67.9823 162.804Z" fill="#FDD595"/>
<path d="M240.851 104.092L128.283 129.166L209.597 142.321L293.117 123.162" stroke="#1A1A1A" stroke-width="1.5" stroke-miterlimit="10" stroke-linecap="round"/>
<path d="M126.694 129.784L126.87 150.178" stroke="#1A1A1A" stroke-width="1.5" stroke-miterlimit="10" stroke-linecap="round"/>
<path d="M197.06 152.739L199.178 307.508" stroke="#1A1A1A" stroke-width="1.5" stroke-miterlimit="10" stroke-linecap="round"/>
<path d="M209.332 303.712L209.596 142.409" stroke="#1A1A1A" stroke-width="1.5" stroke-miterlimit="10" stroke-linecap="round"/>
<path d="M151.415 235.377L197.942 247.031L197.678 222.575L151.415 235.377Z" fill="#1A1A1A"/>
<path d="M138.083 152.474L137.907 143.204L197.236 152.209L197.148 179.137L184.611 182.139L184.346 159.802L138.083 152.474Z" fill="#1A1A1A"/>
<path d="M156.8 247.913L156.712 254.623C156.712 255.153 157.065 255.594 157.507 255.771L175.164 260.45C175.87 260.627 176.489 260.097 176.489 259.391L176.577 252.24C176.577 251.71 176.224 251.268 175.694 251.18L158.036 246.942C157.507 246.766 156.888 247.207 156.8 247.913Z" fill="#1A1A1A"/>
<path d="M74.6039 178.607L74.8687 184.258C74.8687 184.964 75.3985 185.67 76.1048 185.758L92.9678 189.29C93.939 189.467 94.9102 188.76 94.8219 187.701L94.557 181.609C94.557 180.903 93.939 180.196 93.2327 180.108L76.3696 177.018C75.3102 176.753 74.5156 177.548 74.6039 178.607Z" fill="#1A1A1A"/>
<path d="M127.577 241.822L128.46 301.593" stroke="#1A1A1A" stroke-width="1.5" stroke-miterlimit="10" stroke-linecap="round"/>
<path d="M168.807 129.519C169.778 129.872 176.842 133.404 185.141 134.022C188.496 134.286 192.645 134.551 195.029 134.286C198.472 133.845 201.915 131.285 204.476 130.667C211.009 129.077 251.445 116.187 255.506 114.333C256.478 113.892 259.126 113.009 258.95 111.596C258.861 110.449 254.182 110.89 253.387 110.89C251.18 110.978 222.31 114.51 219.75 114.51C218.16 114.51 170.308 121.22 166.07 123.868C161.744 126.605 168.278 129.342 168.807 129.519Z" fill="#1A1A1A"/>
<path d="M117.688 174.722L120.425 243.587L118.571 243.852L117.688 174.722Z" fill="#1A1A1A"/>
<path d="M127.312 241.998V248.178L161.656 232.728L127.312 241.998Z" fill="#1A1A1A"/>
<path d="M162.892 124.133C168.19 133.139 192.027 127.312 192.027 127.312C192.027 127.312 192.645 133.05 195.206 133.845C195.647 134.021 205.359 135.169 207.831 131.02C208.891 129.254 204.653 124.486 201.474 123.78C202.799 123.25 201.386 112.567 201.386 112.567L207.919 128.636C214.011 130.667 217.454 129.519 218.072 127.841C218.779 125.722 216.218 122.279 214.188 120.337C213.482 119.542 224.429 114.951 226.901 113.009C231.051 109.742 234.847 104.798 237.584 100.384C238.026 99.7657 243.5 78.8413 242.97 72.4846C241.557 55.1801 232.11 40.9656 232.11 40.9656C232.11 40.9656 229.638 42.7314 229.991 43.526C232.64 51.4719 237.584 67.6287 236.701 76.0161C235.907 83.2557 237.054 87.5819 230.786 95.881C224.518 104.18 217.013 108.153 214.982 109.919C213.128 111.508 222.663 88.9062 222.752 72.6611C222.84 52.4431 218.779 45.1152 218.514 44.144C218.249 43.1728 225.312 35.4035 222.752 24.4557C220.103 13.5963 211.451 0.706193 209.773 0.617905C207.919 0.529616 206.507 5.29716 202.887 13.0665C193.263 13.5963 183.728 23.2197 183.728 23.2197L175.341 19.7764C175.341 19.7764 181.698 49.2648 184.964 50.9422C178.078 75.3098 170.573 74.0738 165.011 92.4377C159.537 110.713 157.595 115.128 162.892 124.133Z" fill="white"/>
<path d="M236.613 48.5585C235.819 48.9116 233.523 50.4125 232.993 51.0305C232.817 51.2071 234.936 61.3603 234.936 61.3603C234.936 61.3603 237.408 59.0648 239.792 59.3296C242.97 59.5945 236.966 48.3819 236.613 48.5585Z" fill="#FABFA1"/>
<path d="M242.617 72.3964C241.116 72.0432 237.231 71.9549 237.319 73.6324C237.319 76.8108 236.437 85.9045 236.437 85.9045C236.437 85.9045 238.732 85.1099 241.822 85.7279C242.793 79.9892 244.118 72.7495 242.617 72.3964Z" fill="#FABFA1"/>
<path d="M238.026 99.4125C236.79 98.2647 230.963 96.1458 230.61 96.9404C228.844 100.119 220.898 106.652 220.898 106.652C220.898 106.652 222.575 112.567 225.047 114.863C231.934 110.272 239.174 100.56 238.026 99.4125Z" fill="#FABFA1"/>
<path d="M206.507 43.2611C203.064 43.4376 200.15 40.8773 199.973 37.434C199.797 33.9908 202.357 31.0773 205.8 30.9007C209.244 30.7241 212.157 33.2845 212.334 36.7277C212.51 40.0827 209.95 43.0845 206.507 43.2611Z" fill="#FABFA1"/>
<path d="M202.092 107.976C201.915 107.8 203.24 119.719 208.184 128.106C205.447 126.958 202.622 121.22 202.357 121.308C202.268 121.131 202.092 107.976 202.092 107.976Z" fill="#1A1A1A"/>
<path d="M181.609 27.0161L173.663 19.1584L186.465 23.3963L181.609 27.0161Z" fill="#1A1A1A"/>
<path d="M208.713 4.32595C208.713 4.32595 219.573 19.953 221.162 27.5458C221.162 27.5458 222.398 23.3079 209.596 2.91333L208.713 4.32595Z" fill="#1A1A1A"/>
<path d="M200.591 56.1512C200.591 56.1512 214.188 55.2683 211.892 44.5854" stroke="#1A1A1A" stroke-width="1.5" stroke-miterlimit="10" stroke-linecap="round"/>
<path d="M211.097 50.8539C225.224 46.7927 223.899 31.0773 219.661 20.4827C217.101 14.2143 212.245 6.70977 210.303 3.70797C209.95 3.08996 209.067 3.17823 208.714 3.88453L203.946 14.6557C194.676 14.126 181.962 26.6629 181.962 26.6629L173.575 19.7764C173.487 19.6881 173.31 19.7764 173.31 19.953C173.928 22.4251 177.018 34.6972 179.049 39.4647C180.197 43.1728 189.467 64.0972 200.238 56.1512L198.031 52.4431C198.031 52.4431 200.591 48.9998 199.797 48.9116C199.002 48.6467 195.117 50.589 194.676 51.4719C194.323 52.3548 198.119 52.4431 198.119 52.4431" stroke="#1A1A1A" stroke-width="1.5" stroke-miterlimit="10" stroke-linecap="round"/>
<path d="M188.849 45.4682C188.142 45.8214 187.348 45.4682 186.818 44.6736C186.465 43.879 186.553 42.9079 187.259 42.643C187.966 42.2898 188.76 42.643 189.29 43.4376C189.731 44.1439 189.555 45.1151 188.849 45.4682Z" fill="#1A1A1A"/>
<path d="M206.33 38.8468C205.535 39.1117 204.652 38.5819 204.211 37.6108C203.858 36.6396 204.299 35.5801 205.094 35.3153C205.888 35.0504 206.771 35.5801 207.213 36.5513C207.478 37.5225 207.125 38.4936 206.33 38.8468Z" fill="#1A1A1A"/>
<path d="M214.453 33.5495C214.453 33.5495 220.015 28.2522 226.813 25.8684" stroke="#1A1A1A" stroke-width="1.5" stroke-miterlimit="10" stroke-linecap="round"/>
<path d="M216.13 37.5224C216.13 37.5224 221.869 34.4323 229.108 32.6665" stroke="#1A1A1A" stroke-width="1.5" stroke-miterlimit="10" stroke-linecap="round"/>
<path d="M184.788 47.6755C184.788 47.6755 179.579 48.3818 174.281 52.09" stroke="#1A1A1A" stroke-width="1.5" stroke-miterlimit="10" stroke-linecap="round"/>
<path d="M186.112 50.5007C186.112 50.5007 179.755 53.4142 176.842 56.5043" stroke="#1A1A1A" stroke-width="1.5" stroke-miterlimit="10" stroke-linecap="round"/>
<path d="M186.112 52.708C186.112 52.708 173.222 73.3675 166.335 92.1729C159.007 112.303 157.771 123.868 168.189 128.371C177.46 132.432 191.144 127.665 191.144 127.665" stroke="#1A1A1A" stroke-width="1.5" stroke-miterlimit="10" stroke-linecap="round"/>
<path d="M183.022 80.0774C183.022 80.0774 189.026 125.458 194.235 133.492C194.235 133.492 199.09 134.198 199.708 133.757C200.326 133.315 201.651 132.432 199.62 128.989" stroke="#1A1A1A" stroke-width="1.5" stroke-miterlimit="10" stroke-linecap="round"/>
<path d="M200.503 133.668C200.503 133.668 207.743 135.081 203.416 128.106" stroke="#1A1A1A" stroke-width="1.5" stroke-miterlimit="10" stroke-linecap="round"/>
<path d="M205.094 132.609C205.094 132.609 208.537 132.079 207.742 129.96C207.036 127.753 206.771 127.047 202.004 124.045L201.827 111.42L201.297 79.1946" stroke="#1A1A1A" stroke-width="1.5" stroke-miterlimit="10" stroke-linecap="round"/>
<path d="M174.634 105.946C174.634 105.946 181.079 98.5297 185.405 99.4126" stroke="#1A1A1A" stroke-width="1.5" stroke-miterlimit="10" stroke-linecap="round"/>
<path d="M202.18 108.948C202.18 108.948 211.274 101.002 212.775 74.2502" stroke="#1A1A1A" stroke-width="1.5" stroke-miterlimit="10" stroke-linecap="round"/>
<path d="M202.092 121.043L207.654 128.459C214.982 131.903 218.161 127.93 218.161 127.93C218.514 121.661 213.217 119.807 213.217 119.807C211.451 113.627 216.218 99.0594 216.218 99.0594C224.871 68.7765 217.808 47.2341 217.808 47.2341" stroke="#1A1A1A" stroke-width="1.5" stroke-miterlimit="10" stroke-linecap="round"/>
<path d="M214.541 129.431C214.541 129.431 215.512 127.753 213.481 124.31" stroke="#1A1A1A" stroke-width="1.5" stroke-miterlimit="10" stroke-linecap="round"/>
<path d="M213.746 109.919C213.746 109.919 234.847 102.767 235.818 79.7241C236.613 60.5655 232.11 48.7349 230.521 45.2917C230.168 44.4971 229.55 42.9962 229.815 42.025C230.256 40.6124 231.845 39.6412 233.788 41.7601C236.878 44.9385 250.297 76.1926 239.879 97.0286C229.461 117.865 213.305 119.719 213.305 119.719" stroke="#1A1A1A" stroke-width="1.5" stroke-miterlimit="10" stroke-linecap="round"/>
<path d="M197.766 52.0899L199.355 49.0881L194.853 51.5602L197.766 52.0899Z" fill="#1A1A1A"/>
<path d="M74.8689 126.605C74.6041 126.075 73.8977 121.308 73.1914 117.423C73.6329 116.894 73.986 116.364 74.3392 115.746C81.2257 101.973 81.4022 89.0827 78.2239 84.9332C74.9572 80.607 78.3122 73.9854 77.4293 70.189C73.5446 53.4142 71.1608 51.207 64.804 47.8521C55.3572 43.0845 40.1716 54.8268 36.6401 58.6232C32.4905 63.1259 31.0779 66.6575 30.8131 72.6611C30.6365 74.8683 30.9013 81.0485 30.5482 81.5782C30.1067 82.1079 22.1608 80.5187 19.6887 82.9025C17.1284 85.2863 20.4833 92.3494 23.75 97.2935C27.0167 102.238 31.9608 102.061 32.932 102.679C33.9031 103.297 35.3158 108.418 40.5248 112.303C41.2311 113.362 42.2022 114.598 42.4671 115.481C44.0563 119.807 46.0869 125.722 44.0563 130.843C42.6437 134.463 33.9031 144.793 31.4311 147.53C31.0779 147.883 44.8509 156.447 56.4167 157.594C69.395 158.83 81.5788 154.504 85.1104 144.086C87.4058 137.465 76.0167 128.989 74.8689 126.605Z" fill="#FABFA1"/>
<path d="M58.0055 204.034L57.6523 164.216C57.6523 163.068 58.6235 162.186 59.7713 162.45L115.216 172.427C116.452 172.604 117.424 173.84 117.512 175.076L118.395 242.44C118.395 244.029 116.982 245.265 115.393 244.912L58.8884 232.463" stroke="#1A1A1A" stroke-width="1.5" stroke-miterlimit="10" stroke-linecap="round"/>
<path d="M17.4813 165.629C15.9804 168.542 7.2399 175.252 23.3967 245.706C28.6057 268.573 51.9138 239.526 54.8273 236.436C57.7408 233.346 54.6507 218.425 49.0885 210.744C51.5606 208.448 54.8273 206.683 56.4165 205.358C56.5931 203.681 55.5336 162.803 56.5931 161.303C57.2111 160.066 67.0994 162.274 68.7768 161.921C72.3084 161.479 74.1624 161.038 77.6057 160.773C78.4886 153.621 82.1967 157.153 83.521 159.184C83.7859 159.713 92.5264 157.065 95.175 156.623C103.209 154.946 112.126 152.121 116.629 151.503C117.071 151.414 123.604 143.292 126.341 136.67C126.606 133.933 126.253 131.638 126.253 129.077C128.725 128.283 130.225 128.371 134.463 127.488C143.38 122.721 154.858 115.657 157.595 115.039C162.274 110.802 155.564 97.2052 151.856 96.1458C149.119 96.4989 110.007 112.126 110.007 112.126C110.007 112.126 74.4273 126.252 74.4273 126.605C74.4273 127.047 79.8129 131.284 81.0489 133.227C85.7282 140.908 83.521 149.913 74.7804 153.003C63.1264 157.153 32.4021 146.558 32.4021 146.558C32.4021 146.558 24.8093 155.299 17.4813 165.629Z" fill="#70B394"/>
<path d="M48.2937 210.744C47.5874 210.214 81.0487 189.82 81.0487 189.29C81.137 188.231 77.2523 176.488 77.4289 175.429C77.6055 174.281 79.4595 173.575 79.6361 172.515C79.8127 171.809 79.1947 159.449 79.5478 159.007C79.901 158.389 81.3136 159.272 81.8433 159.537C83.4325 160.067 84.2271 164.128 84.1388 165.541C84.1388 165.982 88.2 162.804 89.9658 162.627C90.937 162.539 92.4379 163.422 91.9082 164.04C93.4091 162.362 94.9982 162.892 95.7928 162.98C96.6757 162.98 97.2938 163.863 98.0883 163.951C98.4415 163.951 102.326 163.068 103.474 163.863C104.887 164.746 104.533 165.982 105.416 166.423C107.27 167.483 108.506 168.101 109.566 170.573C109.742 171.014 106.123 170.308 105.946 170.838C105.151 171.809 98.8829 179.932 98.8829 180.373C98.9712 182.227 99.8541 186.995 99.7658 188.937C99.6775 191.232 98 192.468 96.8523 194.323C95.3514 196.795 51.0307 243.676 54.8271 236.877C58.4469 229.726 49.8829 211.804 48.2937 210.744Z" fill="#FABFA1"/>
<path d="M151.768 96.1459C151.768 96.1459 159.714 93.2324 165.452 89.7892C165.805 89.5243 159.802 105.416 159.625 112.391C159.537 114.333 160.067 113.274 158.124 114.598C158.566 101.355 151.768 96.1459 151.768 96.1459Z" fill="#FABFA1"/>
<path d="M50.5896 299.121C118.395 287.025 119.896 246.942 118.925 246.942C118.13 246.942 104.799 243.94 90.9373 240.674C75.7517 237.142 59.8598 233.523 58.9769 233.699C58.3589 233.787 48.3823 244.647 43.1733 249.414C44.7625 254.977 50.6778 279.168 50.5896 299.121Z" fill="#70B394"/>
<path d="M50.7661 119.454C65.1571 126.076 72.1319 121.043 72.1319 121.043C72.1319 121.043 72.485 119.807 71.5139 117.6C71.6021 117.512 67.3643 124.045 50.7661 119.454Z" fill="#1A1A1A"/>
<path d="M38.7588 180.726C38.7588 180.726 51.1191 208.625 50.766 208.625C50.4128 208.625 48.4705 208.978 44.939 211.539C44.321 198.737 38.7588 180.726 38.7588 180.726Z" fill="#1A1A1A"/>
<path d="M96.8525 194.411L60.7426 231.139L44.4976 247.56C44.4976 247.56 63.8327 234.847 66.4813 234.229C67.0111 234.14 73.0147 234.758 73.0147 234.758L96.8525 194.411Z" fill="#1A1A1A"/>
<path d="M0.618216 32.3134C0.794793 33.3728 1.14795 34.4323 1.76596 35.2269C1.5011 35.6683 1.5011 36.1981 1.41281 36.8161C1.32452 37.4341 1.5011 38.0521 1.67768 38.5819C1.76596 38.7584 1.85425 38.935 1.94254 39.1116C1.76596 39.9062 1.85425 40.7008 2.29569 41.5837C2.38398 41.9368 2.64885 42.2017 2.91371 42.4665C3.002 42.5548 3.002 42.5548 3.09029 42.6431C3.09029 42.8197 2.91371 42.9963 2.91371 43.1728C2.91371 43.526 2.91371 43.9674 3.09029 44.3206C3.44344 45.3801 4.06146 46.2629 4.94434 46.881C4.94434 46.881 4.94434 46.881 5.03263 46.881C5.12092 47.2341 5.29749 47.6755 5.56236 48.0287C5.82722 48.4701 6.26866 48.9116 6.71011 49.0882C7.06326 49.2647 7.41641 49.4413 7.76957 49.4413C8.65245 50.4125 9.8002 51.0305 11.2128 50.9422C11.2128 50.9422 11.2128 50.9422 11.3011 51.0305C11.9191 51.4719 12.5371 51.5602 13.3317 51.5602C13.6849 51.5602 13.9497 51.3837 14.3029 51.2071C14.4795 51.2954 14.6561 51.2954 14.9209 51.3837C14.4795 52.6197 4.85605 70.1008 14.7443 87.4936C15.3624 88.553 14.3029 89.9656 16.5984 90.4954C15.6272 93.4089 17.5696 92.6143 17.6579 93.4089C15.9804 96.9404 19.5119 98.6179 20.1299 98.2647C19.7768 99.589 21.8957 101.708 23.3083 100.649C23.4849 102.326 27.193 102.238 26.2218 99.5008C20.1299 94.3801 21.1894 90.4954 21.5425 89.0827C21.8957 87.7584 24.8092 86.5224 27.811 88.6413C30.7245 90.7602 32.6669 92.7909 33.638 92.8792C38.4056 93.6738 32.0488 86.4341 35.2272 82.9026C37.8759 80.3422 33.5497 77.0756 33.9912 73.0143C34.2561 68.953 37.5227 69.6593 39.7299 66.0395C41.9371 62.4197 39.9065 60.5656 43.9678 57.4755C46.4398 55.6215 46.3516 57.1224 51.0308 55.2683C55.7101 53.4143 54.9155 50.6773 58.0939 50.1476C60.8308 49.6179 62.6849 53.0611 66.7461 49.5296C69.2182 47.2341 71.602 53.4143 73.6326 52.6197C74.3389 48.9999 69.2182 46.1746 67.5407 44.4972C60.2128 38.317 49.7065 36.8161 46.2633 36.4629C47.7642 35.8449 48.7353 34.4323 49.0885 32.9314C49.7948 31.9602 50.5011 30.8125 50.8543 29.753C51.1191 29.0467 51.1191 28.3404 51.1191 27.6341C50.9425 26.0449 50.0597 24.9854 49.0002 24.1909C49.1768 23.6611 49.3534 23.1314 49.2651 22.6017C49.1768 21.8071 48.8236 21.1008 48.3822 20.4828C48.1173 20.0413 47.7642 19.7765 47.2344 19.5999C46.7047 19.2467 46.0867 19.1584 45.4687 19.0701C45.2038 18.4521 44.6741 17.9224 44.2326 17.5692C43.7029 17.1278 42.9966 16.9512 42.2903 16.8629C42.0254 16.5098 41.6723 16.1566 41.2308 15.9801C40.966 15.8035 40.7011 15.7152 40.4362 15.6269C39.5534 13.1548 37.1696 11.7422 34.3443 12.5368C33.9912 12.0954 33.638 11.7422 33.1083 11.5656C32.7552 11.3008 32.402 11.2125 31.9606 11.1242C31.6957 10.8593 31.4308 10.5945 31.0777 10.5062C30.9011 10.3296 30.8128 10.2413 30.7245 10.0647C30.0182 9.535 29.047 9.09355 28.1642 9.09355C27.2813 9.00526 26.4867 9.18185 25.7804 9.35843C23.838 9.18185 21.8957 9.79987 20.7479 11.4773C18.8939 10.5945 16.5984 10.771 14.9209 12.0071C14.038 12.7134 13.42 13.5963 12.9786 14.5674C11.4777 15.362 10.5065 16.9512 10.4182 18.717C10.0651 18.8053 9.8002 18.717 9.44704 18.9818C8.12272 19.6882 7.41641 20.7476 7.15155 21.8954C3.97317 22.9548 1.23623 26.4864 1.58939 29.6647C1.5011 29.8413 1.32452 30.0179 1.32452 30.1945C0.529927 30.5476 0.529928 31.5188 0.618216 32.3134Z" fill="#1A1A1A"/>
<path d="M71.5139 50.2358C71.5139 50.2358 80.6959 65.9512 78.4887 77.2521C76.2815 88.6413 80.6076 86.0809 79.195 94.5566C77.7824 103.032 75.1337 112.479 70.013 118.924C68.6887 120.425 65.422 121.396 61.0959 121.308C56.858 121.131 52.6202 120.337 44.3211 115.569C37.4346 111.596 36.3752 110.448 31.431 102.679C31.431 102.679 25.5157 101.266 22.249 97.3818" stroke="#1A1A1A" stroke-width="1.5" stroke-miterlimit="10" stroke-linecap="round"/>
<path d="M45.9985 80.254C45.9985 80.254 48.294 75.4865 56.3283 75.1333" stroke="#1A1A1A" stroke-width="1.5" stroke-miterlimit="10" stroke-linecap="round"/>
<path d="M75.6633 74.1619C75.6633 74.1619 71.9552 72.5728 68.1588 74.6917C68.1588 74.6917 65.3336 82.9908 71.4255 96.234C70.5426 98.7944 65.6868 101.266 61.6255 99.2358" stroke="#1A1A1A" stroke-width="1.5" stroke-miterlimit="10" stroke-linecap="round"/>
<path d="M56.0635 104.445C59.5067 106.475 63.8328 107.888 70.8076 104.975" stroke="#1A1A1A" stroke-width="1.5" stroke-miterlimit="10" stroke-linecap="round"/>
<path d="M61.2725 108.771C61.2725 108.771 64.0094 110.36 67.3644 108.683" stroke="#1A1A1A" stroke-width="1.5" stroke-miterlimit="10" stroke-linecap="round"/>
<path d="M52.8851 88.8179C52.0022 88.9062 51.1193 87.935 51.1193 86.6107C51.031 85.2864 51.7373 84.2269 52.5319 84.1386C53.4148 84.0503 54.2977 85.0215 54.2977 86.3458C54.5625 87.5819 53.8562 88.6413 52.8851 88.8179Z" fill="#1A1A1A"/>
<path d="M73.4562 85.8161C72.6616 85.8161 71.9553 84.8449 72.0436 83.6972C71.9553 82.4612 72.6616 81.5783 73.4562 81.49C74.2508 81.49 74.9571 82.4612 74.8688 83.6089C74.7806 84.845 74.1625 85.8161 73.4562 85.8161Z" fill="#1A1A1A"/>
<path d="M34.1679 112.567C31.6958 112.744 29.3121 110.448 28.9589 107.447C28.5175 104.445 30.2832 101.884 32.7553 101.796C35.2274 101.62 37.6112 103.915 37.9643 107.005C38.3175 109.83 36.64 112.391 34.1679 112.567Z" stroke="#1A1A1A" stroke-width="1.5" stroke-miterlimit="10" stroke-linecap="round"/>
<path d="M77.3408 103.209C79.1949 104.268 82.0201 103.121 82.5498 100.648C83.521 97.3818 81.4021 94.7331 79.2832 94.4683C79.1949 94.4683 78.312 100.207 77.3408 103.209Z" stroke="#1A1A1A" stroke-width="1.5" stroke-miterlimit="10" stroke-linecap="round"/>
<path d="M39.1121 112.302C39.1121 112.302 44.4094 125.104 42.2022 129.872C39.9067 134.728 29.4004 147.353 29.4004 147.353C29.4004 147.353 64.186 162.274 76.2815 150.708C88.4653 139.142 78.8418 130.313 73.1914 124.663" stroke="#1A1A1A" stroke-width="1.5" stroke-miterlimit="10" stroke-linecap="round"/>
<path d="M71.6021 117.07C72.5732 120.072 73.8093 133.227 73.8093 133.227" stroke="#1A1A1A" stroke-width="1.5" stroke-miterlimit="10" stroke-linecap="round"/>
<path d="M28.9586 98.3529C29.0469 99.0592 26.7513 98.0881 25.7802 97.2935C24.6324 96.234 24.191 94.9097 24.1027 94.0268C23.7496 92.4376 25.6036 91.643 26.5748 92.261C27.5459 92.8791 27.5459 94.4682 27.5459 94.4682C27.5459 94.4682 25.7802 93.762 26.3982 95.5277C27.1928 96.7638 27.6342 96.4106 27.9874 96.5872C28.5171 96.7637 28.9586 97.8232 28.9586 98.3529Z" fill="#1A1A1A"/>
<path d="M30.1065 146.293C30.1065 146.293 17.3929 161.214 15.0092 164.128C10.3299 169.513 10.683 182.138 12.4488 196.794C14.038 210.302 20.0416 243.411 21.6308 248.355C21.7191 248.708 21.8074 249.061 21.9839 249.326C23.0434 252.769 28.2524 262.304 39.3767 251.621C52.9731 238.555 98.265 192.203 98.265 192.203C98.265 192.203 99.4128 189.202 97.3821 179.578L104.533 170.308L109.566 171.102C109.566 171.102 110.537 168.454 106.564 167.041C105.063 166.511 103.562 166.247 102.856 166.07C102.061 165.893 101.179 166.158 100.561 166.688L94.6452 172.162" stroke="#1A1A1A" stroke-width="1.5" stroke-miterlimit="10" stroke-linecap="round"/>
<path d="M26.0454 223.634C26.0454 223.634 73.1031 195.294 81.4022 190.614L77.3409 177.636C77.3409 177.636 76.5463 174.987 77.4292 173.486L87.3175 163.951C87.3175 163.951 89.9661 162.009 91.9968 163.863" stroke="#1A1A1A" stroke-width="1.5" stroke-miterlimit="10" stroke-linecap="round"/>
<path d="M45.8218 211.892C49.7948 213.304 54.7389 227.96 53.9443 237.142" stroke="#1A1A1A" stroke-width="1.5" stroke-miterlimit="10" stroke-linecap="round"/>
<path d="M14.5679 164.922C14.5679 164.922 30.1066 162.98 37.876 180.903C45.6454 198.737 44.939 211.627 44.939 211.627" stroke="#1A1A1A" stroke-width="1.5" stroke-miterlimit="10" stroke-linecap="round"/>
<path d="M78.9297 171.632L79.018 159.713C79.018 158.742 80.0774 158.036 80.9603 158.477C81.8432 158.831 82.7261 159.713 83.0793 161.568L84.3153 166.865" stroke="#1A1A1A" stroke-width="1.5" stroke-miterlimit="10" stroke-linecap="round"/>
<path d="M97.7352 163.51C95.1748 161.479 92.9676 163.157 92.9676 163.157L84.7568 171.014" stroke="#1A1A1A" stroke-width="1.5" stroke-miterlimit="10" stroke-linecap="round"/>
<path d="M89.8779 171.014C89.8779 171.014 95.7932 164.922 97.9122 163.686C98.6185 163.333 101.709 163.598 103.474 163.775C104.357 163.863 105.064 164.746 104.799 165.629C104.71 165.805 104.71 166.07 104.622 166.247" stroke="#1A1A1A" stroke-width="1.5" stroke-miterlimit="10" stroke-linecap="round"/>
<path d="M40.7012 250.827C40.7012 250.827 46.6165 269.456 48.3823 299.739" stroke="#1A1A1A" stroke-width="1.5" stroke-miterlimit="10" stroke-linecap="round"/>
<path d="M74.7803 126.076C74.7803 126.076 95.7929 120.955 123.162 109.124C141.791 101.002 167.66 88.4648 167.66 88.4648" stroke="#1A1A1A" stroke-width="1.5" stroke-miterlimit="10" stroke-linecap="round"/>
<path d="M85.1982 123.162C85.1982 123.162 104.092 133.933 109.566 154.328" stroke="#1A1A1A" stroke-width="1.5" stroke-miterlimit="10" stroke-linecap="round"/>
<path d="M115.834 153.004L126.429 136.759" stroke="#1A1A1A" stroke-width="1.5" stroke-miterlimit="10" stroke-linecap="round"/>
<path d="M134.993 127.665C134.993 127.665 150.797 118.483 160.42 113.715" stroke="#1A1A1A" stroke-width="1.5" stroke-miterlimit="10" stroke-linecap="round"/>
<path d="M151.768 96.1458C151.768 96.1458 158.301 99.9421 158.389 114.598" stroke="#1A1A1A" stroke-width="1.5" stroke-miterlimit="10" stroke-linecap="round"/>
<path d="M137.73 239.261L138.083 304.595" stroke="#1A1A1A" stroke-width="1.5" stroke-miterlimit="10" stroke-linecap="round"/>
<path d="M118.13 205.447L197.148 185.67" stroke="#1A1A1A" stroke-width="1.5" stroke-miterlimit="10" stroke-linecap="round"/>
<path d="M118.13 212.421L197.06 192.468" stroke="#1A1A1A" stroke-width="1.5" stroke-miterlimit="10" stroke-linecap="round"/>
<path d="M117.953 244.117L197.589 222.575" stroke="#1A1A1A" stroke-width="1.5" stroke-miterlimit="10" stroke-linecap="round"/>
<path d="M117.688 199.531L197.148 179.049" stroke="#1A1A1A" stroke-width="1.5" stroke-miterlimit="10" stroke-linecap="round"/>
<path d="M83.7856 160.773L127.842 150.178L184.611 159.625V182.05" stroke="#1A1A1A" stroke-width="1.5" stroke-miterlimit="10" stroke-linecap="round"/>
<path d="M122.721 151.414L178.872 160.861L179.137 183.286" stroke="#1A1A1A" stroke-width="1.5" stroke-miterlimit="10" stroke-linecap="round"/>
<path d="M115.569 153.092L172.515 162.627L172.692 185.052" stroke="#1A1A1A" stroke-width="1.5" stroke-miterlimit="10" stroke-linecap="round"/>
<path d="M109.213 154.769L166.071 164.304L166.335 186.73" stroke="#1A1A1A" stroke-width="1.5" stroke-miterlimit="10" stroke-linecap="round"/>
<path d="M102.503 156.27L159.714 165.982L159.979 188.407" stroke="#1A1A1A" stroke-width="1.5" stroke-miterlimit="10" stroke-linecap="round"/>
<path d="M96.2344 157.771L153.269 167.659L153.533 190.085" stroke="#1A1A1A" stroke-width="1.5" stroke-miterlimit="10" stroke-linecap="round"/>
<path d="M89.2598 159.448L146.912 169.248L147.177 191.674" stroke="#1A1A1A" stroke-width="1.5" stroke-miterlimit="10" stroke-linecap="round"/>
<path d="M104.534 164.304L140.467 170.926L140.732 193.351" stroke="#1A1A1A" stroke-width="1.5" stroke-miterlimit="10" stroke-linecap="round"/>
<path d="M107.889 167.748L134.199 172.957L134.463 195.205" stroke="#1A1A1A" stroke-width="1.5" stroke-miterlimit="10" stroke-linecap="round"/>
<path d="M110.096 170.926L127.665 174.281L127.93 196.706" stroke="#1A1A1A" stroke-width="1.5" stroke-miterlimit="10" stroke-linecap="round"/>
<path d="M117.424 175.34L121.309 176.047L121.573 198.472" stroke="#1A1A1A" stroke-width="1.5" stroke-miterlimit="10" stroke-linecap="round"/>
<path d="M117.777 177.106L184.611 159.625" stroke="#1A1A1A" stroke-width="1.5" stroke-miterlimit="10" stroke-linecap="round"/>
<path d="M78.7535 162.009L69.3066 163.863" stroke="#1A1A1A" stroke-width="1.5" stroke-miterlimit="10" stroke-linecap="round"/>
<path d="M93.8506 162.627L83.874 161.038" stroke="#1A1A1A" stroke-width="1.5" stroke-miterlimit="10" stroke-linecap="round"/>
</svg>
