<svg width="294" height="382" viewBox="0 0 294 382" fill="none" xmlns="http://www.w3.org/2000/svg">
<g clip-path="url(#clip0_3242_54581)">
<path d="M97.095 204.021C95.0351 197.748 94.4733 191.006 95.4096 184.546C97.3759 171.812 97.8441 152.243 81.5523 153.554C57.4893 155.427 64.5116 164.509 37.8268 182.673C11.1421 200.838 2.34085 179.958 2.34085 179.958C2.34085 179.958 -2.7152 221.624 31.7409 211.137C66.1969 200.744 67.5077 226.867 67.5077 226.867C67.5077 226.867 106.645 233.795 97.095 204.021Z" fill="#1A1A1A"/>
<path d="M98.7803 147.843C98.7803 152.712 103.275 155.708 103.087 160.577C102.994 164.884 99.5293 178.834 98.8739 181.55C98.2185 184.078 97.4694 188.947 95.1287 192.598C93.2561 195.501 86.9828 195.501 86.0465 196.25C85.2038 196.905 85.5783 202.055 82.7694 202.336C71.6274 204.115 58.3318 198.403 51.4032 194.658C54.5866 183.141 47.7516 168.067 47.7516 168.067C47.7516 168.067 46.2535 168.254 43.4446 165.352C40.6357 162.449 38.763 159.453 39.0439 157.019C39.6994 151.494 43.3509 152.524 45.1299 152.337C49.2497 152.056 52.1522 163.76 55.1484 159.453C56.7401 157.112 57.4892 156.738 57.6764 151.026C57.8637 145.315 54.1185 138.48 56.5529 132.487C59.3618 125.84 64.1369 119.098 74.0618 116.383C84.0803 113.668 91.758 117.975 94.9414 122.563C96.7204 125.091 97.2822 130.053 97.4694 134.828C99.8102 145.689 98.7803 144.753 98.7803 147.843Z" fill="#FABFA1"/>
<path d="M85.6717 197.748C85.6717 197.748 68.3501 191.943 60.2979 186.606C60.2979 186.606 83.0501 195.22 85.859 194.845L85.6717 197.748Z" fill="#1A1A1A"/>
<path d="M73.7809 155.895C72.751 155.895 72.002 154.959 72.002 153.741C72.002 152.524 72.8446 151.588 73.7809 151.588C74.8109 151.588 75.5599 152.524 75.5599 153.741C75.5599 154.959 74.8109 155.895 73.7809 155.895Z" fill="#1A1A1A"/>
<path d="M94.6607 154.116C93.818 154.116 93.1626 153.18 93.1626 151.962C93.1626 150.745 93.818 149.809 94.6607 149.809C95.5034 149.809 96.1588 150.745 96.1588 151.962C96.1588 153.18 95.5034 154.116 94.6607 154.116Z" fill="#1A1A1A"/>
<path d="M52.9014 169.94C52.9014 169.94 50.5606 180.988 58.7065 185.108C65.167 188.385 80.0543 194.564 85.8594 194.845C88.481 194.939 90.4473 194.19 91.8517 193.254C93.4434 192.224 94.1925 190.726 94.9415 188.853C97.4695 182.486 101.964 160.951 101.121 157.393C100.091 153.086 96.9078 151.494 98.4059 146.813C99.8103 142.412 98.2186 136.888 98.2186 136.888C95.1288 121.813 89.9791 117.6 89.9791 117.6C89.9791 117.6 81.3651 112.45 70.5976 115.353C59.8301 118.255 54.1186 132.862 53.9313 138.48C53.7441 144.097 58.332 154.21 55.4294 158.797C52.5269 163.479 46.909 153.367 46.909 153.367C46.909 153.367 42.8829 149.06 39.1377 151.682C35.3925 154.303 36.7969 158.797 39.2313 162.824C42.0403 167.505 46.909 168.254 46.909 168.254C46.909 168.254 52.4332 179.49 48.7817 193.909C48.7817 193.909 77.2454 210.669 85.4848 201.025C85.4848 201.025 85.3912 198.684 85.4848 195.313" stroke="#1A1A1A" stroke-width="1.5" stroke-linecap="round" stroke-linejoin="round"/>
<path d="M82.2075 166.943C82.2075 166.943 85.5782 169.097 90.6343 168.067C95.0349 167.131 93.1623 162.73 93.1623 162.73C88.5744 151.12 88.5744 140.914 88.5744 140.914C88.5744 140.914 93.2559 136.139 98.6865 140.259" stroke="#1A1A1A" stroke-width="1.5" stroke-linecap="round" stroke-linejoin="round"/>
<path d="M65.2607 145.596C65.2607 145.596 68.7251 139.978 76.4028 141.382" stroke="#1A1A1A" stroke-width="1.5" stroke-linecap="round" stroke-linejoin="round"/>
<path d="M74.1553 172.842C74.1553 172.842 78.8368 175.183 80.6158 175.557C82.4884 176.025 87.6381 175.838 87.6381 175.838C87.6381 175.838 90.1661 175.557 91.5706 175.089" stroke="#1A1A1A" stroke-width="1.5" stroke-linecap="round" stroke-linejoin="round"/>
<path d="M79.3989 178.647C79.3989 178.647 80.7097 179.677 83.2378 179.771C85.7658 179.864 87.8257 180.333 90.1664 179.303" stroke="#1A1A1A" stroke-width="1.5" stroke-linecap="round" stroke-linejoin="round"/>
<path d="M243.346 292.97C244.844 295.592 253.177 306.359 251.866 356.077" stroke="#1A1A1A" stroke-width="1.5" stroke-linecap="round" stroke-linejoin="round"/>
<path d="M91.2898 204.676C91.2898 204.676 116.195 201.025 121.252 201.493C135.015 206.455 146.345 206.736 152.056 205.519C158.236 204.302 194.096 200.182 195.032 182.954C196.25 159.921 191.849 131.083 191.849 127.057C191.849 125.278 190.725 120.596 188.853 121.064C186.231 121.72 176.868 125.278 176.213 126.588C173.404 132.3 175.464 138.105 167.88 144.378C160.295 150.652 147.749 146.813 146.532 147.562C142.787 149.902 133.049 149.715 131.083 145.689C129.117 141.663 130.989 132.487 127.806 128.836C124.529 124.997 122.469 114.697 122.469 113.855C122.469 112.731 130.24 104.492 132.674 101.402C136.794 96.2521 156.55 65.2604 157.58 62.077C159.078 57.4891 149.528 47.4706 148.124 44.5681C147.281 42.8827 139.697 29.9617 141.569 28.0891C144.004 25.5611 159.453 33.9878 161.794 35.0177C168.254 37.8267 179.209 37.9203 179.022 35.8604C178.741 32.5833 177.149 0.468067 181.269 0.93622C186.231 1.498 203.553 28.1827 206.736 31.2725C212.354 36.7967 224.901 42.9763 231.642 47.0961C233.14 48.0324 278.738 76.9642 288.476 148.217C288.944 151.962 296.902 212.354 291.285 254.02C290.536 273.308 290.536 276.397 287.259 352.051C278.832 367.968 253.832 356.077 253.832 356.077C253.832 356.077 253.552 318.812 253.364 316.19C252.99 308.232 244.282 289.787 242.784 291.753C238.29 297.839 238.571 300.18 238.29 307.483C238.009 315.254 235.481 364.597 231.548 366.189C230.612 366.564 224.713 371.994 216.193 373.305C205.894 374.897 195.313 371.339 192.317 369.747C195.313 334.448 188.946 344.748 185.108 339.036C183.422 336.508 140.165 351.957 93.6305 350.646C90.0726 336.321 91.2898 204.676 91.2898 204.676Z" fill="white"/>
<path d="M186.699 194.752C186.699 194.752 184.733 199.527 182.86 201.68" stroke="#1A1A1A" stroke-width="1.5" stroke-linecap="round" stroke-linejoin="round"/>
<path d="M148.404 145.034C148.404 145.034 167.318 154.865 174.621 124.997C179.396 119.941 181.643 118.63 181.643 118.63C181.643 118.63 208.421 118.911 211.979 87.5447" stroke="#1A1A1A" stroke-width="1.5" stroke-linecap="round" stroke-linejoin="round"/>
<path d="M190.632 117.413C191.194 119.566 194.096 178.835 186.699 194.939C186.699 194.939 144.94 214.882 122.188 203.74C106.177 203.647 92.3198 206.83 92.3198 206.83" stroke="#1A1A1A" stroke-width="1.5" stroke-linecap="round" stroke-linejoin="round"/>
<path d="M134.922 126.401C134.922 126.401 133.798 123.686 132.581 117.132C131.458 110.578 134.922 116.57 135.484 118.911C136.139 121.158 134.922 126.401 134.922 126.401Z" fill="#1A1A1A" stroke="#1A1A1A" stroke-width="1.5" stroke-linecap="round" stroke-linejoin="round"/>
<path d="M182.392 37.8267C172.187 41.8528 164.041 48.2197 159.827 54.3056C159.827 54.3056 147.749 75.6534 128.461 101.87C126.495 104.492 121.626 108.705 120.222 111.139C118.911 113.106 119.473 116.851 120.315 118.723C125.09 135.39 128.087 136.888 128.929 147.562C128.929 147.562 136.045 151.869 145.689 147.562L161.138 129.397C161.138 129.397 164.977 125.278 159.547 114.323" stroke="#1A1A1A" stroke-width="1.5" stroke-linecap="round" stroke-linejoin="round"/>
<path d="M179.396 38.5758C170.782 27.2465 172.655 17.4153 175.277 10.7675C177.056 6.17964 180.613 3.46436 180.613 3.46436L201.587 30.8045C201.587 30.8045 204.677 32.3962 206.456 32.8644C212.261 34.1752 226.305 39.6057 240.912 51.3096C272.746 76.7771 284.731 139.135 287.165 155.989C297.184 225.182 288.289 235.668 287.259 283.888C286.229 332.108 284.075 350.927 284.075 350.927" stroke="#1A1A1A" stroke-width="1.5" stroke-linecap="round" stroke-linejoin="round"/>
<path d="M172.093 43.3509L139.79 26.0293C139.79 26.0293 139.229 31.0853 140.352 36.0478C141.569 41.2911 143.442 47.8452 158.516 55.4293" stroke="#1A1A1A" stroke-width="1.5" stroke-linecap="round" stroke-linejoin="round"/>
<path d="M230.519 366.189C230.519 366.189 233.608 299.899 238.103 281.828" stroke="#1A1A1A" stroke-width="1.5" stroke-linecap="round" stroke-linejoin="round"/>
<path d="M234.638 306.547C234.638 306.547 240.443 286.697 259.357 283.139" stroke="#1A1A1A" stroke-width="1.5" stroke-linecap="round" stroke-linejoin="round"/>
<path d="M177.805 325.46C177.805 325.46 185.389 332.108 188.291 343.156C191.194 354.298 189.696 362.631 189.321 369.841" stroke="#1A1A1A" stroke-width="1.5" stroke-linecap="round" stroke-linejoin="round"/>
<path d="M183.329 38.8567C183.984 31.3662 168.535 17.8834 160.202 30.8981C149.809 47.1898 138.948 53.9312 128.368 55.0548C117.787 56.1783 144.566 65.5414 158.704 60.8599C172.936 56.272 182.673 46.3471 183.329 38.8567Z" fill="#1A1A1A"/>
<path d="M200.463 29.1191C200.463 29.1191 199.246 31.179 200.557 32.7707C201.025 33.3325 211.98 39.3249 217.785 43.0701C227.522 49.2497 273.12 93.2561 282.202 134.922C283.045 134.547 288.195 167.88 290.161 176.587C296.902 126.214 276.866 72.5637 257.671 55.0548C225.556 25.7484 215.912 31.8344 200.463 29.1191Z" fill="#1A1A1A"/>
<path d="M182.767 65.0732C183.984 66.1031 184.265 66.9458 184.92 67.8821C184.92 67.9758 185.108 68.0694 185.201 68.2566C185.482 68.6312 185.857 69.0057 186.044 69.0057C186.512 69.0057 186.231 65.4477 183.89 63.4815C181.924 61.7961 179.115 62.4515 179.864 63.6687C180.332 64.3242 181.55 64.0433 182.767 65.0732Z" fill="#1A1A1A"/>
<path d="M190.632 117.038C190.632 117.038 190.257 129.304 190.632 132.113C190.632 132.113 208.983 111.046 210.575 96.3459C210.575 96.2523 206.455 110.297 190.632 117.038Z" fill="#1A1A1A"/>
<path d="M179.958 3.37061C179.958 3.37061 196.343 31.7407 201.493 33.2388L204.208 32.9579L179.958 3.37061Z" fill="#1A1A1A"/>
<path d="M156.457 36.2352C156.457 36.2352 140.258 28.0893 139.603 26.4976L156.737 35.0179L156.457 36.2352Z" fill="#1A1A1A"/>
<path d="M177.43 80.7095C175.932 80.7095 174.715 79.1177 174.715 77.0578C174.715 75.0916 175.932 73.4062 177.43 73.4062C178.928 73.4062 180.145 74.998 180.145 77.0578C180.052 79.1177 178.928 80.7095 177.43 80.7095Z" fill="#1A1A1A"/>
<path d="M92.4135 204.957C89.3237 203.459 87.4511 199.527 86.1403 199.246C85.4848 199.058 87.5447 202.242 73.8746 201.212C65.0734 200.557 56.4594 196.718 48.7817 193.066C41.2912 194.19 47.0027 201.961 43.632 207.298C39.1377 214.32 16.3855 232.859 8.42689 241.099C3.93262 245.874 3.93262 262.915 4.86893 280.049C5.61797 293.906 5.80523 305.797 7.86511 314.13C10.7677 323.025 14.981 327.239 19.6626 328.924C22.9396 330.048 29.1192 330.235 32.4899 330.329C33.5199 336.415 37.0778 358.137 35.018 375.927C38.0141 383.604 82.6759 380.795 104.117 374.148C120.784 368.904 126.589 363.287 131.27 352.051C124.248 326.864 122.937 313.101 122.188 306.921C118.63 306.078 107.675 309.074 107.956 307.67C109.08 302.895 107.863 297.932 103.743 291.191C105.054 290.536 118.911 290.255 118.443 285.854C117.694 278.457 113.855 267.502 113.855 267.502L124.435 277.615C124.435 277.615 131.177 275.929 131.551 274.431C132.3 271.529 141.008 234.732 137.263 232.204C136.326 231.548 122.937 220.313 115.915 214.133C114.604 212.916 113.387 211.98 112.638 211.23C108.143 206.736 95.5969 206.455 92.4135 204.957Z" fill="#68A3D6"/>
<path d="M137.169 228.084C138.667 226.586 138.667 217.878 138.854 217.223C139.229 215.257 141.101 212.541 143.348 211.98C145.596 211.512 147.749 214.976 148.03 215.163C148.498 215.444 148.498 213.384 150.652 212.167C152.711 210.95 155.989 213.291 157.767 216.848C157.767 217.129 160.764 218.347 161.138 219.189C161.513 220.126 160.483 220.594 159.827 220.875C158.329 221.717 155.146 222.466 154.21 224.245C153.554 225.556 156.082 226.399 154.959 226.867C154.116 227.241 142.131 233.608 140.259 234.826C138.76 235.668 136.982 237.447 136.045 238.945C135.858 239.226 132.862 236.511 132.206 233.327C131.457 230.05 135.577 229.582 137.169 228.084Z" fill="#FABFA1"/>
<path d="M36.6095 266.566C54.3057 267.409 92.9751 261.604 111.795 252.147C112.45 247.747 112.825 241.567 113.106 236.043C94.005 247.185 51.1222 251.117 34.0815 250.368C33.1452 250.368 36.6095 263.476 36.6095 266.566Z" fill="#F7F3F0"/>
<path d="M37.1714 294.094C54.8676 294.936 96.3459 289.225 115.072 279.768C114.698 278.457 111.982 271.716 112.263 266.192C93.1625 277.334 54.9612 281.547 37.8268 280.798C38.2013 289.131 37.1714 291.004 37.1714 294.094Z" fill="#F7F3F0"/>
<path d="M32.49 353.081C38.9505 354.766 65.7289 357.294 80.6162 355.141C103.837 351.864 116.664 344.56 125.559 335.104C125.184 333.793 123.593 325.553 122.656 320.31C116.196 325.834 106.271 332.388 88.013 335.946C69.006 339.692 40.2614 337.257 30.8047 336.883C32.3964 345.309 32.49 349.991 32.49 353.081Z" fill="#F7F3F0"/>
<path d="M89.6982 319.187C89.6982 319.187 111.514 314.318 120.128 307.576C120.128 307.483 119.754 306.827 119.754 306.827L108.799 308.232L107.488 310.292L89.6982 319.187Z" fill="#F7F3F0"/>
<path d="M3.83901 295.779C3.83901 295.779 33.0517 296.153 37.546 288.288L36.7033 273.869C21.1607 280.985 10.674 279.862 3.08997 279.487C1.9664 279.394 3.83901 295.779 3.83901 295.779Z" fill="#F7F3F0"/>
<path d="M1.49818 265.162C1.49818 265.162 18.9135 268.064 35.0179 260.293L32.1154 248.027C20.7861 253.739 5.43066 250.462 2.05996 248.776C0.0937211 252.709 1.49818 265.162 1.49818 265.162Z" fill="#F7F3F0"/>
<path d="M70.8784 292.783C81.365 298.213 79.5861 309.168 74.1555 321.527C82.7695 319.842 84.2676 320.31 86.6084 318.531C88.481 310.947 93.0689 297.932 81.7396 291.285C79.0243 291.753 75.1854 292.221 70.8784 292.783Z" fill="#F7F3F0"/>
<path d="M48.7815 294.843C54.1184 300.742 54.1184 314.692 44.3809 327.988C51.8713 326.677 61.0471 324.805 61.0471 324.805C74.249 302.521 59.4554 294.094 59.4554 294.094C59.4554 294.094 57.9573 294.187 48.7815 294.843Z" fill="#F7F3F0"/>
<path d="M35.4861 294.843C28.8383 304.487 22.9396 308.232 6.17969 315.722C8.42682 320.497 14.981 330.61 18.5389 330.703C22.0033 330.89 23.4077 330.422 26.2166 329.954C31.4599 325.46 37.9204 308.138 37.1714 294.843C35.0179 294.749 36.4224 294.843 35.4861 294.843Z" fill="#F7F3F0"/>
<path d="M111.14 258.327C116.289 265.443 114.978 262.915 117.413 266.005C135.39 254.113 136.233 238.29 136.233 238.29L123.686 226.492C123.686 226.492 126.776 235.387 112.919 248.964C112.731 251.211 112.076 256.361 111.14 258.327Z" fill="#F7F3F0"/>
<path d="M125.371 276.585C125.371 276.585 131.551 273.214 132.768 269.656C132.393 272.278 132.113 274.525 132.113 274.525L126.588 277.334L125.371 276.585Z" fill="#F7F3F0"/>
<path d="M30.2427 329.954L30.4299 333.138C30.4299 333.138 52.0586 330.703 67.9758 326.49C83.893 322.37 95.5032 316.378 95.5032 316.378C95.5032 316.378 83.4248 319.655 67.414 322.932C51.4968 326.303 30.2427 329.954 30.2427 329.954Z" fill="#1A1A1A"/>
<path d="M37.6392 161.419C37.6392 161.419 28.2762 148.779 25.8418 141.101C26.4036 133.611 33.145 119.098 47.0959 110.297C61.0469 101.495 84.08 95.5968 94.0048 107.769C97.2819 111.795 93.6303 121.72 93.3494 121.72C92.8813 121.72 87.2634 114.885 67.601 123.124C62.3577 125.371 54.3055 134.173 53.6501 139.416C54.8673 147.094 58.7998 157.58 58.7998 157.58C58.7998 157.58 55.5227 166.288 48.8749 157.861C48.1259 156.831 46.066 153.648 43.4443 152.899C37.5456 151.12 37.452 156.457 37.2647 156.925C37.1711 157.206 37.6392 161.419 37.6392 161.419Z" fill="#1A1A1A"/>
<path d="M45.598 160.389C46.4407 159.266 44.7553 157.112 43.3509 156.925C39.4184 156.176 40.6356 163.947 45.0362 163.854C45.2235 163.854 45.4107 163.011 45.0362 162.543C44.5681 161.981 43.1636 162.075 43.3509 160.576C43.6318 158.61 45.1298 161.045 45.598 160.389Z" fill="#1A1A1A"/>
<path d="M140.821 225.462L131.738 212.26C131.458 211.98 131.551 211.511 131.832 211.418C132.113 211.23 132.394 211.324 132.675 211.605L141.851 224.807C142.131 225.088 142.038 225.556 141.757 225.65C141.382 225.837 141.102 225.743 140.821 225.462Z" fill="#1A1A1A"/>
<path d="M174.902 213.197C174.34 212.541 172.936 213.571 172.468 213.852C172.28 213.946 172.093 214.039 171.812 214.133C171.531 214.32 171.157 214.414 170.876 214.601H170.782C170.97 214.039 171.438 213.009 170.782 212.635C170.22 212.354 169.471 212.822 169.003 213.103C168.629 213.29 168.161 213.478 167.786 213.759C166.943 214.133 166.101 214.601 165.258 214.976C164.603 215.257 164.041 215.631 163.385 215.912C162.262 216.474 161.138 217.036 160.108 217.504C159.64 217.691 158.985 217.972 158.61 218.44C158.236 218.908 158.142 219.938 158.049 220.406C157.955 220.594 157.955 220.874 157.861 221.062C157.861 221.062 157.768 221.062 157.768 221.155C157.674 221.249 157.58 221.249 157.58 221.343C157.393 221.436 157.112 221.53 156.925 221.623C156.27 221.998 155.427 222.279 154.771 222.747C154.116 223.028 153.554 223.402 152.805 223.683C152.524 223.871 152.15 223.964 151.963 224.245C151.682 224.807 151.682 225.65 151.588 226.211C151.588 226.399 151.494 226.586 151.494 226.867C151.494 226.96 151.494 227.054 151.494 227.148C151.401 227.616 151.307 227.99 151.307 228.459C151.307 228.646 151.307 228.646 151.213 229.114C151.213 229.114 151.12 229.114 151.12 229.208C151.026 229.395 151.12 229.488 151.213 229.769C151.401 230.05 151.775 230.237 152.15 229.957C152.899 229.582 152.524 229.676 152.899 229.582C153.18 229.488 153.461 229.301 153.648 229.208C153.929 229.02 154.303 228.833 154.678 228.646C155.333 228.271 156.082 227.897 156.738 227.522C159.078 226.305 161.419 225.088 163.76 223.871C164.884 223.215 166.007 222.747 167.037 222.092C167.786 221.623 168.629 221.249 169.471 220.781C170.127 220.406 170.876 220.125 171.531 219.657C171.906 219.47 172.28 219.189 172.655 219.002C173.217 218.721 173.778 218.534 174.153 218.066C174.34 217.878 174.34 217.316 174.34 216.942C174.34 216.755 174.434 216.474 174.434 216.287C174.434 216.099 174.527 215.912 174.527 215.725C174.527 215.537 174.621 215.35 174.621 215.163C174.902 214.788 175.277 213.571 174.902 213.197Z" fill="#1A1A1A"/>
<path d="M111.14 256.641L112.45 266.566L124.435 277.708L126.495 276.585L111.14 256.641Z" fill="#1A1A1A"/>
<path d="M13.6699 232.204C13.6699 232.204 30.4298 236.979 32.4897 246.529C36.5158 265.911 39.2311 284.824 37.1712 294.094" stroke="#1A1A1A" stroke-width="1.5" stroke-linecap="round" stroke-linejoin="round"/>
<path d="M30.2427 329.954C30.2427 329.954 33.707 360.665 32.8643 376.769" stroke="#1A1A1A" stroke-width="1.5" stroke-linecap="round" stroke-linejoin="round"/>
<path d="M45.0361 206.736C45.0361 206.736 45.7852 205.332 46.0661 200.557C46.2533 197.654 47.0024 194.283 48.6877 193.909" stroke="#1A1A1A" stroke-width="1.5" stroke-linecap="round" stroke-linejoin="round"/>
<path d="M51.1225 195.688C51.1225 195.688 49.2499 196.999 49.5308 199.527C49.7181 202.055 49.5308 206.362 48.0327 208.328" stroke="#1A1A1A" stroke-width="1.5" stroke-linecap="round" stroke-linejoin="round"/>
<path d="M54.2122 197.092C54.2122 197.092 52.3396 198.497 52.5269 201.306C52.7141 204.115 52.7141 209.171 51.7778 210.201" stroke="#1A1A1A" stroke-width="1.5" stroke-linecap="round" stroke-linejoin="round"/>
<path d="M57.5828 198.684C57.5828 198.684 55.8038 198.965 55.8975 202.055C55.9911 205.145 56.1784 209.826 55.1484 211.886" stroke="#1A1A1A" stroke-width="1.5" stroke-linecap="round" stroke-linejoin="round"/>
<path d="M60.7663 199.808C60.7663 199.808 59.1746 201.587 59.4555 204.302C59.7364 207.017 59.7364 211.886 58.6128 213.29" stroke="#1A1A1A" stroke-width="1.5" stroke-linecap="round" stroke-linejoin="round"/>
<path d="M64.2308 201.025C64.2308 201.025 62.1709 202.336 62.8263 205.894C63.4817 209.452 62.9199 211.792 62.5454 214.601" stroke="#1A1A1A" stroke-width="1.5" stroke-linecap="round" stroke-linejoin="round"/>
<path d="M67.7887 201.774C67.7887 201.774 65.9161 203.834 66.5715 206.736C67.227 209.639 67.3206 213.946 66.3843 215.631" stroke="#1A1A1A" stroke-width="1.5" stroke-linecap="round" stroke-linejoin="round"/>
<path d="M71.3467 202.71C71.3467 202.71 70.2231 205.519 70.6913 208.328C71.1594 211.137 71.4403 214.04 70.7849 216.661" stroke="#1A1A1A" stroke-width="1.5" stroke-linecap="round" stroke-linejoin="round"/>
<path d="M75.4663 204.021C75.4663 204.021 74.0618 206.268 74.9045 209.732C75.4663 211.792 75.6535 214.882 75.3727 216.848" stroke="#1A1A1A" stroke-width="1.5" stroke-linecap="round" stroke-linejoin="round"/>
<path d="M79.1177 203.74C79.1177 203.74 78.6496 206.924 79.1177 209.077C79.5859 211.231 80.5222 213.01 79.9604 216.474" stroke="#1A1A1A" stroke-width="1.5" stroke-linecap="round" stroke-linejoin="round"/>
<path d="M82.582 203.459C82.582 203.459 83.612 204.302 83.5183 208.328C83.4247 212.354 85.0164 214.32 83.8929 215.444" stroke="#1A1A1A" stroke-width="1.5" stroke-linecap="round" stroke-linejoin="round"/>
<path d="M84.8291 201.493C84.8291 201.493 86.7953 201.587 86.6081 205.051C86.5144 207.111 86.4208 208.328 86.7017 209.545C86.9826 210.762 88.5743 212.167 88.5743 212.167" stroke="#1A1A1A" stroke-width="1.5" stroke-linecap="round" stroke-linejoin="round"/>
<path d="M85.6719 199.62C85.6719 199.62 87.3572 198.497 88.1999 200.463C89.3235 203.178 88.6681 206.268 89.1362 207.298C89.6044 208.328 90.6343 208.703 90.6343 208.703" stroke="#1A1A1A" stroke-width="1.5" stroke-linecap="round" stroke-linejoin="round"/>
<path d="M92.3198 206.83L107.301 211.137L137.263 239.132" stroke="#1A1A1A" stroke-width="1.5" stroke-linecap="round" stroke-linejoin="round"/>
<path d="M107.301 211.137C107.301 211.137 117.694 231.642 111.795 254.769C110.859 258.327 110.859 262.072 111.608 265.63C115.54 285.386 127.806 346.339 129.585 354.017" stroke="#1A1A1A" stroke-width="1.5" stroke-linecap="round" stroke-linejoin="round"/>
<path d="M90.6343 289.88C90.6343 289.88 101.964 293.813 97.0012 315.535" stroke="#1A1A1A" stroke-width="1.5" stroke-linecap="round" stroke-linejoin="round"/>
<path d="M98.312 300.273L108.143 298.588" stroke="#1A1A1A" stroke-width="1.5" stroke-linecap="round" stroke-linejoin="round"/>
<path d="M97.1885 296.434L107.301 295.03" stroke="#1A1A1A" stroke-width="1.5" stroke-linecap="round" stroke-linejoin="round"/>
<path d="M94.7539 292.689L104.96 291.94" stroke="#1A1A1A" stroke-width="1.5" stroke-linecap="round" stroke-linejoin="round"/>
<path d="M98.4995 304.487L109.267 302.333" stroke="#1A1A1A" stroke-width="1.5" stroke-linecap="round" stroke-linejoin="round"/>
<path d="M98.125 308.887L108.799 306.172" stroke="#1A1A1A" stroke-width="1.5" stroke-linecap="round" stroke-linejoin="round"/>
<path d="M97.563 312.913L107.769 310.011" stroke="#1A1A1A" stroke-width="1.5" stroke-linecap="round" stroke-linejoin="round"/>
<path d="M122.375 317.127L134.173 242.035C134.36 240.912 135.015 239.975 136.045 239.414L187.542 211.605C187.917 211.324 188.385 211.792 188.291 212.167L171.157 293.813C170.97 294.562 170.501 295.217 169.846 295.498L124.154 318.438C123.218 318.906 122.188 318.157 122.375 317.127Z" fill="#FDD595"/>
<path d="M131.176 270.686L136.513 239.413C136.513 239.413 136.7 237.353 140.914 235.387C145.127 233.421 189.883 208.983 189.883 208.983C189.883 208.983 191.1 208.141 190.07 212.635C189.04 217.129 173.591 289.787 173.591 289.787C173.591 289.787 173.684 290.629 171.25 291.846C168.722 293.064 124.997 314.692 124.997 314.692L128.086 297.932" stroke="#1A1A1A" stroke-width="1.5" stroke-linecap="round" stroke-linejoin="round"/>
<path d="M105.615 291.191C105.802 293.064 110.578 297.371 108.799 308.887C113.48 309.075 120.315 307.576 124.435 307.857C128.18 308.045 135.39 307.015 141.944 303.738C145.034 301.959 150.558 297.277 150.652 295.03C153.554 293.251 155.052 293.251 156.457 291.004C157.112 289.88 157.861 286.51 157.674 285.105C158.142 284.075 158.61 283.42 158.142 282.203C157.299 279.862 147.936 285.011 146.064 284.731C145.689 284.731 153.835 279.394 154.022 279.3C154.959 278.738 157.674 276.117 156.363 274.618C155.333 273.401 150.371 276.585 150.371 276.585C150.371 276.585 137.262 282.764 130.989 281.734C131.27 279.581 132.394 276.959 132.019 274.618C130.521 275.18 126.963 276.585 126.401 276.959C121.907 279.862 120.877 284.731 116.289 287.446C113.387 289.225 105.615 291.191 105.615 291.191Z" fill="#FABFA1"/>
<path d="M105.147 291.285C105.147 291.285 116.195 290.348 118.443 286.697C120.69 283.045 124.248 278.551 125.371 277.895C126.495 277.24 131.738 274.244 131.738 274.244L130.895 280.985" stroke="#1A1A1A" stroke-width="1.5" stroke-linecap="round" stroke-linejoin="round"/>
<path d="M127.993 281.828C127.993 281.828 135.952 281.453 137.356 280.892C138.761 280.423 156.363 274.244 156.363 274.244C156.363 274.244 158.329 275.929 155.708 278.176C152.993 280.33 137.075 288.85 137.075 288.85" stroke="#1A1A1A" stroke-width="1.5" stroke-linecap="round" stroke-linejoin="round"/>
<path d="M144.846 284.543L157.674 281.36C157.674 281.36 160.108 283.607 155.427 290.067C154.959 290.723 154.303 291.285 153.648 291.659C151.12 293.157 144.285 297.183 140.446 298.307" stroke="#1A1A1A" stroke-width="1.5" stroke-linecap="round" stroke-linejoin="round"/>
<path d="M138.761 294.094C138.761 294.094 152.524 289.131 157.768 284.824" stroke="#1A1A1A" stroke-width="1.5" stroke-linecap="round" stroke-linejoin="round"/>
<path d="M109.36 307.577C109.36 307.577 117.506 306.359 120.69 306.172C123.873 305.985 134.266 305.704 140.633 302.333C147 298.963 149.715 293.906 149.715 293.906" stroke="#1A1A1A" stroke-width="1.5" stroke-linecap="round" stroke-linejoin="round"/>
<path d="M41.8528 205.238C41.8528 205.238 67.0394 221.53 81.8331 216.287C91.1025 213.01 92.0388 206.081 92.0388 206.081C92.0388 206.081 91.477 204.677 90.6343 200.557C89.7917 196.437 86.421 197.186 85.6719 197.748C84.9229 198.31 86.7955 202.055 81.5522 203.553C76.3089 205.051 54.2121 198.403 48.6879 193.909L49.156 191.1C49.156 191.1 44.1936 191.475 43.9127 194.284C43.5382 196.999 43.5382 203.74 41.8528 205.238ZM41.8528 205.238C40.1675 206.736 9.17576 236.136 9.17576 236.136C9.17576 236.136 0.842632 245.406 0.749002 255.705C0.655371 266.005 5.14964 312.445 5.14964 312.445C5.14964 312.445 6.64773 319.561 10.6738 324.524C14.7 329.486 16.3853 330.329 24.5312 330.61C34.0815 330.891 99.8101 318.812 108.05 310.573C110.297 308.326 110.578 293.813 102.151 289.225C102.151 289.225 89.9789 289.599 69.0993 292.408C51.4968 294.843 35.2051 293.438 30.2426 296.06" stroke="#1A1A1A" stroke-width="1.5" stroke-linecap="round" stroke-linejoin="round"/>
<path d="M136.232 238.383C136.232 238.383 132.487 237.166 133.517 232.11L139.041 228.365C139.041 228.365 142.037 227.99 143.161 229.769C144.472 231.923 143.91 232.953 143.91 232.953" stroke="#1A1A1A" stroke-width="1.5" stroke-linecap="round" stroke-linejoin="round"/>
<path d="M137.73 228.646L139.79 219.376C140.071 218.253 140.539 217.129 141.101 216.099C141.85 214.882 142.88 213.478 143.723 213.478C145.315 213.384 147.843 215.257 147.843 217.597C147.843 217.597 147.094 226.305 146.813 228.178C146.532 229.395 145.315 231.268 143.536 230.425" stroke="#1A1A1A" stroke-width="1.5" stroke-linecap="round" stroke-linejoin="round"/>
<path d="M141.85 218.721C141.85 218.721 140.82 227.148 141.85 228.646" stroke="#1A1A1A" stroke-width="1.5" stroke-linecap="round" stroke-linejoin="round"/>
<path d="M160.764 220.032C160.764 220.032 159.172 217.036 156.457 217.597C156.457 217.597 154.397 212.541 151.963 212.448C149.528 212.354 148.217 214.976 147.937 217.504" stroke="#1A1A1A" stroke-width="1.5" stroke-linecap="round" stroke-linejoin="round"/>
<path d="M146.812 228.084C146.812 228.084 148.03 230.706 150.839 229.114C154.303 227.241 153.179 222.279 154.116 220.032" stroke="#1A1A1A" stroke-width="1.5" stroke-linecap="round" stroke-linejoin="round"/>
</g>
<defs>
<clipPath id="clip0_3242_54581">
<rect width="294" height="381.076" fill="white"/>
</clipPath>
</defs>
</svg>
