<svg width="28" height="28" viewBox="0 0 28 28" fill="none" xmlns="http://www.w3.org/2000/svg">
<path d="M24.425 10.8887L13.8589 2.9165L3.28303 10.8887C3.0644 11.0905 2.93293 11.3695 2.9165 11.6665V23.8407C2.91727 24.0926 3.0177 24.334 3.19585 24.5122C3.374 24.6903 3.6154 24.7907 3.86734 24.7915H10.2082V19.6903C10.2082 18.7233 10.5923 17.796 11.276 17.1123C11.9597 16.4285 12.8871 16.0444 13.854 16.0444C14.8209 16.0444 15.7483 16.4285 16.432 17.1123C17.1157 17.796 17.4998 18.7233 17.4998 19.6903V24.7944H23.8397C24.0917 24.7937 24.3332 24.6933 24.5115 24.5151C24.6898 24.337 24.7905 24.0956 24.7915 23.8436V11.6665C24.7747 11.3696 24.6433 11.0907 24.425 10.8887Z" stroke="#807D7C" stroke-width="1.5" stroke-linecap="round" stroke-linejoin="round"/>
</svg>
