<svg width="128" height="128" viewBox="0 0 128 128" fill="none" xmlns="http://www.w3.org/2000/svg">
<path d="M78.1647 125.944C92.7251 122.593 105.449 113.723 113.409 101.819C115.968 97.9919 118.047 93.8792 120.121 89.7765C122.161 85.7415 124.223 81.6389 124.985 77.1628C125.665 73.1904 125.292 69.0777 124.875 65.0151C123.598 52.5993 121.496 39.3189 112.674 29.7301C109.347 26.1162 105.231 23.2415 100.995 20.6476C95.4368 17.2442 89.6061 14.2718 83.5805 11.7681C75.5355 8.42478 66.7133 5.891 58.3509 7.41227C54.7871 8.05887 51.4456 9.42476 48.2491 10.9761C32.1192 18.8105 19.0108 31.8028 11.4032 47.4892C6.04493 58.5416 3.40576 71.406 7.03462 83.5285C10.9434 96.5834 18.621 107.398 30.0249 115.683C41.4313 123.969 63.6043 129.295 78.1647 125.944" fill="#70B394"/>
<path d="M76.7104 20.2887C73.9104 24.2887 75.1104 27.4887 70.7104 29.4887C63.5104 32.2887 49.9104 32.6887 42.7104 37.4887C39.5104 39.8887 34.7104 33.4887 30.7104 29.4887C25.5104 24.2887 26.7104 57.4887 29.5104 66.6887C30.7104 71.0887 27.9104 86.6887 46.3104 86.6887C44.7104 89.8887 43.5104 95.0887 42.7104 101.089C41.5104 109.889 45.9104 117.889 45.9104 117.889C45.9104 117.889 72.3103 131.889 106.31 99.4887C104.71 97.4887 97.5103 90.2887 94.7104 84.6887C91.9104 79.0887 89.9103 73.4887 89.9103 73.4887C89.9103 73.4887 91.9103 67.8887 92.3103 63.4887C93.1103 59.0887 92.7104 57.0887 90.7104 48.6887C90.3104 40.2887 84.7104 28.6887 81.5104 20.2887C80.7104 19.0887 77.9104 18.6887 76.7104 20.2887Z" fill="white"/>
<path d="M30.3102 32.2888C30.3102 32.2888 15.1102 65.4888 33.9102 85.0888C35.9102 87.0888 43.1102 91.0888 48.3102 87.0888C49.1102 91.8888 60.7102 91.8888 63.5102 85.4888C73.5102 87.0888 81.9102 79.4888 85.1102 74.6888C89.5102 67.8888 93.9102 57.0888 77.9102 21.4888C77.9102 21.4888 72.7102 29.0888 67.5102 35.8888C67.5102 35.8888 54.3102 34.2888 37.9102 43.4888L30.3102 32.2888Z" stroke="#1A1A1A" stroke-width="2.5" stroke-linecap="round" stroke-linejoin="round"/>
<path d="M40.3104 89.0887C40.3104 84.2887 38.7104 105.089 39.5104 116.289" stroke="#1A1A1A" stroke-width="2.5" stroke-linecap="round" stroke-linejoin="round"/>
<path d="M84.7104 75.4888C84.7104 75.4888 95.1105 93.0888 101.51 103.889" stroke="#1A1A1A" stroke-width="2.5" stroke-linecap="round" stroke-linejoin="round"/>
<path d="M66.7104 65.4888C71.1287 65.4888 74.7104 61.907 74.7104 57.4888C74.7104 53.0705 71.1287 49.4888 66.7104 49.4888C62.2922 49.4888 58.7104 53.0705 58.7104 57.4888C58.7104 61.907 62.2922 65.4888 66.7104 65.4888Z" fill="#70B394"/>
<path d="M50.3102 72.6888C50.3102 72.6888 44.3102 69.0888 45.5102 67.4888C46.7102 65.8888 54.3102 64.2888 55.1102 65.0888C56.3102 66.2888 50.3102 72.6888 50.3102 72.6888Z" fill="#1A1A1A"/>
<path d="M63.9102 56.6888C63.9102 55.4888 64.7102 54.2888 65.9102 53.8888C67.1102 53.8888 68.3102 54.6888 68.3102 55.8888C68.3102 57.0888 67.5102 58.2888 66.3102 58.6888C65.1102 59.0888 63.9102 58.2888 63.9102 56.6888Z" fill="#1A1A1A"/>
<path fill-rule="evenodd" clip-rule="evenodd" d="M65.8453 53.4888H65.9103C66.5942 53.4888 67.2818 53.7154 67.8058 54.123C68.3342 54.534 68.7103 55.1431 68.7103 55.8888C68.7103 57.2518 67.8086 58.611 66.4367 59.0682C65.7188 59.3076 64.9775 59.1922 64.4147 58.7545C63.8516 58.3165 63.5103 57.5909 63.5103 56.6888C63.5103 55.3258 64.4119 53.9666 65.7838 53.5093L65.8453 53.4888ZM65.9753 54.2897C64.9809 54.6527 64.3103 55.6726 64.3103 56.6888C64.3103 57.3866 64.5689 57.861 64.9058 58.123C65.243 58.3853 65.7017 58.47 66.1838 58.3093C67.2119 57.9666 67.9103 56.9258 67.9103 55.8888C67.9103 55.4345 67.6863 55.0435 67.3147 54.7545C66.9546 54.4744 66.4692 54.3036 65.9753 54.2897Z" fill="#1A1A1A"/>
<path d="M35.9104 62.6888C35.9104 61.4888 36.7104 60.2888 37.9104 59.8888C39.1104 59.8888 40.3104 60.6888 40.3104 61.8888C40.3104 63.0888 39.5104 64.2888 38.3104 64.6888C37.1104 65.0888 35.9104 63.8888 35.9104 62.6888Z" fill="#1A1A1A"/>
<path fill-rule="evenodd" clip-rule="evenodd" d="M37.8453 59.4888H37.9103C38.5942 59.4888 39.2818 59.7154 39.8058 60.123C40.3342 60.534 40.7103 61.1431 40.7103 61.8888C40.7103 63.2518 39.8086 64.611 38.4367 65.0682C37.6687 65.3242 36.9233 65.0578 36.3945 64.5877C35.8695 64.1211 35.5103 63.4162 35.5103 62.6888C35.5103 61.3258 36.4119 59.9666 37.7838 59.5093L37.8453 59.4888ZM37.9753 60.2897C36.9809 60.6527 36.3103 61.6726 36.3103 62.6888C36.3103 63.1613 36.551 63.6565 36.926 63.9898C37.2972 64.3197 37.7518 64.4533 38.1838 64.3093C39.2119 63.9666 39.9103 62.9258 39.9103 61.8888C39.9103 61.4345 39.6863 61.0435 39.3147 60.7545C38.9546 60.4744 38.4692 60.3036 37.9753 60.2897Z" fill="#1A1A1A"/>
<path d="M50.7104 70.6887C50.7104 70.6887 51.1105 76.2887 53.1105 80.2887C55.5105 83.4887 59.5105 85.8887 65.5105 84.6887C71.5105 83.4887 77.1104 77.8887 74.3104 69.0887" stroke="#1A1A1A" stroke-width="2.5" stroke-linecap="round" stroke-linejoin="round"/>
<path d="M32.7104 76.6887C31.5104 84.2887 37.9104 87.8887 39.9104 88.2887C42.7104 88.6887 49.1104 89.4887 51.9104 79.4887" stroke="#1A1A1A" stroke-width="2.5" stroke-linecap="round" stroke-linejoin="round"/>
<path d="M81.9102 57.4888C81.9102 57.4888 91.5102 54.6888 95.9102 55.0888" stroke="#1A1A1A" stroke-width="2.5" stroke-linecap="round" stroke-linejoin="round"/>
<path d="M28.3102 67.0887C28.3102 67.0887 19.9102 69.8887 16.7102 72.6887" stroke="#1A1A1A" stroke-width="2.5" stroke-linecap="round" stroke-linejoin="round"/>
<path d="M83.1104 62.2887C83.1104 62.2887 91.9103 61.0887 95.9103 62.2887" stroke="#1A1A1A" stroke-width="2.5" stroke-linecap="round" stroke-linejoin="round"/>
<path d="M29.9103 71.4888C29.9103 71.4888 22.7103 75.0888 20.3103 77.8888" stroke="#1A1A1A" stroke-width="2.5" stroke-linecap="round" stroke-linejoin="round"/>
</svg>
