<svg width="34" height="34" viewBox="0 0 34 34" fill="none" xmlns="http://www.w3.org/2000/svg">
<path d="M28.8502 29.4873C28.8502 29.9349 28.6925 30.3641 28.4117 30.6806C28.1309 30.997 27.75 31.1748 27.3529 31.1748C27.3529 31.1748 19.5666 31.3436 18.3687 31.3436C17.1708 31.3436 9.38457 31.1748 9.38457 31.1748C8.98744 31.1748 8.60658 30.997 8.32577 30.6806C8.04496 30.3641 7.88721 29.9349 7.88721 29.4873C7.88721 29.4873 8.32577 20.5436 8.18668 18.8561C8.04758 17.1686 8.22471 8.56231 8.22471 8.56231C8.22471 8.11476 8.04496 6.67304 8.32577 6.35657C8.60658 6.0401 10.5159 5.86231 12.6122 5.86231C14.7085 5.86231 16.0179 5.86231 16.8938 5.86231C17.7698 5.86231 24.4031 5.86231 24.4031 5.86231C24.7939 5.86206 27.4596 5.8623 28.4117 6.8748C29.3637 7.88731 29.1496 9.6242 29.1497 10.5873C29.1497 10.5873 29.1497 16.8311 29.1497 20.2061C29.1497 23.5811 28.8502 29.4873 28.8502 29.4873Z" fill="#93D9D4"/>
<path d="M27.4621 27.9688C27.4621 28.4163 27.3046 28.8455 27.0243 29.162C26.744 29.4785 26.3639 29.6562 25.9675 29.6562H8.03175C7.63535 29.6562 7.25518 29.4785 6.97488 29.162C6.69458 28.8455 6.53711 28.4163 6.53711 27.9688V6.03125C6.53711 5.5837 6.69458 5.15448 6.97488 4.83801C7.25518 4.52154 7.63535 4.34375 8.03175 4.34375H23.023C23.4132 4.3435 23.7879 4.5155 24.0673 4.823L27.0107 8.06638C27.1536 8.22357 27.2671 8.41146 27.3446 8.61897C27.4221 8.82648 27.4621 9.04941 27.4621 9.27463V27.9688Z" stroke="#1A1A1A" stroke-width="1.5" stroke-linecap="round" stroke-linejoin="round"/>
<path d="M11.0659 12.7812H23.0231" stroke="#1A1A1A" stroke-width="1.5" stroke-linecap="round" stroke-linejoin="round"/>
<path d="M11.0659 17.8438H23.0231" stroke="#1A1A1A" stroke-width="1.5" stroke-linecap="round" stroke-linejoin="round"/>
<path d="M11.0659 22.9062H17.0445" stroke="#1A1A1A" stroke-width="1.5" stroke-linecap="round" stroke-linejoin="round"/>
</svg>
