<svg width="76" height="78" viewBox="0 0 76 78" fill="none" xmlns="http://www.w3.org/2000/svg">
<path d="M46.649 77.3746C55.6092 75.3126 63.439 69.8544 68.3375 62.5285C69.9124 60.1735 71.192 57.6426 72.4685 55.1179C73.7235 52.6348 74.9923 50.1101 75.4614 47.3555C75.8797 44.911 75.6506 42.3801 75.3937 39.8801C74.6078 32.2396 73.3144 24.067 67.8853 18.1662C65.8383 15.9422 63.3052 14.1732 60.6984 12.577C57.2779 10.4825 53.6898 8.65339 49.9818 7.11265C45.031 5.05524 39.6019 3.49598 34.4559 4.43215C32.2627 4.83006 30.2064 5.67061 28.2394 6.62528C18.3133 11.4465 10.2466 19.4417 5.56498 29.0949C2.26756 35.8963 0.643455 43.8129 2.8766 51.2729C5.28199 59.3067 10.0067 65.9617 17.0244 71.0605C24.0438 76.1593 37.6887 79.4366 46.649 77.3746" fill="#FABFA1"/>
<circle cx="38" cy="37.9999" r="35.7692" stroke="#1A1A1A" stroke-width="3"/>
<path d="M29.5053 43.675C30.5063 43.4446 31.3811 42.8349 31.9283 42.0164C32.1043 41.7533 32.2472 41.4706 32.3898 41.1885C32.5301 40.9111 32.6718 40.629 32.7242 40.3213C32.7709 40.0482 32.7453 39.7655 32.7166 39.4862C32.6288 38.6326 32.4843 37.7196 31.8778 37.0603C31.6491 36.8119 31.3661 36.6142 31.0749 36.4359C30.6928 36.2019 30.2919 35.9976 29.8777 35.8254C29.3246 35.5956 28.718 35.4214 28.1431 35.526C27.8981 35.5704 27.6684 35.6643 27.4486 35.771C26.3397 36.3096 25.4385 37.2028 24.9155 38.2813C24.5471 39.0411 24.3656 39.9255 24.6151 40.759C24.8839 41.6565 25.4117 42.4 26.1957 42.9696C26.9799 43.5392 28.5043 43.9054 29.5053 43.675Z" fill="white"/>
<path d="M38.9947 43.675C37.9937 43.4446 37.1189 42.8349 36.5717 42.0164C36.3957 41.7533 36.2528 41.4706 36.1102 41.1885C35.9699 40.9111 35.8282 40.629 35.7758 40.3213C35.7291 40.0482 35.7547 39.7655 35.7834 39.4862C35.8712 38.6326 36.0157 37.7196 36.6222 37.0603C36.8509 36.8119 37.1339 36.6142 37.4251 36.4359C37.8072 36.2019 38.2081 35.9976 38.6223 35.8254C39.1754 35.5956 39.782 35.4214 40.3569 35.526C40.6019 35.5704 40.8316 35.6643 41.0514 35.771C42.1603 36.3096 43.0615 37.2028 43.5845 38.2813C43.9529 39.0411 44.1344 39.9255 43.8849 40.759C43.6161 41.6565 43.0883 42.4 42.3043 42.9696C41.5201 43.5392 39.9957 43.9054 38.9947 43.675Z" fill="white"/>
<path d="M51.2553 35.5647C52.2563 35.7951 53.1311 36.4049 53.6783 37.2233C53.8543 37.4864 53.9972 37.7692 54.1398 38.0512C54.2801 38.3286 54.4218 38.6107 54.4742 38.9184C54.5209 39.1915 54.4953 39.4743 54.4666 39.7536C54.3788 40.6072 54.2343 41.5202 53.6278 42.1794C53.3991 42.4279 53.1161 42.6255 52.8249 42.8038C52.4428 43.0378 52.0419 43.2422 51.6277 43.4143C51.0746 43.6442 50.468 43.8184 49.8931 43.7138C49.6481 43.6693 49.4184 43.5754 49.1986 43.4688C48.0897 42.9301 47.1885 42.0369 46.6655 40.9585C46.2971 40.1986 46.1156 39.3142 46.3651 38.4808C46.6339 37.5833 47.1617 36.8398 47.9457 36.2701C48.7299 35.7005 50.2543 35.3344 51.2553 35.5647Z" fill="white"/>
<path d="M23.9375 38.0288C23.9375 38.8991 24.2832 39.7336 24.8986 40.349C25.5139 40.9644 26.3485 41.3101 27.2188 41.3101C28.089 41.3101 28.9236 40.9644 29.5389 40.349C30.1543 39.7336 30.5 38.8991 30.5 38.0288C30.5 37.1586 30.1543 36.324 29.5389 35.7086C28.9236 35.0933 28.089 34.7476 27.2188 34.7476C26.3485 34.7476 25.5139 35.0933 24.8986 35.7086C24.2832 36.324 23.9375 37.1586 23.9375 38.0288V38.0288Z" stroke="#1A1A1A" stroke-width="3" stroke-linecap="round" stroke-linejoin="round"/>
<path d="M45.5 38.0288C45.5 38.4597 45.5849 38.8864 45.7498 39.2845C45.9147 39.6826 46.1564 40.0443 46.4611 40.349C46.7657 40.6537 47.1275 40.8954 47.5256 41.0603C47.9237 41.2252 48.3504 41.3101 48.7812 41.3101C49.2121 41.3101 49.6388 41.2252 50.0369 41.0603C50.435 40.8954 50.7968 40.6537 51.1014 40.349C51.4061 40.0443 51.6478 39.6826 51.8127 39.2845C51.9776 38.8864 52.0625 38.4597 52.0625 38.0288C52.0625 37.5979 51.9776 37.1712 51.8127 36.7731C51.6478 36.375 51.4061 36.0133 51.1014 35.7086C50.7968 35.4039 50.435 35.1622 50.0369 34.9973C49.6388 34.8324 49.2121 34.7476 48.7812 34.7476C48.3504 34.7476 47.9237 34.8324 47.5256 34.9973C47.1275 35.1622 46.7657 35.4039 46.4611 35.7086C46.1564 36.0133 45.9147 36.375 45.7498 36.7731C45.5849 37.1712 45.5 37.5979 45.5 38.0288V38.0288Z" stroke="#1A1A1A" stroke-width="3" stroke-linecap="round" stroke-linejoin="round"/>
<path d="M34.7188 38.0288C34.7188 38.8991 35.0645 39.7336 35.6798 40.349C36.2952 40.9644 37.1298 41.3101 38 41.3101C38.8702 41.3101 39.7048 40.9644 40.3202 40.349C40.9355 39.7336 41.2812 38.8991 41.2812 38.0288C41.2812 37.1586 40.9355 36.324 40.3202 35.7086C39.7048 35.0933 38.8702 34.7476 38 34.7476C37.1298 34.7476 36.2952 35.0933 35.6798 35.7086C35.0645 36.324 34.7188 37.1586 34.7188 38.0288V38.0288Z" stroke="#1A1A1A" stroke-width="3" stroke-linecap="round" stroke-linejoin="round"/>
</svg>
