<svg width="16" height="16" viewBox="0 0 16 16" fill="none" xmlns="http://www.w3.org/2000/svg">
<path d="M3.97212 1.97185C5.16438 1.17521 6.56609 0.75 8 0.75C9.92282 0.75 11.7669 1.51384 13.1265 2.87348C14.4862 4.23311 15.25 6.07718 15.25 8C15.25 9.43392 14.8248 10.8356 14.0282 12.0279C13.2315 13.2201 12.0992 14.1494 10.7745 14.6981C9.4497 15.2469 7.99196 15.3904 6.5856 15.1107C5.17924 14.831 3.88741 14.1405 2.87348 13.1265C1.85955 12.1126 1.16905 10.8208 0.88931 9.41441C0.609567 8.00804 0.753142 6.55031 1.30188 5.22555C1.85061 3.90078 2.77986 2.76849 3.97212 1.97185ZM6.94309 5.58448C6.58805 5.59874 6.2505 5.74604 5.99827 5.99827C5.73259 6.26394 5.58334 6.62428 5.58334 7C5.58334 7.37572 5.73259 7.73606 5.99827 8.00174C6.24424 8.2477 6.57134 8.39388 6.91667 8.41422V10.2525C6.57134 10.2728 6.24424 10.419 5.99827 10.6649L6.5286 11.1953L5.99827 10.6649C5.73259 10.9306 5.58334 11.2909 5.58334 11.6667C5.58334 12.0424 5.73259 12.4027 5.99827 12.6684C6.26395 12.9341 6.62428 13.0833 7 13.0833H9.66667C10.0424 13.0833 10.4027 12.9341 10.6684 12.6684C10.9341 12.4027 11.0833 12.0424 11.0833 11.6667C11.0833 11.2909 10.9341 10.9306 10.6684 10.6649C10.4224 10.419 10.0953 10.2728 9.75 10.2525V7.66667C9.75 7.11413 9.53051 6.58423 9.13981 6.19353C9.04809 6.10181 8.9487 6.01953 8.84314 5.9473C9.0518 5.85985 9.24256 5.73232 9.40411 5.57077C9.64885 5.32603 9.81552 5.01421 9.88305 4.67474C9.95057 4.33528 9.91591 3.98341 9.78346 3.66364C9.65101 3.34387 9.4267 3.07055 9.13892 2.87826C8.85113 2.68597 8.51279 2.58333 8.16667 2.58333C7.70254 2.58333 7.25742 2.76771 6.92923 3.0959C6.60104 3.42409 6.41667 3.86921 6.41667 4.33333C6.41667 4.67945 6.51931 5.0178 6.7116 5.30558C6.77924 5.40681 6.85691 5.50019 6.94309 5.58448Z" fill="#807D7C" stroke="#807D7C" stroke-width="1.5"/>
</svg>
