<svg width="14" height="14" viewBox="0 0 14 14" fill="none" xmlns="http://www.w3.org/2000/svg">
<path d="M6.81815 13.8598C5.47411 13.5505 4.29964 12.7318 3.56487 11.6329C3.32863 11.2797 3.13669 10.9 2.94522 10.5213C2.75697 10.1489 2.56664 9.77015 2.49628 9.35697C2.43353 8.99029 2.46791 8.61065 2.50643 8.23565C2.62432 7.08957 2.81833 5.86369 3.63269 4.97857C3.93975 4.64497 4.31971 4.37962 4.71074 4.14018C5.22381 3.82602 5.76202 3.55165 6.31823 3.32053C7.06084 3.01192 7.8752 2.77804 8.64711 2.91846C8.97609 2.97815 9.28453 3.10423 9.57959 3.24743C11.0685 3.97061 12.2785 5.16989 12.9807 6.61787C13.4754 7.63809 13.719 8.82557 13.384 9.94458C13.0232 11.1496 12.3145 12.1479 11.2618 12.9127C10.2089 13.6775 8.16219 14.1691 6.81815 13.8598Z" fill="#FABFA1"/>
<circle cx="6.94253" cy="6.82681" r="5.36538" stroke="#1A1A1A" stroke-width="1.5"/>
</svg>

