<svg width="96" height="135" viewBox="0 0 96 135" fill="none" xmlns="http://www.w3.org/2000/svg">
<path d="M42.8001 2.5C42.5001 2.6 37.8001 11.6 35.9001 12.6C35.0001 13.2 30.9001 11.7 25.9001 12C22.9001 12.2 17.8001 14.7 17.2001 14.7C17.0001 14.7 12.3001 11.1 12.2001 11.5C11.2001 14.6 10.4001 19.5 11.5001 21.2C12.5001 22.9 10.9001 30 13.4001 36.9C15.9001 43.7 16.3001 41.7 19.3001 43.7C22.5001 45.8 24.5001 45.3 26.1001 48.3C26.8001 49.5 29.53 52.0031 29.73 53.3031C30.43 57.4031 30.23 76.703 29.73 79.203C29.03 83.703 22.43 94.303 21.73 95.703C21.03 97.003 15.93 97.403 18.23 103.203C19.63 106.703 24.13 107.003 26.13 104.303C30.63 98.3029 30.83 95.303 33.93 88.603C35.23 85.803 36.83 76.5029 38.43 73.8029C38.73 73.3029 39.63 74.0029 40.53 74.3029C42.13 75.0029 42.33 82.503 42.53 84.003C43.13 87.403 46.73 96.503 44.73 99.403C42.43 102.503 31.73 105.103 31.73 105.103C31.73 105.103 36.53 108.903 35.53 114.103C35.83 115.203 43.53 108.403 44.23 109.703C45.53 112.203 44.03 122.603 44.03 122.603C44.03 122.603 40.53 126.403 39.73 128.303C38.53 131.003 39.83 134.703 43.23 134.803C46.63 134.903 50.83 134.303 51.93 130.003C53.13 125.803 52.23 124.203 52.83 119.703C53.83 112.403 55.63 103.103 56.13 102.903C56.53 102.703 66.13 105.403 67.43 106.503C67.93 106.903 62.53 111.003 61.53 111.503C60.03 112.303 55.93 113.703 55.13 116.003C54.43 118.103 58.93 121.203 60.43 122.103C61.43 122.703 61.03 121.103 62.13 120.903C65.63 120.303 76.23 111.103 77.83 109.703C79.93 107.703 85.73 106.103 87.23 98.8029C89.83 86.103 87.43 83.003 87.73 81.503C98.03 69.203 93.03 57.4031 91.43 50.7031C89.93 44.0031 88.93 37.3031 88.03 28.9031C86.63 14.5031 92.63 3.20312 89.83 1.60312C84.83 -1.29688 79.63 12.6031 79.23 15.9031C78.93 17.9031 77.03 23.1031 78.13 31.6031C78.63 35.2031 84.63 56.9031 84.73 59.7031C84.83 63.8031 85.43 67.703 81.93 68.203C69.93 48.703 44.7001 41.7 45.4001 41C46.0001 40.3 52.2001 34.3 51.0001 22.8C49.9001 11.5 43.6001 2.3 42.8001 2.5Z" fill="white"/>
<path d="M10.2998 120.9C12.8998 125.1 20.1998 126.2 22.0998 126.5C26.3998 127.1 30.5998 126.2 33.7998 120.6C36.8998 115 33.3998 106.9 27.8998 104.5C26.8998 104 26.4998 106 25.2998 106.7C24.1998 107.3 20.2998 108.6 20.2998 108.6C20.2998 108.6 15.0998 105.8 14.3998 106.1C13.8998 106.4 12.0998 108.7 11.7998 109.6C11.5998 109.6 7.69983 116.7 10.2998 120.9Z" fill="#FABFA1"/>
<path d="M28.2999 28.1999C29.5999 30.9999 34.2999 30.3999 36.2999 28.8999C38.9999 27.0999 38.5999 22.5999 36.9999 20.3999C35.2999 18.1999 31.0999 18.1999 29.4999 20.0999C27.0999 22.7999 27.0999 25.7999 28.2999 28.1999Z" fill="#FABFA1"/>
<path d="M79.2 26.9C79.5 27.4 83.5 29.9 87.6 27.8C87.2 24 88.3 13.9 88.3 13.9C88.3 13.9 81.1 11.6 80.4 13C80.3 12.9 78.4 25.2 79.2 26.9Z" fill="#FABFA1"/>
<path d="M81.6999 48.5C81.8999 50.2 83.5999 55.0999 84.8999 56.3999C85.3999 56.7999 92.3999 54.6 92.8999 54C92.8999 54 90.4999 50.3 89.6999 46.3C88.9999 42.4 88.9999 41.1999 88.3999 40.8999C87.3999 40.2999 79.2999 40.8 80.0999 43.1C81.0999 45.3 81.5999 47.7 81.6999 48.5Z" fill="#FABFA1"/>
<path d="M85.6001 66.4997C86.0001 69.2997 83.4001 69.2997 84.3001 71.3997C85.2001 73.5997 87.5001 80.7998 88.9001 79.1998C93.2001 73.8998 95.0001 67.0998 93.9001 66.0998C89.5001 68.5998 85.2001 63.7997 85.6001 66.4997Z" fill="#FABFA1"/>
<path d="M9.69978 26.3C9.69978 26.3 8.99978 12.6 9.69978 11.2C10.4998 10 15.9998 13.2 16.6998 14.3" stroke="#1A1A1A" stroke-width="1.5" stroke-linecap="round" stroke-linejoin="round"/>
<path d="M17.7 44.3C27.4 52.1 41.5 42.6 43.5 40.4C46.2 37.4 49.6 34.5 49.1 24C48.3 14.8 45 6.69998 42.1 3.09998C40.1 4.49998 38.1 7.89997 35 11C24.6 8.79997 16.9 13.3 13.7 17.2C6.29997 25.7 10.8 35.5 11.4 37.5" stroke="#1A1A1A" stroke-width="1.5" stroke-linecap="round" stroke-linejoin="round"/>
<path d="M12.3998 34.9C12.3998 34.9 10.2998 38.5 12.8998 41.5C14.9998 44 17.8998 45.1 19.9998 42.7C22.1998 40.2 21.5998 35.1 21.5998 35.1" stroke="#1A1A1A" stroke-width="1.5" stroke-linecap="round" stroke-linejoin="round"/>
<path d="M21.5 35C21.5 35 24.9 43 30.2 42.5C34.6 42 35.9 39.8 36.5 38.2C37.5 35.5 37.4 33.9 37.3 32.1" stroke="#1A1A1A" stroke-width="1.5" stroke-linecap="round" stroke-linejoin="round"/>
<path d="M10 34.2C10 34.2 3 36.4 1 37.3" stroke="#1A1A1A" stroke-width="1.5" stroke-linecap="round" stroke-linejoin="round"/>
<path d="M10.6998 37.6C10.6998 37.6 6.8998 40 5.2998 41.4" stroke="#1A1A1A" stroke-width="1.5" stroke-linecap="round" stroke-linejoin="round"/>
<path d="M39.8999 26.3C39.8999 26.3 52.3999 25.6 55.8999 26.2" stroke="#1A1A1A" stroke-width="1.5" stroke-linecap="round" stroke-linejoin="round"/>
<path d="M42.1001 30C42.1001 30 47.6001 30.1 54.6001 31.7" stroke="#1A1A1A" stroke-width="1.5" stroke-linecap="round" stroke-linejoin="round"/>
<path d="M21.2999 34.7C21.2999 34.7 18.0999 33 18.5999 32.1C19.2999 31.6 22.4999 30.9 23.1999 31.6C22.7999 32.7 21.2999 34.7 21.2999 34.7Z" stroke="#1A1A1A" stroke-width="1.5" stroke-linecap="round" stroke-linejoin="round"/>
<path d="M31.9 24.4C31.8 23.5 32.3 22.6 32.9 22.5C33.6 22.4 34.2 23.1 34.3 24C34.4 24.9 33.9 25.8 33.3 25.9C32.7 26 32 25.3 31.9 24.4Z" fill="#1A1A1A"/>
<path d="M13.9 28.6C13.8 27.8 14.3 26.9 14.9 26.8C15.6 26.7 16.1 27.4 16.2 28.2C16.3 29 15.8 29.9 15.2 30C14.5 30.1 14 29.4 13.9 28.6Z" fill="#1A1A1A"/>
<path d="M21.3 34C21.3 34 19.1 32.9 19.3 32.2C19.6 31.5 22 31.2 22.4 31.5C22.8 31.9 21.3 34 21.3 34Z" fill="#1A1A1A"/>
<path d="M26 47.5C26 47.5 39.1 73.8001 40.3 76.7001C40.3 76.7001 39.6 87.9001 44.7 94.7001" stroke="#1A1A1A" stroke-width="1.5" stroke-linecap="round" stroke-linejoin="round"/>
<path d="M83.9999 69.5C83.9999 69.5 87.9999 66.8001 84.3999 52.2001C80.7999 37.6001 80.0999 35.2 79.8999 30.4C79.6999 25.6 80.2999 9.20005 87.0999 2.00005C89.0999 -0.0999535 93.1999 0.900046 91.3999 8.50005C89.5999 16.2 87.8999 26.0001 88.9999 32.6001C89.9999 39.2001 92.5999 47.9 93.3999 54C94.2999 60.6 96.0999 68.1 89.3999 79.5" stroke="#1A1A1A" stroke-width="1.5" stroke-linecap="round" stroke-linejoin="round"/>
<path d="M69.3001 78.2C69.3001 78.2 60.9001 86.1999 65.0001 101.1C67.2001 109 71.9001 109.1 71.9001 109.1" stroke="#1A1A1A" stroke-width="1.5" stroke-linecap="round" stroke-linejoin="round"/>
<path d="M68.3 108L61.6 113.5C61.6 113.5 56.2 114.5 55 116.3C53.6 118.5 52.9 121.8 55.7 122.6C55.7 122.6 57 124.8 59.3 123.8C59.3 123.8 62 124.7 64.3 123C66.4 121.4 67.2 119.6 67.2 119.6C77.4 112.8 94.7 102.5 90.3 84.8C86.2 61.9 44.5 40 44.5 40" stroke="#1A1A1A" stroke-width="1.5" stroke-linecap="round" stroke-linejoin="round"/>
<path d="M59.2998 123.3C59.2998 123.3 59.4998 121.2 59.9998 120.3C60.4998 119.4 61.7998 118.5 61.7998 118.5" stroke="#1A1A1A" stroke-width="1.5" stroke-linecap="round" stroke-linejoin="round"/>
<path d="M55.6002 122.3C55.6002 122.3 55.5002 120.1 56.3002 118.7C57.1002 117.4 58.2002 117.2 58.2002 117.2" stroke="#1A1A1A" stroke-width="1.5" stroke-linecap="round" stroke-linejoin="round"/>
<path d="M47.1999 54.3C47.1999 54.3 43.9999 114.6 41.5999 123C41.5999 123 38.1999 125.3 37.5999 127.4C36.9999 130.9 37.4999 132.6 39.1999 132.4C39.6999 133.2 40.5999 133.7 41.8999 133.2C41.8999 133.2 42.8999 134.5 44.7999 133.7C46.6999 133 48.5999 132.3 49.3999 131C50.0999 129.8 50.4999 122.6 50.1999 121.1C49.8999 119.6 59.5999 74.2001 59.5999 74.2001" stroke="#1A1A1A" stroke-width="1.5" stroke-linecap="round" stroke-linejoin="round"/>
<path d="M42.2002 133.1C42.2002 133.1 42.2002 131.3 42.6002 130.4C42.9002 129.5 44.1002 128.4 44.1002 128.4" stroke="#1A1A1A" stroke-width="1.5" stroke-linecap="round" stroke-linejoin="round"/>
<path d="M39.1001 132.5C39.1001 132.5 38.9 129.7 39.4 128.9C40 128.1 41.1001 126.9 41.1001 126.9" stroke="#1A1A1A" stroke-width="1.5" stroke-linecap="round" stroke-linejoin="round"/>
<path d="M40.2998 76.7L44.9998 85.7" stroke="#1A1A1A" stroke-width="1.5" stroke-linecap="round" stroke-linejoin="round"/>
<path d="M33.5 113.2L43.6 108" stroke="#1A1A1A" stroke-width="1.5" stroke-linecap="round" stroke-linejoin="round"/>
<path d="M53.7998 101.8C53.7998 101.8 62.6998 102.4 66.5998 105.5" stroke="#1A1A1A" stroke-width="1.5" stroke-linecap="round" stroke-linejoin="round"/>
<path d="M29 105.5C29 105.5 32.6 104 34.8 103.3C37 102.6 44.4 98.3 44.4 98.3" stroke="#1A1A1A" stroke-width="1.5" stroke-linecap="round" stroke-linejoin="round"/>
<path d="M38.0999 72.5C38.0999 72.5 35.9999 83.5 34.7999 87C33.5999 90.5 28.0999 103.9 27.1999 104.8C26.5999 105.4 22.6999 108.7 19.0999 108.1C15.3999 107.5 13.1999 104.4 14.6999 100.6C16.1999 96.8001 19.2999 96 19.2999 96C19.2999 96 27.8999 80.6 27.9999 79.4C28.0999 78.2 27.2999 50.8 27.2999 50.8" stroke="#1A1A1A" stroke-width="1.5" stroke-linecap="round" stroke-linejoin="round"/>
<path d="M16.8 106.9C16.8 106.9 16.1 102.5 17.9 100.5" stroke="#1A1A1A" stroke-width="1.5" stroke-linecap="round" stroke-linejoin="round"/>
<path d="M20.7998 107.8C20.7998 107.8 20.0998 103.5 21.9998 101.5" stroke="#1A1A1A" stroke-width="1.5" stroke-linecap="round" stroke-linejoin="round"/>
<path d="M19.2998 96C19.2998 96 22.1998 95.5 24.7998 97.4" stroke="#1A1A1A" stroke-width="1.5" stroke-linecap="round" stroke-linejoin="round"/>
<path d="M14.3998 105.4C14.3998 105.4 5.49981 114.5 12.4998 121.5C19.4998 128.5 35.9998 126.3 33.2998 111.5C32.2998 105.9 27.1998 104.8 27.1998 104.8" stroke="#1A1A1A" stroke-width="1.5" stroke-linecap="round" stroke-linejoin="round"/>
<path d="M21.2002 108C21.2002 108 27.0002 117.2 21.7002 125" stroke="#1A1A1A" stroke-width="1.5" stroke-linecap="round" stroke-linejoin="round"/>
<path d="M23.6001 107.4C23.6001 107.4 30.5001 111.1 26.4001 124.3" stroke="#1A1A1A" stroke-width="1.5" stroke-linecap="round" stroke-linejoin="round"/>
<path d="M26.1001 106C26.1001 106 33.6001 109.4 30.0001 122.6" stroke="#1A1A1A" stroke-width="1.5" stroke-linecap="round" stroke-linejoin="round"/>
<path d="M9.7998 115.5C9.7998 115.5 17.2998 117.7 22.8998 113.9" stroke="#1A1A1A" stroke-width="1.5" stroke-linecap="round" stroke-linejoin="round"/>
<path d="M11.3999 119.7C11.3999 119.7 19.0999 121.5 23.3999 118.1" stroke="#1A1A1A" stroke-width="1.5" stroke-linecap="round" stroke-linejoin="round"/>
<path d="M14.7002 123.2C14.7002 123.2 17.9002 124.4 23.0002 122" stroke="#1A1A1A" stroke-width="1.5" stroke-linecap="round" stroke-linejoin="round"/>
<path d="M17.8998 108C17.8998 108 17.0998 114 19.6998 115.2" stroke="#1A1A1A" stroke-width="1.5" stroke-linecap="round" stroke-linejoin="round"/>
<path d="M15.4002 106.8C15.4002 106.8 12.8002 112.7 15.1002 115.9" stroke="#1A1A1A" stroke-width="1.5" stroke-linecap="round" stroke-linejoin="round"/>
<path d="M10.1001 118C10.1001 118 8.60005 116.7 8.20005 118.1C7.90005 119.5 9.10005 120.3 6.70005 121C4.30005 121.7 5.80006 124.1 6.90006 123.9C7.90006 123.7 9.50005 123 9.60005 125.1C9.70005 127.2 11.3001 126.3 11.8001 125.8C12.3001 125.3 13.4001 125.6 13.5001 126.8C13.5001 128 14.9001 129.4 15.8001 128.2C16.7001 127 18.6001 127.1 18.2001 128.3C17.8001 129.5 17.8001 131.6 19.2001 131.2C20.6001 130.9 20.6001 127.4 21.6001 128.6C22.6001 129.8 21.7001 133.3 24.1001 132C26.6001 130.7 26.2001 129.2 26.2001 129.2" stroke="#1A1A1A" stroke-width="1.5" stroke-linecap="round" stroke-linejoin="round"/>
<path d="M32.7002 109L34.2002 108.2" stroke="#1A1A1A" stroke-width="1.5" stroke-linecap="round" stroke-linejoin="round"/>
</svg>
