<svg width="128" height="128" viewBox="0 0 128 128" fill="none" xmlns="http://www.w3.org/2000/svg">
<path d="M78.1647 125.944C92.7251 122.593 105.449 113.723 113.409 101.819C115.968 97.9919 118.047 93.8792 120.121 89.7765C122.161 85.7415 124.223 81.6389 124.985 77.1628C125.665 73.1904 125.292 69.0777 124.875 65.0151C123.598 52.5993 121.496 39.3189 112.674 29.7301C109.347 26.1162 105.231 23.2415 100.995 20.6476C95.4368 17.2442 89.6061 14.2718 83.5805 11.7681C75.5355 8.42478 66.7133 5.891 58.3509 7.41227C54.7871 8.05887 51.4456 9.42476 48.2491 10.9761C32.1192 18.8105 19.0108 31.8028 11.4032 47.4892C6.04493 58.5416 3.40576 71.406 7.03462 83.5285C10.9434 96.5834 18.621 107.398 30.0249 115.683C41.4313 123.969 63.6043 129.295 78.1647 125.944Z" fill="#FABFA1"/>
<path d="M66 11.5999C63.6 11.5999 59.6 16.3999 59.6 24.3999C60 32.3999 62.4 44.3999 64 49.5999C62.8 49.9999 62 50.3998 61.2 50.7999C54.4 44.3998 33.2 23.9999 28.4 28.3999C22.8 33.5999 30 39.5998 35.2 46.7999C40.4 53.9999 43.6 56.7999 47.2 59.1999C49.6 60.7999 51.2 65.1999 53.6 67.5999C54 70.3999 54.8 73.9999 54.8 73.9999C54.8 73.9999 51.2 79.1999 52.4 84.3998C52.8 86.7999 54 89.5999 56 91.9999C58 94.3999 60 95.5999 60 95.5999C58.8 100.4 56.4 111.2 53.6 118C57.6 118.8 61.6 118.4 66 118.4C79.2 118.4 91.6 112 101.6 104.8L92.4 87.1999C92.4 87.1999 94 81.5998 94 78.3998C94 71.9998 90 67.9999 84 64.3999C82.4 59.1999 81.6 53.5998 77.2 50.7999C74.4 39.5998 68 11.5999 66 11.5999Z" fill="white"/>
<path d="M71.6001 51.2C64.8001 48.8 58.0001 49.6 54.0001 55.2C50.0001 61.2 53.6001 73.2 53.6001 73.2C53.6001 73.2 46.4001 76.8 49.2001 86.8C50.0001 90.4 56.4001 100.4 66.0001 96.8C70.0001 95.2 72.0001 92.4 72.4001 88.4C72.4001 88.4 78.0001 94 82.4001 92C86.8001 90 89.2001 86.8 89.2001 80.4C89.2001 74 86.0001 70.8 80.4001 67.2C78.4001 60.8 77.6001 53.2 71.6001 51.2Z" stroke="#1A1A1A" stroke-width="2.5" stroke-linecap="round" stroke-linejoin="round"/>
<path d="M72.3999 87.5999C72.3999 87.5999 72.7999 85.5999 74.3999 82.3999" stroke="#1A1A1A" stroke-width="2.5" stroke-linecap="round" stroke-linejoin="round"/>
<path d="M66.8 84.3999C66.8 84.3999 69.6 86.3999 72.4 87.9999" stroke="#1A1A1A" stroke-width="2.5" stroke-linecap="round" stroke-linejoin="round"/>
<path d="M68.8 96.0001C68.8 96.0001 75.6001 102 79.2001 92.8" stroke="#1A1A1A" stroke-width="2.5" stroke-linecap="round" stroke-linejoin="round"/>
<path d="M73.6 66.4C73.2 65.2 74 64 74.8 64C75.6 64 76.4 64.8 76.8 66.4C77.2 67.6 76.4 68.8 75.6 68.8C74.8 68.8 74 67.6 73.6 66.4Z" fill="#1A1A1A"/>
<path fill-rule="evenodd" clip-rule="evenodd" d="M74.0996 64.9441C73.8989 65.3054 73.8181 65.7895 73.9794 66.2734C74.1685 66.8406 74.4495 67.3977 74.7657 67.8043C75.0983 68.2319 75.3946 68.3999 75.5999 68.3999C75.8008 68.3999 76.0901 68.234 76.3003 67.8556C76.501 67.4943 76.5818 67.0102 76.4205 66.5263L76.4107 66.4972L76.4119 66.4969C76.2223 65.7384 75.9454 65.2021 75.6489 64.8633C75.3543 64.5266 75.0567 64.3999 74.7999 64.3999C74.5991 64.3999 74.3098 64.5657 74.0996 64.9441ZM73.4003 64.5556C73.6901 64.034 74.2008 63.5999 74.7999 63.5999C75.3432 63.5999 75.8456 63.8731 76.251 64.3365C76.6522 64.795 76.9739 65.4537 77.1844 66.2884C77.4164 66.9995 77.2968 67.7092 76.9996 68.2441C76.7098 68.7657 76.1991 69.1999 75.5999 69.1999C75.0053 69.1999 74.5016 68.7678 74.1342 68.2954C73.7504 67.802 73.4314 67.1591 73.2205 66.5263C72.9818 65.8102 73.101 65.0943 73.4003 64.5556Z" fill="#1A1A1A"/>
<path d="M55.9999 71.2001C55.5999 70.0001 56.3999 68.8 57.1999 68.8C57.9999 68.8 58.7999 69.6001 59.1999 71.2001C59.5999 72.4001 58.7999 73.6001 57.9999 73.6001C57.1999 73.6001 55.9999 72.4001 55.9999 71.2001Z" fill="#1A1A1A"/>
<path fill-rule="evenodd" clip-rule="evenodd" d="M56.4998 69.7442C56.299 70.1055 56.2183 70.5895 56.3796 71.0734L56.4001 71.135V71.1999C56.4001 71.6729 56.6418 72.1823 56.9991 72.5842C57.1747 72.7818 57.3677 72.9408 57.5516 73.0481C57.7398 73.1579 57.8946 73.1999 58.0001 73.1999C58.2009 73.1999 58.4902 73.0341 58.7004 72.6556C58.9012 72.2943 58.9819 71.8103 58.8206 71.3264L58.8109 71.2972L58.812 71.2969C58.6224 70.5385 58.3455 70.0021 58.0491 69.6633C57.7545 69.3266 57.4568 69.1999 57.2001 69.1999C56.9993 69.1999 56.71 69.3658 56.4998 69.7442ZM55.8004 69.3556C56.0902 68.8341 56.6009 68.3999 57.2001 68.3999C57.7434 68.3999 58.2457 68.6732 58.6511 69.1365C59.0524 69.5951 59.3741 70.2537 59.5845 71.0884C59.8166 71.7995 59.6969 72.5093 59.3998 73.0442C59.11 73.5658 58.5993 73.9999 58.0001 73.9999C57.7056 73.9999 57.4104 73.8919 57.1485 73.7392C56.8825 73.584 56.6255 73.368 56.4011 73.1157C55.9716 72.6324 55.6216 71.9681 55.601 71.2651C55.3889 70.5696 55.5097 69.8789 55.8004 69.3556Z" fill="#1A1A1A"/>
<path d="M57.2 88.8C57.6 92.4 64.4 97.2001 68 95.6001" stroke="#1A1A1A" stroke-width="2.5" stroke-linecap="round" stroke-linejoin="round"/>
<path d="M80.8 92C80.8 92 86.4001 88 83.2001 81.2" stroke="#1A1A1A" stroke-width="2.5" stroke-linecap="round" stroke-linejoin="round"/>
<path d="M60.8 49.5999C60.8 49.5999 56.8 35.5999 56.4 25.1999C56 17.1999 60.4 12.3999 62.8 12.3999C65.2 12.3999 71.2 41.1999 72.8 51.1999" stroke="#1A1A1A" stroke-width="2.5" stroke-linecap="round" stroke-linejoin="round"/>
<path d="M57.2 52C56.4118 50.4235 44.578 39.7 34.9624 34C45.3323 40.4 50.6416 59.8667 52 68.8C50.4 58.24 54.8 53.2 57.2 52Z" fill="#1A1A1A"/>
<path d="M51.9999 68.8C51.9999 68.8 46.7999 62.8 43.5999 60.4C40.3999 58 36.7999 55.2 31.5999 48C26.7999 40.8 17.9999 36 23.5999 31.2C29.1999 26 55.9999 49.6 57.1999 52" stroke="#1A1A1A" stroke-width="2.5" stroke-linecap="round" stroke-linejoin="round"/>
<path d="M32.3999 32.3999C47.1999 42.3999 48.7999 56.7999 50.7999 66.3999" stroke="#1A1A1A" stroke-width="2.5" stroke-linecap="round" stroke-linejoin="round"/>
<path d="M56.0001 96.8C54.8001 101.2 53.2001 110.8 49.6001 118" stroke="#1A1A1A" stroke-width="2.5" stroke-linecap="round" stroke-linejoin="round"/>
<path d="M87.2 88.3999C87.2 88.3999 96 103.2 97.2 108" stroke="#1A1A1A" stroke-width="2.5" stroke-linecap="round" stroke-linejoin="round"/>
<path d="M4 62C4 30 30 4 62 4C94 4 120 30 120 62C120 94 94 120 62 120C30 120 4 94 4 62Z" stroke="#1A1A1A" stroke-width="4" stroke-linecap="round" stroke-linejoin="round"/>
</svg>
