<svg width="294" height="290" viewBox="0 0 294 290" fill="none" xmlns="http://www.w3.org/2000/svg">
<g clip-path="url(#clip0_3242_56046)">
<path d="M96.176 152.936C93.6719 149.04 93.6719 117.785 93.3009 113.148C92.0025 97.1034 91.075 48.8762 92.188 43.7753C93.9501 35.6138 94.7848 24.8554 102.761 15.3027C110.83 5.75006 116.58 3.06046 128.173 0.741845C139.766 -1.57677 149.133 6.21379 149.133 6.21379C149.133 6.21379 158.222 8.25416 163.23 14.0043C168.238 19.8472 171.484 30.6983 170.279 38.2106C169.259 44.4245 163.323 88.1071 163.23 88.0144C163.045 87.9217 148.02 92.7444 138.375 105.079C132.532 120.289 134.85 140.415 131.604 146.258C129.008 150.895 125.298 153.307 119.455 150.988C117.785 132.346 121.681 115.838 121.866 114.818C122.33 112.777 138.467 101.277 147.371 89.962C155.811 79.4819 159.057 78.8327 163.601 57.1305C164.9 46.7431 166.476 23.2788 152.101 16.8794C148.298 15.21 140.786 16.3229 132.161 18.9198C129.935 19.569 111.757 25.2264 104.059 51.1949C103.967 51.4731 103.225 46.4649 99.793 42.2914C97.8454 39.9728 90.7968 43.3116 94.7848 57.4087C96.3615 62.9734 99.1438 65.9412 101.37 65.1992C102.668 64.7355 108.14 81.8933 110.366 82.728C112.87 83.5627 109.16 112.221 108.604 151.081C108.604 155.811 97.1034 154.419 96.176 152.936Z" fill="#1A1A1A"/>
<path d="M263.766 65.1992L187.901 50.9166C187.901 50.9166 180.388 48.9689 181.316 42.4768C182.243 35.9847 187.437 5.47179 187.437 5.47179C187.437 5.47179 187.9 -0.742087 194.671 1.29829C201.441 3.24593 272.576 16.7866 272.576 16.7866L266.733 59.9128C266.733 60.0056 266.826 65.3847 263.766 65.1992Z" fill="#FDD595"/>
<path d="M261.539 61.3042L190.219 48.0417C190.219 48.0417 183.17 46.1868 184.283 40.0657C185.396 33.9446 190.868 5.28654 190.868 5.28654C190.868 5.28654 191.517 0.185584 198.751 1.02028C206.449 2.59694 260.055 13.2625 260.055 13.2625L271.741 23.5572L266.177 56.667C266.177 56.667 264.414 61.3969 261.539 61.3042Z" stroke="#1A1A1A" stroke-width="1.5" stroke-linecap="round" stroke-linejoin="round"/>
<path d="M112.035 123.072C112.035 123.072 113.334 94.5067 113.055 85.8815C112.963 84.0266 107.954 78.4619 106.563 75.0303C103.781 67.889 102.946 64.8285 102.575 65.014C100.999 65.5704 96.7323 62.7881 95.8976 60.6549C91.8168 50.2676 95.3411 44.4247 95.6194 44.2392C97.0105 43.4045 100.349 44.5174 101.184 47.949C102.019 51.4733 102.761 55.183 103.41 55.3685C103.781 55.4613 106.934 47.0215 112.592 39.0455C118.434 30.7912 126.503 24.2991 133.83 20.0329C137.818 17.7143 148.484 14.9319 152.379 17.436C167.589 27.2669 164.436 50.4531 164.436 50.4531C164.436 50.4531 164.343 65.9414 157.016 78.0909C144.774 98.1237 125.112 111.108 122.979 113.983C120.753 117.044 119.918 122.423 118.991 125.762C116.209 128.08 112.035 123.072 112.035 123.072Z" fill="#FABFA1"/>
<path d="M171.299 63.9009C172.968 61.1186 174.081 58.7072 173.618 56.1104C173.247 53.4208 169.073 52.9571 168.702 53.4208C167.589 54.8119 167.218 67.5179 167.218 67.5179C167.218 67.5179 169.63 66.5905 171.299 63.9009Z" fill="#FABFA1"/>
<path d="M268.403 88.0145C265.528 97.5672 237.148 126.04 236.591 128.266C235.293 133.459 234.273 138.746 234.366 144.125C234.458 151.637 236.499 163.509 240.765 171.577C245.031 179.646 249.205 178.997 251.338 176.493C257.181 169.722 265.713 155.718 266.826 153.585C268.866 149.319 288.899 109.16 291.682 95.4341C292.424 91.6315 292.053 73.7319 292.424 59.4492C292.795 45.1666 294.835 50.3603 292.516 40.4366C291.311 36.5413 290.105 32.5533 287.323 27.9161C278.234 17.8997 270.258 10.6656 267.197 8.34701C264.693 6.49212 247.721 2.78234 242.249 9.27445C247.628 9.64543 252.729 12.0568 259.314 12.9842C264.6 16.7868 271 22.8151 269.33 22.1659C267.754 21.6095 260.89 17.6214 253.1 16.0448C240.95 13.5407 226.575 8.16151 224.442 8.62523C221.01 11.0366 223.422 13.448 229.636 16.7868C235.849 20.1256 249.854 23.2789 249.205 23.2789C247.906 23.2789 274.338 38.118 272.854 37.8397C267.661 36.6341 254.584 33.5735 238.817 27.5451C227.966 25.5047 218.877 20.8675 217.022 22.8151C215.817 24.1136 217.393 31.5331 246.33 39.7874C267.475 49.0618 268.959 53.2353 266.641 53.0499C257.737 52.3079 223.978 47.5779 221.66 48.3199C219.526 49.0618 215.909 51.6587 226.668 55.4612C236.684 58.9855 258.665 64.6429 262.931 66.776C258.572 75.0303 266.919 88.9419 268.403 88.0145Z" fill="#FABFA1"/>
<path d="M142.734 272.298C150.617 272.112 205.151 259.87 205.614 235.664C206.171 207.748 197.917 182.707 200.328 184.469C200.884 184.84 221.937 205.614 229.635 196.618C230.099 196.062 239.373 214.518 245.402 209.51C251.894 204.038 252.265 177.513 251.801 174.36C249.204 175.194 241.321 171.114 237.611 159.057C233.901 147 236.591 127.616 236.591 127.616C236.591 127.616 204.501 104.338 179.646 90.8896C164.158 82.4498 142.826 98.1236 139.951 106.656C137.818 112.963 133.923 137.447 132.717 145.98C130.862 159.242 137.262 260.148 142.734 272.298Z" fill="#A0A1FA"/>
<path d="M93.208 152.565C93.208 152.565 100.628 203.203 93.4862 265.342C107.954 269.33 112.035 269.052 116.951 269.516C118.898 241.785 109.902 148.67 109.438 151.916C102.019 155.625 93.208 152.565 93.208 152.565Z" fill="#A0A1FA"/>
<path d="M129.193 56.3886C127.895 56.4814 126.875 55.2757 126.967 53.8845C126.967 52.4006 128.08 51.195 129.286 51.195C130.584 51.1022 131.605 52.3079 131.512 53.699C131.512 55.0902 130.492 56.2959 129.193 56.3886Z" fill="#1A1A1A"/>
<path d="M155.996 59.171C154.791 59.3565 153.77 58.4291 153.585 57.1307C153.399 55.8323 154.234 54.5338 155.44 54.3483C156.645 54.1629 157.666 55.0903 157.851 56.3887C157.944 57.7799 157.109 58.9856 155.996 59.171Z" fill="#1A1A1A"/>
<path d="M112.036 122.33C105.08 159.892 115.56 192.259 116.765 269.516C132.996 273.04 142.827 272.298 142.827 272.298C140.23 260.983 134.387 224.256 131.79 145.702C129.379 155.996 117.786 150.895 117.786 150.895C117.786 150.895 118.806 130.306 119.362 124.278C116.673 124.37 115.282 124.185 112.036 122.33Z" fill="#F7F3F0"/>
<path d="M123.165 93.6719C123.165 93.6719 134.108 101.833 138.189 101.648L142.919 96.547C142.919 96.4542 136.242 100.442 123.165 93.6719Z" fill="#1A1A1A"/>
<path d="M234.736 145.145C234.736 145.145 233.159 153.028 236.776 163.694C240.393 174.36 249.853 177.606 249.853 177.606L250.039 175.658L251.152 173.339C251.245 173.247 235.293 167.867 234.736 145.145Z" fill="#1A1A1A"/>
<path d="M151.081 16.3231C151.081 16.3231 113.89 14.1899 104.152 53.5136C104.152 53.5136 102.576 40.6221 97.4747 42.2915C92.3737 43.9609 94.9706 56.5741 94.9706 56.5741C94.9706 56.5741 97.4747 66.4051 102.576 65.2921C102.576 65.2921 107.213 79.7603 111.479 83.47L109.16 152.565C109.16 152.565 93.8576 157.295 92.7447 148.577C91.7245 139.859 83.6557 37.1906 98.4949 18.5489C113.241 2.32794e-05 137.819 -4.08074 149.412 6.39939C149.412 6.39939 175.473 8.62527 170.094 44.1464C164.714 79.6675 164.343 83.2846 163.323 88.2C158.501 90.2404 140.508 95.4341 136.613 110.273C136.613 110.273 134.665 126.225 133.831 136.798C132.996 148.02 128.73 155.903 117.507 150.988C117.507 150.988 117.136 119.548 123.814 113.705C123.814 113.705 158.872 85.2322 162.118 66.4978C162.025 66.4978 173.525 27.6379 151.081 16.3231Z" stroke="#1A1A1A" stroke-width="1.5" stroke-linecap="round" stroke-linejoin="round"/>
<path d="M127.802 78.8328C127.802 78.8328 129.657 81.6151 133.83 81.8006C138.004 81.9861 145.145 83.5627 145.145 83.5627C145.145 83.5627 147.093 83.099 148.762 81.9861" stroke="#1A1A1A" stroke-width="1.5" stroke-linecap="round" stroke-linejoin="round"/>
<path d="M132.903 84.9539C132.903 84.9539 138.56 88.7564 142.641 86.8087" stroke="#1A1A1A" stroke-width="1.5" stroke-linecap="round" stroke-linejoin="round"/>
<path d="M111.479 83.47C111.479 83.47 131.048 106.007 144.589 94.0428" stroke="#1A1A1A" stroke-width="1.5" stroke-linecap="round" stroke-linejoin="round"/>
<path d="M169.259 51.3804C169.259 51.3804 177.606 51.9369 166.94 65.5703" stroke="#1A1A1A" stroke-width="1.5" stroke-linecap="round" stroke-linejoin="round"/>
<path d="M121.681 60.0057C121.31 60.0057 121.032 59.7275 121.032 59.3565C121.032 58.9855 121.31 58.7073 121.681 58.7073C122.052 58.7073 122.33 58.9855 122.33 59.3565C122.33 59.7275 122.052 60.0057 121.681 60.0057Z" fill="#1A1A1A"/>
<path d="M156.738 66.1269C156.645 66.4051 156.274 66.5906 155.903 66.4979C155.625 66.4051 155.44 66.0341 155.532 65.6632C155.625 65.3849 155.996 65.1994 156.367 65.2922C156.738 65.3849 156.924 65.7559 156.738 66.1269Z" fill="#1A1A1A"/>
<path d="M118.62 57.9654C118.249 57.9654 117.971 57.6872 117.971 57.3162C117.971 56.9452 118.249 56.667 118.62 56.667C118.991 56.667 119.27 56.9452 119.27 57.3162C119.27 57.6872 118.991 57.9654 118.62 57.9654Z" fill="#1A1A1A"/>
<path d="M153.863 70.0222C153.77 70.3004 153.399 70.4859 153.028 70.3931C152.75 70.3004 152.565 69.9294 152.657 69.5584C152.75 69.2802 153.121 69.0947 153.492 69.1875C153.77 69.2802 153.956 69.6512 153.863 70.0222Z" fill="#1A1A1A"/>
<path d="M118.898 62.6954C118.527 62.6954 118.249 62.4171 118.249 62.0462C118.249 61.6752 118.527 61.397 118.898 61.397C119.269 61.397 119.547 61.6752 119.547 62.0462C119.455 62.4171 119.176 62.6954 118.898 62.6954Z" fill="#1A1A1A"/>
<path d="M157.295 69.0947C157.202 69.3729 156.831 69.5584 156.46 69.4656C156.182 69.3729 155.996 69.0019 156.089 68.6309C156.182 68.3527 156.553 68.1672 156.924 68.26C157.295 68.4455 157.387 68.8164 157.295 69.0947Z" fill="#1A1A1A"/>
<path d="M125.854 62.4171C125.483 62.4171 125.205 62.1389 125.205 61.7679C125.205 61.3969 125.483 61.1187 125.854 61.1187C126.225 61.1187 126.504 61.3969 126.504 61.7679C126.504 62.1389 126.225 62.4171 125.854 62.4171Z" fill="#1A1A1A"/>
<path d="M161.375 62.8808C161.283 63.159 160.912 63.3445 160.541 63.2518C160.262 63.159 160.077 62.788 160.17 62.4171C160.262 62.1388 160.633 61.9534 161.004 62.0461C161.375 62.2316 161.468 62.6026 161.375 62.8808Z" fill="#1A1A1A"/>
<path d="M125.205 66.776C124.834 66.776 124.556 66.4977 124.556 66.1267C124.556 65.7558 124.834 65.4775 125.205 65.4775C125.576 65.4775 125.854 65.7558 125.854 66.1267C125.761 66.4977 125.483 66.776 125.205 66.776Z" fill="#1A1A1A"/>
<path d="M122.701 63.8082C122.33 63.8082 122.052 63.53 122.052 63.159C122.052 62.788 122.33 62.5098 122.701 62.5098C123.072 62.5098 123.35 62.788 123.35 63.159C123.35 63.53 123.072 63.8082 122.701 63.8082Z" fill="#1A1A1A"/>
<path d="M156.645 72.0625C156.553 72.3407 156.182 72.5262 155.811 72.4334C155.532 72.3407 155.347 71.9697 155.44 71.5987C155.532 71.3205 155.903 71.135 156.274 71.2277C156.645 71.3205 156.738 71.6915 156.645 72.0625Z" fill="#1A1A1A"/>
<path d="M121.495 67.0543C121.124 67.0543 120.846 66.7761 120.846 66.4051C120.846 66.0341 121.124 65.7559 121.495 65.7559C121.866 65.7559 122.145 66.0341 122.145 66.4051C122.052 66.7761 121.774 67.0543 121.495 67.0543Z" fill="#1A1A1A"/>
<path d="M159.891 65.8486C159.799 66.1268 159.428 66.3123 159.057 66.2195C158.778 66.1268 158.593 65.7558 158.686 65.3848C158.778 65.1066 159.149 64.9211 159.52 65.0139C159.891 65.1994 159.984 65.5703 159.891 65.8486Z" fill="#1A1A1A"/>
<path d="M129.842 65.8485C129.471 65.8485 129.193 65.5702 129.193 65.1992C129.193 64.8283 129.471 64.55 129.842 64.55C130.213 64.55 130.491 64.8283 130.491 65.1992C130.491 65.5702 130.12 65.8485 129.842 65.8485Z" fill="#1A1A1A"/>
<path d="M110.181 121.124C110.181 121.124 114.911 127.709 118.991 126.411" stroke="#1A1A1A" stroke-width="1.5" stroke-linecap="round" stroke-linejoin="round"/>
<path d="M132.161 145.423C131.604 172.412 133.459 220.454 142.827 271.649" stroke="#1A1A1A" stroke-width="1.5" stroke-linecap="round" stroke-linejoin="round"/>
<path d="M194.114 177.235C194.114 177.235 201.348 216.466 200.792 237.333" stroke="#1A1A1A" stroke-width="1.5" stroke-linecap="round" stroke-linejoin="round"/>
<path d="M109.067 152.657C109.067 152.657 116.951 232.139 116.951 268.774" stroke="#1A1A1A" stroke-width="1.5" stroke-linecap="round" stroke-linejoin="round"/>
<path d="M92.4663 145.331C92.4663 145.331 97.4745 195.505 92.8373 265.156" stroke="#1A1A1A" stroke-width="1.5" stroke-linecap="round" stroke-linejoin="round"/>
<path d="M230.377 192.167C230.377 192.167 216.744 171.299 222.679 140.044" stroke="#1A1A1A" stroke-width="1.5" stroke-linecap="round" stroke-linejoin="round"/>
<path d="M209.324 185.211C188.086 173.061 170.65 168.053 159.521 144.032C148.391 120.104 151.174 99.0511 159.613 90.7041C163.601 86.7161 171.856 88.8492 179.461 92.3735C201.441 102.483 237.333 124.927 237.333 124.927L267.568 87.4581C267.568 87.4581 260.89 76.8852 262.467 65.9414C258.943 63.8082 247.164 60.0057 229.079 55.8322C217.95 53.2354 219.619 48.9691 220.547 48.7836C224.071 47.8562 232.14 48.7836 235.849 49.2474C238.91 49.6183 264.693 52.7716 264.693 52.7716C265.806 52.6789 267.012 53.0499 267.29 52.6789C268.032 51.566 264.229 48.5054 264.229 48.5054C264.229 48.5054 249.761 40.4366 240.858 38.118C228.244 34.872 214.333 26.8959 216.837 22.5369C218.228 20.0328 225.648 24.6701 237.519 27.0814C237.519 27.0814 250.874 31.9041 256.717 33.388C261.54 34.5937 268.495 36.8196 273.04 38.3035C269.516 34.3155 252.636 25.5048 247.721 23.3717C224.071 15.9521 221.196 12.2423 222.401 9.92371C222.958 8.81077 224.256 8.34703 225.462 8.62526L252.172 15.1174C252.172 15.1174 273.504 23.2789 278.326 27.5452" stroke="#1A1A1A" stroke-width="1.5" stroke-linecap="round" stroke-linejoin="round"/>
<path d="M270.907 23.0007C267.012 19.4764 258.757 12.6134 258.757 12.6134L240.858 9.1818C240.858 9.1818 246.237 5.1938 248.834 5.1938C251.523 5.10105 263.116 6.95593 263.116 6.95593C265.991 7.04868 266.919 7.88338 266.919 7.88338C269.979 11.0367 285.56 25.4121 285.56 25.4121C289.085 28.2872 288.621 30.884 291.96 37.0051C294.835 42.3843 290.94 51.1951 290.847 65.014C290.847 67.9818 290.105 90.3332 290.105 90.3332C290.105 90.3332 290.198 96.1761 285.097 107.676C279.903 119.177 278.141 126.504 270.721 142.177C263.302 157.944 250.41 175.38 250.41 175.38C250.41 175.38 249.205 200.977 244.289 205.244C239.374 209.51 230.656 192.445 230.656 192.445C223.051 199.772 212.756 189.477 210.252 186.046C200.421 173.061 203.203 149.411 203.203 149.411" stroke="#1A1A1A" stroke-width="1.5" stroke-linecap="round" stroke-linejoin="round"/>
<path d="M237.426 124.556C237.426 124.556 226.575 168.239 250.132 175.194" stroke="#1A1A1A" stroke-width="1.5" stroke-linecap="round" stroke-linejoin="round"/>
<path d="M23.7426 171.299C28.658 162.767 37.747 154.698 40.2511 143.105C43.9609 126.225 43.8681 96.6398 43.9609 96.3615C44.7956 93.672 45.2593 90.5186 49.5256 84.7685C61.4896 71.9697 72.8044 74.0101 72.8044 74.0101C72.8044 74.0101 87.829 79.3893 94.2284 89.1275C101.741 89.5912 104.987 90.1477 106.656 91.4461C108.233 92.6518 110.551 95.3414 112.035 100.442C113.519 105.543 110.551 114.632 109.346 115.652C107.213 111.108 98.1237 111.572 92.8372 118.62C91.4461 118.713 87.0871 124.741 87.0871 126.782C87.1798 131.326 93.3009 129.842 94.5066 130.955C95.5268 131.883 99.5148 133.923 100.628 136.149C101.37 137.633 101.37 137.633 98.4019 138.931C98.0309 144.032 99.5148 150.617 99.8858 174.452C100.071 188.828 97.289 253.749 96.547 267.475C96.176 274.245 79.6675 274.245 79.6675 274.245C79.6675 274.245 80.224 226.111 79.482 226.297C77.6271 226.946 72.3407 237.89 65.6631 240.486C58.9855 243.083 61.5823 272.483 60.6549 273.596C58.429 276.193 42.1987 277.77 38.0252 256.16C35.7066 238.353 20.682 252.265 9.1817 240.765C6.95584 237.611 5.75016 230.377 7.79054 218.784C8.99622 211.643 -5.28643 187.344 5.28644 162.025C8.90347 172.505 14.5609 192.538 15.0246 190.126C18.0852 181.779 16.8795 183.078 23.7426 171.299Z" fill="white"/>
<path d="M95.3412 119.548C94.9702 119.455 94.6919 118.991 91.7241 121.032C89.591 123.072 90.8894 127.153 96.6396 129.193C103.874 132.439 108.047 136.056 109.16 138.653C109.809 140.044 111.571 144.218 116.394 143.105C122.515 141.435 119.64 131.233 116.301 127.802C111.108 122.886 108.789 120.475 103.595 117.6C98.4017 114.725 96.8251 116.116 96.1758 116.394C94.9702 116.951 95.6194 119.64 95.3412 119.548Z" fill="#FABFA1"/>
<path d="M108.325 121.217C110.366 113.334 103.688 106.285 102.575 106.842C101.926 107.213 98.1236 114.91 91.5387 120.011C82.9135 126.689 71.6914 123.165 71.6914 123.257C71.7842 123.443 81.0586 131.141 88.9419 131.048C93.3936 130.677 97.3816 132.903 98.9583 133.181C98.2163 132.068 98.0308 128.822 96.5469 128.822C90.5185 128.637 87.087 118.527 96.5469 119.362C95.5267 118.156 97.2889 114.539 102.575 117.6C104.523 118.898 108.325 121.217 108.325 121.217Z" fill="#1A1A1A"/>
<path d="M35.8921 289.084C36.1703 288.806 36.5413 288.528 36.8195 288.25L35.8921 289.084Z" fill="#1A1A1A"/>
<path d="M58.522 244.474L75.6797 230.563C75.6797 230.563 85.4179 222.494 87.18 219.526" stroke="#1A1A1A" stroke-width="1.5" stroke-linecap="round" stroke-linejoin="round"/>
<path d="M96.9178 139.488C96.5468 139.488 91.1676 140.044 90.0547 139.951C84.9537 139.488 80.5947 138.468 80.5947 138.468C80.5947 138.468 84.9537 141.621 88.7562 142.548C92.466 143.383 97.1032 143.754 97.1032 143.754C97.1032 143.754 96.9178 141.528 96.9178 139.488Z" fill="#1A1A1A"/>
<path d="M56.1104 82.2643C56.1104 82.2643 49.711 76.8851 47.2069 78.4618C47.2069 78.4618 32.4606 96.8252 32.9243 103.596C33.388 110.366 38.9527 141.25 42.5697 148.577C46.094 155.903 55.7394 144.218 55.7394 144.218C55.7394 144.218 66.4978 130.491 58.7073 114.818C44.8883 92.3734 56.1104 82.2643 56.1104 82.2643Z" fill="#1A1A1A"/>
<path d="M70.3004 75.3086C70.3004 75.3086 69.8367 68.631 73.361 68.0746C76.7925 67.5181 79.3894 69.0948 84.954 72.4336C90.5187 75.7724 95.7124 81.5225 95.7124 81.5225C95.7124 81.5225 99.9786 84.7686 99.7004 88.2929L92.93 88.6638C92.93 88.6638 82.3572 80.5023 76.6998 77.1635C71.0424 73.732 70.3004 75.3086 70.3004 75.3086Z" fill="#1A1A1A"/>
<path d="M102.297 100.442C102.297 100.442 92.6517 99.8858 91.6315 96.2688C90.6113 92.559 98.3091 88.8493 101.37 89.0348C104.801 89.313 105.821 90.8896 105.358 93.5792C104.894 96.3616 102.297 100.442 102.297 100.442Z" fill="#1A1A1A"/>
<path d="M66.6831 102.39C65.7557 101.184 65.663 99.6076 66.5904 98.8656C67.5178 98.1237 69.0018 98.4946 70.0219 99.7003C70.9494 100.906 71.0421 102.483 70.1147 103.225C69.1873 103.967 67.7033 103.596 66.6831 102.39Z" fill="#1A1A1A"/>
<path d="M86.809 90.8897C85.7888 90.055 85.4178 88.6639 86.1598 87.8292C86.809 86.9944 88.2002 87.0872 89.3131 87.9219C90.3333 88.7566 90.7043 90.1478 89.9623 90.9825C89.2203 91.8172 87.8292 91.7244 86.809 90.8897Z" fill="#1A1A1A"/>
<path d="M97.3817 139.395C97.3817 139.395 96.8253 164.529 97.4745 170.464C97.66 172.598 97.7527 177.049 97.7527 182.428C97.7527 191.703 97.4745 203.852 97.0107 212.014C96.8253 214.982 96.6398 219.619 96.547 224.998C95.9906 242.527 95.4341 267.753 95.4341 267.753" stroke="#1A1A1A" stroke-width="1.5" stroke-linecap="round" stroke-linejoin="round"/>
<path d="M59.1711 272.947C59.1711 272.947 57.5017 243.918 58.7074 230.748C58.9856 224.72 62.7881 218.784 62.7881 218.784" stroke="#1A1A1A" stroke-width="1.5" stroke-linecap="round" stroke-linejoin="round"/>
<path d="M78.9258 228.151C79.0185 239.744 79.204 274.06 79.204 274.06" stroke="#1A1A1A" stroke-width="1.5" stroke-linecap="round" stroke-linejoin="round"/>
<path d="M35.1504 216.651L37.84 256.253" stroke="#1A1A1A" stroke-width="1.5" stroke-linecap="round" stroke-linejoin="round"/>
<path d="M7.5121 234.087C6.58466 217.208 12.0566 200.885 12.0566 200.885C12.0566 200.885 17.9922 178.533 25.4118 167.404C31.4402 158.315 40.2509 148.855 42.1058 138.653" stroke="#1A1A1A" stroke-width="1.5" stroke-linecap="round" stroke-linejoin="round"/>
<path d="M38.9529 127.987L21.6097 149.875L12.5207 176.307C12.5207 176.307 12.3353 187.251 14.0974 194.392C15.3031 199.122 16.8797 198.659 18.0854 198.659C18.7346 199.401 18.8274 201.07 19.5693 204.78C19.9403 206.727 22.0734 205.707 22.2589 198.288C21.2387 190.961 20.3113 175.009 20.3113 175.009C20.3113 175.009 24.4848 193.465 30.0495 202.183C30.7914 203.389 32.4608 198.937 31.9971 195.413C31.4406 191.332 29.2148 191.054 28.6583 186.231C27.6381 177.42 34.0375 164.992 34.0375 164.992C34.0375 164.992 38.211 165.92 41.5498 171.299C44.8886 176.678 42.6627 183.17 51.0097 184.84C53.6993 185.396 50.2677 180.11 47.8564 165.642C47.2072 161.654 47.7636 153.307 40.3441 144.774C40.7151 134.758 38.9529 127.987 38.9529 127.987Z" fill="#FABFA1"/>
<path d="M38.5817 127.895C38.5817 127.895 22.0732 148.577 21.1457 150.524L12.8914 175.194C12.8914 175.194 10.4801 196.804 18.0851 199.03C18.7343 198.937 19.0126 204.501 20.1255 206.078C22.7224 203.481 23.4643 202.183 22.0732 195.134C20.682 188.364 20.5892 185.025 20.1255 178.533C20.0328 176.585 22.9078 167.311 22.9078 167.311C22.9078 167.311 20.7747 174.174 21.7949 179.924C23.3716 189.106 25.412 194.207 29.6782 202.739C31.2549 202.832 33.8517 196.062 31.2549 191.425C29.7709 188.92 29.029 184.283 28.9362 181.965C28.9362 181.037 29.7709 170.093 35.0574 164.807C35.0574 164.807 40.8075 168.146 42.106 173.71C43.4971 179.739 47.9489 186.602 51.3804 184.84C52.9571 184.005 48.7836 172.968 46.094 154.327C45.723 152.101 42.106 149.968 41.1785 144.774C40.1583 137.169 38.5817 127.895 38.5817 127.895Z" stroke="#1A1A1A" stroke-width="1.5" stroke-linecap="round" stroke-linejoin="round"/>
<path d="M74.0101 161.097C83.2846 164.065 89.9622 161.746 91.9098 160.912C97.0107 158.593 97.3817 154.791 97.3817 154.791L97.9382 146.536C97.9382 146.536 93.9502 152.472 89.4984 153.399C83.47 154.698 71.6915 151.915 56.4814 140.137C56.0177 139.766 51.1022 144.31 51.8442 145.887C54.2555 151.174 64.7357 158.222 74.0101 161.097Z" fill="#1A1A1A"/>
<path d="M79.6675 167.867C79.6675 172.041 83.099 175.472 87.2725 175.472C91.446 175.472 94.8776 172.041 94.8776 167.867C94.8776 163.694 91.446 160.262 87.2725 160.262C83.099 160.17 79.6675 163.601 79.6675 167.867ZM82.6353 167.867C82.6353 165.271 84.6757 163.23 87.2725 163.23C89.8694 163.23 91.9098 165.271 91.9098 167.867C91.9098 170.464 89.8694 172.505 87.2725 172.505C84.7684 172.412 82.6353 170.371 82.6353 167.867Z" fill="#1A1A1A"/>
<path d="M7.79034 220.361C7.79034 220.361 -4.26644 187.158 5.00801 163.323C5.00801 163.323 7.04839 184.561 12.8913 196.247" stroke="#1A1A1A" stroke-width="1.5" stroke-linecap="round" stroke-linejoin="round"/>
<path d="M18.2706 199.215C17.065 193.372 12.0568 181.037 12.7987 175.102" stroke="#1A1A1A" stroke-width="1.5" stroke-linecap="round" stroke-linejoin="round"/>
<path d="M79.5746 244.474L79.2036 227.409L87.8289 219.526L79.5746 244.474Z" fill="#1A1A1A"/>
<path d="M53.6064 83.7483C53.6064 83.7483 62.8809 75.3086 72.3408 75.2158C72.3408 75.2158 83.9339 80.8732 93.0229 89.0347" stroke="#1A1A1A" stroke-width="1.5" stroke-linecap="round" stroke-linejoin="round"/>
<path d="M77.0708 100.628C77.0708 100.628 85.4178 91.817 94.414 89.0347C94.414 89.0347 103.225 85.6959 108.975 94.3211C114.725 102.946 110.366 114.168 108.975 117.6C108.975 117.6 108.697 111.479 102.947 106.471C102.947 106.471 102.947 101.091 101.834 98.1236" stroke="#1A1A1A" stroke-width="1.5" stroke-linecap="round" stroke-linejoin="round"/>
<path d="M102.946 106.378C102.946 106.378 97.7528 115.374 90.7042 120.382C85.6032 123.999 75.7723 126.782 67.5181 120.382C67.5181 120.382 77.1635 129.471 87.2726 130.955C97.3818 132.532 97.1963 131.326 101.555 137.447C101.555 137.447 94.414 140.879 85.5105 139.209C76.607 137.54 74.1957 134.201 74.1957 134.201" stroke="#1A1A1A" stroke-width="1.5" stroke-linecap="round" stroke-linejoin="round"/>
<path d="M113.241 143.197C113.241 143.197 118.991 145.238 119.64 138.468C119.64 138.468 120.753 130.584 113.334 124.834C109.902 122.145 99.5149 112.87 95.8051 118.806C95.8051 118.806 90.8896 119.084 90.8896 123.814C90.8896 123.814 90.8897 126.596 96.5471 128.915C101.833 131.141 108.14 135.685 109.624 139.859C110.088 141.435 112.128 143.105 113.241 143.197Z" stroke="#1A1A1A" stroke-width="1.5" stroke-linecap="round" stroke-linejoin="round"/>
<path d="M121.681 42.6624C121.681 42.6624 126.411 38.0251 135.685 40.622" stroke="#1A1A1A" stroke-width="1.5" stroke-linecap="round" stroke-linejoin="round"/>
<path d="M162.767 45.4449C162.767 45.4449 159.335 40.4367 150.895 43.0336C150.895 43.0336 147.557 67.0544 149.226 69.1875C149.226 69.1875 147.093 75.4014 137.818 71.2279" stroke="#1A1A1A" stroke-width="1.5" stroke-linecap="round" stroke-linejoin="round"/>
</g>
<defs>
<clipPath id="clip0_3242_56046">
<rect width="294" height="289.363" fill="white"/>
</clipPath>
</defs>
</svg>
