<svg width="28" height="28" viewBox="0 0 28 28" fill="none" xmlns="http://www.w3.org/2000/svg">
<path d="M25.0833 7H6.12496C5.31954 7 4.66663 7.65292 4.66663 8.45833V24.5C4.66663 25.3054 5.31954 25.9583 6.12496 25.9583H25.0833C25.8887 25.9583 26.5416 25.3054 26.5416 24.5V8.45833C26.5416 7.65292 25.8887 7 25.0833 7Z" fill="#FABFA1"/>
<path d="M23.3333 5.83301H4.37496C3.56954 5.83301 2.91663 6.48593 2.91663 7.29134V23.333C2.91663 24.1384 3.56954 24.7913 4.37496 24.7913H23.3333C24.1387 24.7913 24.7916 24.1384 24.7916 23.333V7.29134C24.7916 6.48593 24.1387 5.83301 23.3333 5.83301Z" stroke="#1A1A1A" stroke-width="1.5" stroke-linecap="round" stroke-linejoin="round"/>
<path d="M2.91663 11.6665H24.7916" stroke="#1A1A1A" stroke-width="1.5" stroke-linecap="round" stroke-linejoin="round"/>
<path d="M8.75 8.02067V2.9165" stroke="#1A1A1A" stroke-width="1.5" stroke-linecap="round" stroke-linejoin="round"/>
<path d="M18.9583 8.02067V2.9165" stroke="#1A1A1A" stroke-width="1.5" stroke-linecap="round" stroke-linejoin="round"/>
</svg>
