<svg width="24" height="24" viewBox="0 0 24 24" fill="none" xmlns="http://www.w3.org/2000/svg">
<path d="M14.5609 23.7968C17.473 23.1266 20.0177 21.3527 21.6097 18.9718C22.1215 18.2064 22.5374 17.3839 22.9523 16.5633C23.3601 15.7563 23.7725 14.9358 23.925 14.0406C24.0609 13.2461 23.9864 12.4235 23.903 11.611C23.6476 9.12788 23.2272 6.47179 21.4627 4.55403C20.7975 3.83124 19.9742 3.25631 19.127 2.73753C18.0153 2.05684 16.8492 1.46236 15.6441 0.961622C14.0351 0.292964 12.2706 -0.213793 10.5982 0.0904615C9.88539 0.219782 9.2171 0.49296 8.5778 0.803229C5.35182 2.37012 2.73015 4.96856 1.20863 8.10584C0.136964 10.3163 -0.390869 12.8892 0.334902 15.3137C1.11666 17.9247 2.65217 20.0876 4.93295 21.7447C7.21423 23.4018 11.6488 24.4669 14.5609 23.7968Z" fill="#70B394"/>
<path d="M16.2188 7.78101L10.5592 15.8656C10.4846 15.9729 10.3855 16.0609 10.2701 16.1224C10.1548 16.1839 10.0264 16.2171 9.89573 16.2193C9.76502 16.2214 9.63567 16.1925 9.51834 16.1349C9.40101 16.0772 9.29905 15.9925 9.22088 15.8878L7.78125 13.9685" stroke="white" stroke-width="2.5" stroke-linecap="round" stroke-linejoin="round"/>
</svg>
