<svg width="139" height="207" viewBox="0 0 139 207" fill="none" xmlns="http://www.w3.org/2000/svg">
<path d="M42.4 55.5001C44.9 58.8001 49.9 58.1001 50.9 56.4001C53.6 56.7001 54.4 56.5001 55.4 55.9001C56.3 55.0001 58.5 53.4001 57.7 51.4001C55.9 46.4001 57.6 44.6001 56.4 41.1001C48.2 32.6001 46 26.2001 45.3 25.7001C44.9 25.4001 49.1 25.1001 49.3 22.1001C46.9 22.1001 42.9 22.2001 42.3 14.4001C44 11.2001 44.9 7.5001 43.7 4.6001C42.9 2.6001 38.3 8.40009 37.9 8.20009C31 4.50009 28.3 10.9001 28.1 9.80009C27.9 8.90009 26.5 1.70008 24.7 1.90008C20.5 2.50008 17 11.1001 17.3 12.4001C17.4 12.9001 7.80003 17.3001 3.30003 33.2001C0.800031 42.1001 1.90003 61.1001 2.50003 67.6001C2.60003 68.2001 3.90003 76.4001 3.60003 77.8001C3.30003 79.1001 1.20003 89.7001 3.40003 104.2C5.70003 118.7 9.80003 125.8 10.6 126.5C11.1 127 9.50003 130.4 9.50003 132.5C9.50003 134.6 11.8 142 15.5 152.6C16.4 155.2 14 154.7 17.5 163.3C17.7 163.9 18.1 170.3 19.2 173.6C20.2 176.5 24.4 178.1 25.1 180.9C25.6 183 27.8 183.3 23.9 195.8C22.5 200.3 29.7 197.2 30.8 195.1C32.3 192.3 30.7 190.8 31.4 189.2C34.2 183.2 34.3 180.3 32 173.4C30.5 169 30.3 152.4 30.4 150.7C30.5 149 30 134.6 30.4 134.5C43 127.5 48.3 124.3 50 123.2C51.4 122.3 53.9 125.6 73.4 120.2C80.3 124.7 86.1 127.9 89 131.9C90 133.4 83 161.7 83.7 167.4C84.5 173.1 84.7 173.1 86.5 176.3C87 177.1 92.5 174.5 91.9 169.6C91.8 169.1 89.6 168.3 89.5 166.6C89.5 166.4 90.2 165.4 90.8 163.3C91.5 160.8 90.4 158.8 90.5 157.7C92.6 152.3 98.6 138 99.3 135.4C100 132.8 100.3 129.3 100 128.4C98.7 124.9 96.5 123.7 97.9 124.2C99.3 124.7 101.1 125.4 101.1 125.4C101.8 125.4 103.6 148.5 103.3 165.6C103.1 177.9 101.8 183.8 100.9 187.8C102.4 189.3 107.3 189.3 107.9 185.4C108.5 181.3 108.2 176.4 109.4 170.5C111.6 159.2 115.6 146.4 116.4 143.8C118.1 138.4 119.6 130.5 120.5 129.6C122.8 127.1 122.2 115.1 122.1 112C122 108.8 119.3 101.4 118 98.5001C117.2 96.7001 112.2 87.7001 111.1 86.0001C108.9 82.7001 103.3 79.5001 100.3 76.9001C99.4 76.1001 91.8 73.1001 85.7 72.6001C81.1 72.2001 62 73.1001 51.7 68.5001C45.7 65.9001 42 63.0001 41.2 62.3001C39.2 60.4001 35.9 50.4001 35.9 47.2001C36.6 47.5001 37.6 48.2001 39.2 50.1001C40.2 51.6001 40.7 53.9001 42.4 55.5001Z" fill="white"/>
<path d="M17.6 12.9C17.7 12.2 -4 21.7 2.1 64.8C3.9 77.8 0.2 49.7 9.1 34.3C17.9 18.9 17.2 14.8 17.6 12.9Z" fill="#1A1A1A"/>
<path d="M28.0001 10C28.3001 9.60003 34.8001 2.00003 41.3001 12C43.9001 16.3 41.8001 18 45.4001 20.8C47.6001 22.5 49.3001 21.6 49.3001 21.6C49.3001 21.6 48.5001 27.1 39.4001 25.4C36.3001 24.8 34.2001 19.5 31.5001 17.3C28.2001 14.6 27.6001 10.5 28.0001 10Z" fill="#1A1A1A"/>
<path d="M99.6001 75.9C99.6001 75.9 99.9001 64.4 108.2 63.5C114.9 62.7 115.3 68.9 121 68.2C126.7 67.5 129.7 60.3 131.2 56.5C131.6 55.4 132.3 57.2 132.5 56.9C133.9 53.8 132.6 53.3 133.9 52.9C135.1 53.1 143.4 67 134.3 80.5C126.9 91.5 115.7 82.5 112.3 79.2C110.9 77.9 108.8 80.4 108.3 83.1C105 80.7 99.6001 75.9 99.6001 75.9Z" fill="#1A1A1A"/>
<path d="M56.3999 70.1001C56.3999 70.1001 60.9999 79.0001 62.7999 89.3001C63.7999 95.4001 71.5999 105.2 81.1999 101.7C92.0999 97.8001 88.1999 78.6001 83.5999 72.1001C83.5999 72.1001 62.8999 73.7001 56.3999 70.1001Z" fill="#FABFA1"/>
<path d="M18.6001 172.8C18.6001 172.8 19.8001 180.6 22.3001 181C24.9001 181.4 27.8001 179.9 29.5001 175.7C31.2001 171.5 27.2001 167.6 26.9001 167.5C26.6001 167.3 23.6001 179.1 18.6001 172.8Z" fill="#1A1A1A"/>
<path d="M86 175.7C86 175.7 88.5 182.3 90.1 181.9C91.6 181.5 97.3 178.7 94.5 171.4L92.4 169.6C92.3 169.6 90.1 177.3 86 175.7Z" fill="#1A1A1A"/>
<path d="M3.69987 77.2001C3.69987 77.2001 -3.10012 95.6001 10.3999 127.2" stroke="#1A1A1A" stroke-width="1.5" stroke-linecap="round" stroke-linejoin="round"/>
<path d="M27.9001 9.80003C26.7001 4.80003 26.0001 2.00003 24.8001 1.70003C23.1001 1.60003 19.5001 6.80003 17.6001 11.9C14.0001 17 -8.49992 24 5.90008 86.8" stroke="#1A1A1A" stroke-width="1.5" stroke-linecap="round" stroke-linejoin="round"/>
<path d="M24.0998 4.80004C22.8998 6.40004 20.1998 10.6 20.8998 14.7C20.8998 14.9 21.0998 15 21.2998 15C22.3998 14.9 25.1998 13.6 25.9998 12.5C25.9998 12.4 26.0998 12.4 26.0998 12.3C26.2998 10.3 25.2998 6.50003 24.8998 4.90003C24.6998 4.60003 24.2998 4.50004 24.0998 4.80004Z" stroke="#1A1A1A" stroke-width="1.5" stroke-linecap="round" stroke-linejoin="round"/>
<path d="M29.3 8.50008C32.8 6.00008 37 7.40009 38.6 8.60009C41.8 11.2001 42.2 13.8001 43.3 17.9001C43.8 21.8001 48 22.4001 49.5 21.5001C49.5 21.5001 49.9 25.4001 42.9 26.0001C39.4 26.3001 38 25.2001 35.9 22.8001C34.7 21.5001 34 18.9001 31.8 17.4001C28.7 15.3001 25.8 11.0001 29.3 8.50008Z" stroke="#1A1A1A" stroke-width="1.5" stroke-linecap="round" stroke-linejoin="round"/>
<path d="M38.6001 8.00006C38.6001 8.00006 42.1001 4.10006 42.9001 4.00006C43.7001 3.90006 45.8001 6.40006 42.3001 13.8001" stroke="#1A1A1A" stroke-width="1.5" stroke-linecap="round" stroke-linejoin="round"/>
<path d="M45.2 25.9C45.2 25.9 47.4 31.5 55.7 40.3C56.9 41.4 57 43.3 57 43.7C56.8 46.8 56.7 49 57.9 51.3C58.6 52.6 55.9 55.8 55.2 56.1C53.9 56.6 43.8 58 42.5 49.9" stroke="#1A1A1A" stroke-width="1.5" stroke-linecap="round" stroke-linejoin="round"/>
<path d="M49.9999 47.9C49.3999 48.7 46.1999 45.6 47.1999 44.7C48.2999 43.7 50.2999 47.5 49.9999 47.9Z" stroke="#1A1A1A" stroke-width="1.5" stroke-linecap="round" stroke-linejoin="round"/>
<path d="M24 33.3C23.2 35.2 20.4 45.2 34 46C34 46 38.1 48.2001 39.1 50.1001C40.1 52.0001 40.6 54 43.5 56.4C46.4 58.8 48.3 58.5 50.5 57" stroke="#1A1A1A" stroke-width="1.5" stroke-linecap="round" stroke-linejoin="round"/>
<path d="M17.8 11.8C17.8 11.8 17.8 15.7 16.7 18.7C15.6 21.7 11.1 31.6 7.5 37.7C3.9 43.9 2.7 63.5 2.5 68" stroke="#1A1A1A" stroke-width="1.5" stroke-linecap="round" stroke-linejoin="round"/>
<path d="M33.5002 31.8C33.1002 31 33.2002 30 33.7002 29.6C34.2002 29.2 34.9002 29.5 35.3002 30.3C35.7002 31.1 35.6002 32.1 35.1002 32.5C34.6002 32.9 33.9002 32.6 33.5002 31.8Z" fill="#1A1A1A"/>
<path d="M35.2998 46.9C35.2998 46.9 36.4998 59.4 46.8998 70.6" stroke="#1A1A1A" stroke-width="1.5" stroke-linecap="round" stroke-linejoin="round"/>
<path d="M37.5001 107.5C30.2909 112.934 12.6491 121.653 9.50017 131.1C8.60017 134 15.3002 153.2 15.3002 153.2C15.3002 153.2 14.4002 160.5 17.6002 163.7C17.6002 163.7 18.7002 176.1 19.7002 178.3C20.8002 180.5 22.4002 182 24.8002 180.8C27.7002 179.6 30.0002 175.8 30.0002 173.7C29.8002 171.2 29.3002 170.2 25.1002 165.5L25.0002 164C25.0002 164 26.9002 161.3 24.2002 156.5C23.8002 155.4 22.1002 145.9 22.1002 143.4C23.3002 140.9 25.1002 137.2 25.1002 137.2C25.1002 137.2 35.0001 133 53.6002 120.3" stroke="#1A1A1A" stroke-width="1.5" stroke-linecap="round" stroke-linejoin="round"/>
<path d="M49.5 123.5C49.5 123.5 60.4 125.5 83.4 116.5" stroke="#1A1A1A" stroke-width="1.5" stroke-linecap="round" stroke-linejoin="round"/>
<path d="M21.7 117.3C21.7 117.3 15.1 112.2 12 103" stroke="#1A1A1A" stroke-width="1.5" stroke-linecap="round" stroke-linejoin="round"/>
<path d="M40.2002 61.2001C40.2002 61.2001 44.3002 65.8001 53.6002 69.2001C64.4002 73.1001 81.0002 72.1001 84.0002 72.1001C87.0002 72.0001 97.4002 74.2001 101 77.3001C107.5 82.7001 109.2 83.3001 111.3 86.1001C112.5 87.8001 119.4 99.7001 121.5 107.7C122.6 114.7 121.7 125.3 121 128.3C120.4 131.1 116.5 143.9 116 144.6" stroke="#1A1A1A" stroke-width="1.5" stroke-linecap="round" stroke-linejoin="round"/>
<path d="M81.5 114C81.5 114 85 121.8 105.5 126.1" stroke="#1A1A1A" stroke-width="1.5" stroke-linecap="round" stroke-linejoin="round"/>
<path d="M101 125.2C101 125.2 102.7 159.4 102.7 164.7" stroke="#1A1A1A" stroke-width="1.5" stroke-linecap="round" stroke-linejoin="round"/>
<path d="M102.7 165C102.7 165 102.6 168 102.2 170.2C101.8 172.4 101.8 174.2 102.1 176.6C102.4 179 101.3 184.9 100.9 186.6C100.5 188.3 99.1 192.5 99.1 192.5C99.1 192.5 98.9 195.9 101.4 196.5C103.9 197.1 108.6 194.7 109.5 191.9C110.2 189.7 108.5 185.8 108.3 184.8C108.1 183.8 108.4 179.8 108.4 179.8C108.4 179.8 111.2 177.1 109.1 170.8L115.7 145.1" stroke="#1A1A1A" stroke-width="1.5" stroke-linecap="round" stroke-linejoin="round"/>
<path d="M99.8 76.2C99.8 76.2 99.7 67.8 104.2 65C108.7 62.2 112.4 63.4 113.7 64.5C115 65.5 119.7 70.3 123.7 67.1C127.7 63.9 129.5 61.6 130.2 58.8C131 56 131.5 55.2 132.5 57.1C132.5 57.1 132.7 52.8 133.7 52.7C134.7 52.6 137.5 58 137.9 64.1C138.3 70.2 138.6 78.7 131.3 83.8C125.3 88.1 118.6 85.1 115.5 81.7C112.4 78.3 110.5 76.9 108.6 82.8" stroke="#1A1A1A" stroke-width="1.5" stroke-linecap="round" stroke-linejoin="round"/>
<path d="M30.5001 134.5C30.5001 134.5 29.9001 165.7 32.2001 175C32.9001 178 33.7001 178.7 33.8001 181.9C33.9001 185 31.4001 188.5 31.4001 188.5C31.4001 188.5 30.7001 191.6 31.6001 193.4C33.0001 196.1 33.8001 200.4 32.8001 201.8C31.8001 203.2 28.1001 205.3 25.4001 205.3C22.7001 205.3 21.8001 204 21.7001 202.8C21.6001 201.6 24.2001 194.1 24.2001 194.1C24.2001 194.1 26.4001 188.3 26.1001 185.6C25.9001 182.8 25.0001 181 25.0001 181" stroke="#1A1A1A" stroke-width="1.5" stroke-linecap="round" stroke-linejoin="round"/>
<path d="M74 120.1C74 120.1 85.4 128 87.6 129.9C89.7 131.8 89.4 132.6 89 135.1C88.5 137.6 83.2 159.5 83.5 165.8C83.7 172.1 88.2 179.8 88.9 181.2C89.6 182.7 91.2 181.6 91.8 181.3C92.4 181 94.6 179.1 95.2 176.5C95.9 173.9 95.1 171.4 93.9 170.6C92.7 169.7 91.2 168.6 89.9 167.8C89.2 167.4 89.5 165.7 89.5 165.7C89.5 165.7 92 163.5 90.8 158.9C90.8 151.7 99.4 136.8 100 133.6C100.6 130.4 100.6 129.1 100.1 128.2C99.6 127.3 98.2 125.5 97.1 123.9" stroke="#1A1A1A" stroke-width="1.5" stroke-linecap="round" stroke-linejoin="round"/>
<path d="M18.7998 172.6C18.7998 172.6 20.9998 176.4 24.1998 173.1C27.3998 169.8 26.4998 167.5 26.4998 167.5" stroke="#1A1A1A" stroke-width="1.5" stroke-linecap="round" stroke-linejoin="round"/>
<path d="M86.2998 175.8C86.2998 175.8 90.6998 176.8 92.0998 169.5" stroke="#1A1A1A" stroke-width="1.5" stroke-linecap="round" stroke-linejoin="round"/>
<path d="M52.0998 68.2C52.0998 68.2 51.4998 65 52.2998 64.4C52.8998 63.9 53.7998 63.8 54.2998 64.4C54.4998 64.6 54.5998 64.9 54.5998 65.2C54.7998 66.7 54.0998 69.2 54.0998 69.2L52.0998 68.2Z" stroke="#1A1A1A" stroke-width="1.5" stroke-linecap="round" stroke-linejoin="round"/>
<path d="M53.7002 69.4C53.7002 69.4 58.4002 78.7 60.3002 88C63.3002 102.7 76.0002 101.5 76.0002 101.5C76.0002 101.5 94.6002 100.4 82.5002 72.1" stroke="#1A1A1A" stroke-width="1.5" stroke-linecap="round" stroke-linejoin="round"/>
<path d="M59.5 71C59.5 71 64.2 80.8 65.1 86.9C66.4 95.9 78.8 101.6 81.2 89.4C82.6 82.5 77 72.2 77 72.2" stroke="#1A1A1A" stroke-width="1.5" stroke-linecap="round" stroke-linejoin="round"/>
<path d="M76.2002 72.4C76.2002 72.4 70.7002 84.7 66.2002 90" stroke="#1A1A1A" stroke-width="1.5" stroke-linecap="round" stroke-linejoin="round"/>
<path d="M79.0001 77.1001C79.0001 77.1001 76.5001 86.3001 69.1001 94.1001" stroke="#1A1A1A" stroke-width="1.5" stroke-linecap="round" stroke-linejoin="round"/>
<path d="M81.1998 84.8C81.1998 84.8 78.9998 91.9001 73.2998 96.1001" stroke="#1A1A1A" stroke-width="1.5" stroke-linecap="round" stroke-linejoin="round"/>
<path d="M64.2998 83.0001C64.2998 83.0001 68.8998 75.7001 70.2998 72.2001" stroke="#1A1A1A" stroke-width="1.5" stroke-linecap="round" stroke-linejoin="round"/>
<path d="M62 76.4001C62 76.4001 64.6 72.9001 65.1 71.6001" stroke="#1A1A1A" stroke-width="1.5" stroke-linecap="round" stroke-linejoin="round"/>
<path d="M65 86.1001L76.2 95.7001" stroke="#1A1A1A" stroke-width="1.5" stroke-linecap="round" stroke-linejoin="round"/>
<path d="M63.1001 79.3L79.8001 93.0001" stroke="#1A1A1A" stroke-width="1.5" stroke-linecap="round" stroke-linejoin="round"/>
<path d="M60.7002 71.2001L81.3002 87.6001" stroke="#1A1A1A" stroke-width="1.5" stroke-linecap="round" stroke-linejoin="round"/>
<path d="M69.1001 72.1001L80.4001 81.0001" stroke="#1A1A1A" stroke-width="1.5" stroke-linecap="round" stroke-linejoin="round"/>
<path d="M52.2002 68.3001L54.2002 69.2001L54.6002 65.3001L53.9002 64.1001L52.2002 64.4001V68.3001Z" fill="#1A1A1A"/>
</svg>
