<svg width="344" height="66" viewBox="0 0 344 66" fill="none" xmlns="http://www.w3.org/2000/svg">
<path d="M3.00005 16.8079C3.00004 7.6623 10.6342 0.374846 19.7692 0.816108C55.9041 2.5616 138.989 6.5 153 6.5C171 6.5 198.059 6.5 232 6.5C258.102 6.5 285 6.13741 294.5 6.13741C300.317 6.13741 315.32 6.6483 326.079 7.04442C333.155 7.30499 339.218 12.2028 340.734 19.1203C342.104 25.3714 343.48 32.4991 343.5 36C343.54 43 346.873 65.4588 323 64.5C302.926 63.6938 249 64.9452 239.5 65.5C230 66.0548 152.465 64.6312 101.899 62.6643C57.5778 60.9402 33.1877 60.1504 19.8984 59.7909C11.296 59.5582 4.05786 52.7027 3.5893 44.11C3.27488 38.3439 3 32.5685 3.00002 30C3.00005 27.5941 3.00005 22.2942 3.00005 16.8079Z" fill="#FABFA1"/>
<rect x="0.75" y="3.75" width="340.5" height="58.5" rx="15.25" stroke="#1A1A1A" stroke-width="1.5"/>
<path d="M137.262 38.15C136.372 38.15 135.617 37.985 134.997 37.655C134.387 37.325 133.917 36.86 133.587 36.26C133.267 35.66 133.087 34.955 133.047 34.145C133.037 33.705 133.032 33.24 133.032 32.75C133.032 32.25 133.037 31.775 133.047 31.325C133.087 30.515 133.267 29.815 133.587 29.225C133.917 28.625 134.392 28.165 135.012 27.845C135.632 27.515 136.382 27.35 137.262 27.35C137.962 27.35 138.572 27.45 139.092 27.65C139.612 27.85 140.037 28.105 140.367 28.415C140.707 28.715 140.957 29.03 141.117 29.36C141.287 29.69 141.377 29.98 141.387 30.23C141.397 30.32 141.372 30.395 141.312 30.455C141.252 30.505 141.172 30.53 141.072 30.53H140.187C140.087 30.53 140.012 30.51 139.962 30.47C139.922 30.43 139.882 30.36 139.842 30.26C139.752 30 139.602 29.745 139.392 29.495C139.192 29.245 138.917 29.04 138.567 28.88C138.227 28.71 137.792 28.625 137.262 28.625C136.462 28.625 135.817 28.84 135.327 29.27C134.847 29.7 134.587 30.41 134.547 31.4C134.517 32.29 134.517 33.18 134.547 34.07C134.587 35.07 134.852 35.79 135.342 36.23C135.832 36.66 136.472 36.875 137.262 36.875C137.792 36.875 138.262 36.775 138.672 36.575C139.092 36.375 139.422 36.075 139.662 35.675C139.902 35.265 140.022 34.745 140.022 34.115V33.485H137.772C137.672 33.485 137.587 33.455 137.517 33.395C137.457 33.325 137.427 33.235 137.427 33.125V32.645C137.427 32.535 137.457 32.45 137.517 32.39C137.587 32.32 137.672 32.285 137.772 32.285H141.162C141.272 32.285 141.357 32.32 141.417 32.39C141.477 32.45 141.507 32.535 141.507 32.645V34.085C141.507 34.905 141.337 35.62 140.997 36.23C140.667 36.84 140.182 37.315 139.542 37.655C138.902 37.985 138.142 38.15 137.262 38.15ZM146.572 38.15C145.532 38.15 144.707 37.835 144.097 37.205C143.487 36.565 143.152 35.695 143.092 34.595C143.082 34.465 143.077 34.3 143.077 34.1C143.077 33.89 143.082 33.72 143.092 33.59C143.132 32.88 143.297 32.26 143.587 31.73C143.877 31.19 144.272 30.775 144.772 30.485C145.282 30.195 145.877 30.05 146.557 30.05C147.317 30.05 147.952 30.21 148.462 30.53C148.982 30.85 149.377 31.305 149.647 31.895C149.917 32.485 150.052 33.175 150.052 33.965V34.22C150.052 34.33 150.017 34.415 149.947 34.475C149.887 34.535 149.807 34.565 149.707 34.565H144.517C144.517 34.575 144.517 34.595 144.517 34.625C144.517 34.655 144.517 34.68 144.517 34.7C144.537 35.11 144.627 35.495 144.787 35.855C144.947 36.205 145.177 36.49 145.477 36.71C145.787 36.93 146.147 37.04 146.557 37.04C146.917 37.04 147.217 36.985 147.457 36.875C147.697 36.765 147.892 36.645 148.042 36.515C148.192 36.375 148.292 36.265 148.342 36.185C148.432 36.065 148.502 35.995 148.552 35.975C148.602 35.945 148.682 35.93 148.792 35.93H149.527C149.617 35.93 149.692 35.96 149.752 36.02C149.822 36.07 149.852 36.145 149.842 36.245C149.832 36.395 149.752 36.58 149.602 36.8C149.452 37.01 149.237 37.22 148.957 37.43C148.687 37.64 148.347 37.815 147.937 37.955C147.537 38.085 147.082 38.15 146.572 38.15ZM144.517 33.53H148.627V33.485C148.627 33.035 148.542 32.635 148.372 32.285C148.212 31.935 147.977 31.66 147.667 31.46C147.357 31.25 146.987 31.145 146.557 31.145C146.127 31.145 145.757 31.25 145.447 31.46C145.147 31.66 144.917 31.935 144.757 32.285C144.597 32.635 144.517 33.035 144.517 33.485V33.53ZM154.847 38C154.287 38 153.832 37.895 153.482 37.685C153.132 37.465 152.877 37.16 152.717 36.77C152.557 36.37 152.477 35.9 152.477 35.36V31.4H151.307C151.207 31.4 151.122 31.37 151.052 31.31C150.992 31.24 150.962 31.155 150.962 31.055V30.545C150.962 30.445 150.992 30.365 151.052 30.305C151.122 30.235 151.207 30.2 151.307 30.2H152.477V27.695C152.477 27.595 152.507 27.515 152.567 27.455C152.637 27.385 152.722 27.35 152.822 27.35H153.527C153.627 27.35 153.707 27.385 153.767 27.455C153.837 27.515 153.872 27.595 153.872 27.695V30.2H155.732C155.842 30.2 155.927 30.235 155.987 30.305C156.047 30.365 156.077 30.445 156.077 30.545V31.055C156.077 31.155 156.047 31.24 155.987 31.31C155.927 31.37 155.842 31.4 155.732 31.4H153.872V35.255C153.872 35.725 153.952 36.095 154.112 36.365C154.272 36.635 154.557 36.77 154.967 36.77H155.882C155.982 36.77 156.062 36.805 156.122 36.875C156.192 36.935 156.227 37.015 156.227 37.115V37.655C156.227 37.755 156.192 37.84 156.122 37.91C156.062 37.97 155.982 38 155.882 38H154.847ZM164.038 38.15C163.478 38.15 162.998 38.08 162.598 37.94C162.198 37.8 161.873 37.63 161.623 37.43C161.373 37.23 161.183 37.03 161.053 36.83C160.933 36.63 160.868 36.47 160.858 36.35C160.848 36.24 160.883 36.155 160.963 36.095C161.043 36.035 161.123 36.005 161.203 36.005H161.878C161.928 36.005 161.968 36.015 161.998 36.035C162.038 36.045 162.088 36.085 162.148 36.155C162.278 36.295 162.423 36.435 162.583 36.575C162.743 36.715 162.938 36.83 163.168 36.92C163.408 37.01 163.703 37.055 164.053 37.055C164.563 37.055 164.983 36.96 165.313 36.77C165.643 36.57 165.808 36.28 165.808 35.9C165.808 35.65 165.738 35.45 165.598 35.3C165.468 35.15 165.228 35.015 164.878 34.895C164.538 34.775 164.068 34.65 163.468 34.52C162.868 34.38 162.393 34.21 162.043 34.01C161.693 33.8 161.443 33.555 161.293 33.275C161.143 32.985 161.068 32.66 161.068 32.3C161.068 31.93 161.178 31.575 161.398 31.235C161.618 30.885 161.938 30.6 162.358 30.38C162.788 30.16 163.323 30.05 163.963 30.05C164.483 30.05 164.928 30.115 165.298 30.245C165.668 30.375 165.973 30.54 166.213 30.74C166.453 30.93 166.633 31.12 166.753 31.31C166.873 31.5 166.938 31.66 166.948 31.79C166.958 31.89 166.928 31.975 166.858 32.045C166.788 32.105 166.708 32.135 166.618 32.135H165.988C165.918 32.135 165.858 32.12 165.808 32.09C165.768 32.06 165.728 32.025 165.688 31.985C165.588 31.855 165.468 31.725 165.328 31.595C165.198 31.465 165.023 31.36 164.803 31.28C164.593 31.19 164.313 31.145 163.963 31.145C163.463 31.145 163.088 31.25 162.838 31.46C162.588 31.67 162.463 31.935 162.463 32.255C162.463 32.445 162.518 32.615 162.628 32.765C162.738 32.915 162.948 33.05 163.258 33.17C163.568 33.29 164.028 33.42 164.638 33.56C165.298 33.69 165.818 33.865 166.198 34.085C166.578 34.305 166.848 34.56 167.008 34.85C167.168 35.14 167.248 35.475 167.248 35.855C167.248 36.275 167.128 36.66 166.888 37.01C166.648 37.36 166.288 37.64 165.808 37.85C165.328 38.05 164.738 38.15 164.038 38.15ZM172.015 38C171.455 38 171 37.895 170.65 37.685C170.3 37.465 170.045 37.16 169.885 36.77C169.725 36.37 169.645 35.9 169.645 35.36V31.4H168.475C168.375 31.4 168.29 31.37 168.22 31.31C168.16 31.24 168.13 31.155 168.13 31.055V30.545C168.13 30.445 168.16 30.365 168.22 30.305C168.29 30.235 168.375 30.2 168.475 30.2H169.645V27.695C169.645 27.595 169.675 27.515 169.735 27.455C169.805 27.385 169.89 27.35 169.99 27.35H170.695C170.795 27.35 170.875 27.385 170.935 27.455C171.005 27.515 171.04 27.595 171.04 27.695V30.2H172.9C173.01 30.2 173.095 30.235 173.155 30.305C173.215 30.365 173.245 30.445 173.245 30.545V31.055C173.245 31.155 173.215 31.24 173.155 31.31C173.095 31.37 173.01 31.4 172.9 31.4H171.04V35.255C171.04 35.725 171.12 36.095 171.28 36.365C171.44 36.635 171.725 36.77 172.135 36.77H173.05C173.15 36.77 173.23 36.805 173.29 36.875C173.36 36.935 173.395 37.015 173.395 37.115V37.655C173.395 37.755 173.36 37.84 173.29 37.91C173.23 37.97 173.15 38 173.05 38H172.015ZM177.004 38.15C176.504 38.15 176.049 38.05 175.639 37.85C175.229 37.65 174.899 37.38 174.649 37.04C174.399 36.7 174.274 36.315 174.274 35.885C174.274 35.195 174.554 34.645 175.114 34.235C175.674 33.825 176.404 33.555 177.304 33.425L179.539 33.11V32.675C179.539 32.195 179.399 31.82 179.119 31.55C178.849 31.28 178.404 31.145 177.784 31.145C177.344 31.145 176.984 31.235 176.704 31.415C176.424 31.595 176.229 31.825 176.119 32.105C176.059 32.255 175.954 32.33 175.804 32.33H175.129C175.019 32.33 174.934 32.3 174.874 32.24C174.824 32.17 174.799 32.09 174.799 32C174.799 31.85 174.854 31.665 174.964 31.445C175.084 31.225 175.264 31.01 175.504 30.8C175.744 30.59 176.049 30.415 176.419 30.275C176.799 30.125 177.259 30.05 177.799 30.05C178.399 30.05 178.904 30.13 179.314 30.29C179.724 30.44 180.044 30.645 180.274 30.905C180.514 31.165 180.684 31.46 180.784 31.79C180.894 32.12 180.949 32.455 180.949 32.795V37.655C180.949 37.755 180.914 37.84 180.844 37.91C180.784 37.97 180.704 38 180.604 38H179.914C179.804 38 179.719 37.97 179.659 37.91C179.599 37.84 179.569 37.755 179.569 37.655V37.01C179.439 37.19 179.264 37.37 179.044 37.55C178.824 37.72 178.549 37.865 178.219 37.985C177.889 38.095 177.484 38.15 177.004 38.15ZM177.319 37.025C177.729 37.025 178.104 36.94 178.444 36.77C178.784 36.59 179.049 36.315 179.239 35.945C179.439 35.575 179.539 35.11 179.539 34.55V34.13L177.799 34.385C177.089 34.485 176.554 34.655 176.194 34.895C175.834 35.125 175.654 35.42 175.654 35.78C175.654 36.06 175.734 36.295 175.894 36.485C176.064 36.665 176.274 36.8 176.524 36.89C176.784 36.98 177.049 37.025 177.319 37.025ZM183.451 38C183.351 38 183.266 37.97 183.196 37.91C183.136 37.84 183.106 37.755 183.106 37.655V30.56C183.106 30.46 183.136 30.375 183.196 30.305C183.266 30.235 183.351 30.2 183.451 30.2H184.141C184.241 30.2 184.326 30.235 184.396 30.305C184.466 30.375 184.501 30.46 184.501 30.56V31.22C184.701 30.88 184.976 30.625 185.326 30.455C185.676 30.285 186.101 30.2 186.601 30.2H187.186C187.286 30.2 187.366 30.235 187.426 30.305C187.496 30.365 187.531 30.445 187.531 30.545V31.16C187.531 31.26 187.496 31.34 187.426 31.4C187.366 31.46 187.286 31.49 187.186 31.49H186.286C185.746 31.49 185.321 31.65 185.011 31.97C184.701 32.28 184.546 32.705 184.546 33.245V37.655C184.546 37.755 184.511 37.84 184.441 37.91C184.371 37.97 184.286 38 184.186 38H183.451ZM191.849 38C191.289 38 190.834 37.895 190.484 37.685C190.134 37.465 189.879 37.16 189.719 36.77C189.559 36.37 189.479 35.9 189.479 35.36V31.4H188.309C188.209 31.4 188.124 31.37 188.054 31.31C187.994 31.24 187.964 31.155 187.964 31.055V30.545C187.964 30.445 187.994 30.365 188.054 30.305C188.124 30.235 188.209 30.2 188.309 30.2H189.479V27.695C189.479 27.595 189.509 27.515 189.569 27.455C189.639 27.385 189.724 27.35 189.824 27.35H190.529C190.629 27.35 190.709 27.385 190.769 27.455C190.839 27.515 190.874 27.595 190.874 27.695V30.2H192.734C192.844 30.2 192.929 30.235 192.989 30.305C193.049 30.365 193.079 30.445 193.079 30.545V31.055C193.079 31.155 193.049 31.24 192.989 31.31C192.929 31.37 192.844 31.4 192.734 31.4H190.874V35.255C190.874 35.725 190.954 36.095 191.114 36.365C191.274 36.635 191.559 36.77 191.969 36.77H192.884C192.984 36.77 193.064 36.805 193.124 36.875C193.194 36.935 193.229 37.015 193.229 37.115V37.655C193.229 37.755 193.194 37.84 193.124 37.91C193.064 37.97 192.984 38 192.884 38H191.849ZM197.783 38.15C196.743 38.15 195.918 37.835 195.308 37.205C194.698 36.565 194.363 35.695 194.303 34.595C194.293 34.465 194.288 34.3 194.288 34.1C194.288 33.89 194.293 33.72 194.303 33.59C194.343 32.88 194.508 32.26 194.798 31.73C195.088 31.19 195.483 30.775 195.983 30.485C196.493 30.195 197.088 30.05 197.768 30.05C198.528 30.05 199.163 30.21 199.673 30.53C200.193 30.85 200.588 31.305 200.858 31.895C201.128 32.485 201.263 33.175 201.263 33.965V34.22C201.263 34.33 201.228 34.415 201.158 34.475C201.098 34.535 201.018 34.565 200.918 34.565H195.728C195.728 34.575 195.728 34.595 195.728 34.625C195.728 34.655 195.728 34.68 195.728 34.7C195.748 35.11 195.838 35.495 195.998 35.855C196.158 36.205 196.388 36.49 196.688 36.71C196.998 36.93 197.358 37.04 197.768 37.04C198.128 37.04 198.428 36.985 198.668 36.875C198.908 36.765 199.103 36.645 199.253 36.515C199.403 36.375 199.503 36.265 199.553 36.185C199.643 36.065 199.713 35.995 199.763 35.975C199.813 35.945 199.893 35.93 200.003 35.93H200.738C200.828 35.93 200.903 35.96 200.963 36.02C201.033 36.07 201.063 36.145 201.053 36.245C201.043 36.395 200.963 36.58 200.813 36.8C200.663 37.01 200.448 37.22 200.168 37.43C199.898 37.64 199.558 37.815 199.148 37.955C198.748 38.085 198.293 38.15 197.783 38.15ZM195.728 33.53H199.838V33.485C199.838 33.035 199.753 32.635 199.583 32.285C199.423 31.935 199.188 31.66 198.878 31.46C198.568 31.25 198.198 31.145 197.768 31.145C197.338 31.145 196.968 31.25 196.658 31.46C196.358 31.66 196.128 31.935 195.968 32.285C195.808 32.635 195.728 33.035 195.728 33.485V33.53ZM205.907 38.15C205.357 38.15 204.882 38.055 204.482 37.865C204.082 37.665 203.752 37.4 203.492 37.07C203.242 36.73 203.052 36.345 202.922 35.915C202.802 35.485 202.732 35.03 202.712 34.55C202.702 34.39 202.697 34.24 202.697 34.1C202.697 33.96 202.702 33.81 202.712 33.65C202.732 33.18 202.802 32.73 202.922 32.3C203.052 31.87 203.242 31.485 203.492 31.145C203.752 30.805 204.082 30.54 204.482 30.35C204.882 30.15 205.357 30.05 205.907 30.05C206.497 30.05 206.987 30.155 207.377 30.365C207.767 30.575 208.087 30.835 208.337 31.145V27.695C208.337 27.595 208.367 27.515 208.427 27.455C208.497 27.385 208.582 27.35 208.682 27.35H209.402C209.502 27.35 209.582 27.385 209.642 27.455C209.712 27.515 209.747 27.595 209.747 27.695V37.655C209.747 37.755 209.712 37.84 209.642 37.91C209.582 37.97 209.502 38 209.402 38H208.727C208.617 38 208.532 37.97 208.472 37.91C208.412 37.84 208.382 37.755 208.382 37.655V37.025C208.132 37.345 207.807 37.615 207.407 37.835C207.007 38.045 206.507 38.15 205.907 38.15ZM206.222 36.935C206.722 36.935 207.122 36.82 207.422 36.59C207.722 36.36 207.947 36.07 208.097 35.72C208.247 35.36 208.327 34.995 208.337 34.625C208.347 34.465 208.352 34.275 208.352 34.055C208.352 33.825 208.347 33.63 208.337 33.47C208.327 33.12 208.242 32.775 208.082 32.435C207.932 32.095 207.702 31.815 207.392 31.595C207.092 31.375 206.702 31.265 206.222 31.265C205.712 31.265 205.307 31.38 205.007 31.61C204.707 31.83 204.492 32.125 204.362 32.495C204.232 32.855 204.157 33.245 204.137 33.665C204.127 33.955 204.127 34.245 204.137 34.535C204.157 34.955 204.232 35.35 204.362 35.72C204.492 36.08 204.707 36.375 205.007 36.605C205.307 36.825 205.712 36.935 206.222 36.935Z" fill="#1A1A1A"/>
</svg>
