<svg width="60" height="60" viewBox="0 0 60 60" fill="none" xmlns="http://www.w3.org/2000/svg">
<path d="M36.4684 58.9831C43.4059 57.4831 49.4059 53.1706 53.3434 47.5456C54.4684 45.8581 55.4059 43.7956 56.5309 41.7331C57.4684 39.8581 58.4059 37.7956 58.7809 35.7331C59.1559 33.8581 58.9684 31.7956 58.7809 29.9206C58.2184 24.1081 57.2809 17.7331 52.9684 13.0456C51.4684 11.5456 49.4059 10.2331 47.3434 8.73308C44.7184 7.23308 41.9059 5.54558 39.0934 4.42058C35.1559 2.92058 31.2184 1.79558 27.0934 2.35808C25.4059 2.73308 23.9059 3.29558 22.2184 4.04558C14.5309 7.79558 8.34343 13.9831 4.78093 21.4831C2.34343 26.7331 0.843433 32.9206 2.71843 38.5456C4.59343 44.7331 8.15593 49.9831 13.5934 53.9206C19.0309 58.0456 29.3434 60.6706 36.4684 58.9831Z" fill="#FDD595"/>
<path d="M37.4062 8.5455C32.5312 8.358 26.1562 13.4205 18.4687 31.983C13.9687 43.0455 9.84375 49.0455 9.84375 49.0455C9.84375 49.0455 16.5938 55.0455 23.7187 56.358C30.8437 57.6705 35.9062 56.358 38.3437 55.0455C39.2812 54.483 42.8438 54.108 43.7812 52.0455C44.9062 49.4205 45.0937 43.608 44.9062 40.7955C44.9062 39.2955 43.9687 36.108 44.1562 34.7955C45.0937 27.858 45.8437 15.483 37.0312 11.9205C37.0312 11.9205 38.9062 10.983 39.2812 10.233C39.6562 9.483 38.9062 8.9205 37.4062 8.5455Z" fill="white"/>
<path d="M33.2812 27.6707C33.2812 27.6707 37.4063 27.4832 36.8438 22.9832C36.8438 22.9832 39.2813 24.1082 40.7813 25.2332C42.2813 26.3582 41.1563 29.1707 41.1563 29.1707C41.1563 29.1707 39.6563 27.1082 38.9063 27.6707C38.9063 27.4832 38.5313 31.7957 33.2812 27.6707Z" fill="#FDD595"/>
<path d="M30.8438 23.0156C30.8438 22.3125 31.0781 21.375 31.5469 21.375C32.0156 21.375 32.7188 21.8438 32.7188 22.7812C32.7188 23.4844 32.4844 24.4219 32.0156 24.4219C31.5469 24.4219 31.0781 23.9531 30.8438 23.0156Z" fill="#1A1A1A"/>
<path d="M38.8036 21.6077C38.5773 20.9289 38.8036 20.25 39.4825 20.25C39.935 20.25 40.3876 20.7026 40.6139 21.3814C40.8402 22.0603 40.6139 22.7391 39.935 22.7391C39.4825 22.7391 38.8036 22.2866 38.8036 21.6077Z" fill="#1A1A1A"/>
<path d="M8.90625 47.7331C8.90625 47.7331 16.5937 31.2331 17.5312 29.5456C21.0937 22.7956 25.0312 9.85814 34.7812 9.29564C41.7187 8.92064 35.9062 11.9206 35.9062 13.0456" stroke="#1A1A1A" stroke-width="1.5" stroke-linecap="round" stroke-linejoin="round"/>
<path d="M15.0938 34.7955C15.0938 34.7955 17.5312 31.4205 20.5312 33.483C23.5312 35.5455 23.5312 43.7955 23.1562 46.608C22.5937 51.6705 21.0938 55.7955 21.0938 55.7955" stroke="#1A1A1A" stroke-width="1.5" stroke-linecap="round" stroke-linejoin="round"/>
<path d="M12.0938 46.7957L13.2188 44.5457" stroke="#1A1A1A" stroke-width="1.5" stroke-linecap="round" stroke-linejoin="round"/>
<path d="M14.3438 41.9207L15.6562 39.2957" stroke="#1A1A1A" stroke-width="1.5" stroke-linecap="round" stroke-linejoin="round"/>
<path d="M15.6562 45.8582L16.7812 43.4207" stroke="#1A1A1A" stroke-width="1.5" stroke-linecap="round" stroke-linejoin="round"/>
<path d="M13.0312 50.7332L14.3437 48.2957" stroke="#1A1A1A" stroke-width="1.5" stroke-linecap="round" stroke-linejoin="round"/>
<path d="M31.4062 27.1082C31.4062 27.1082 33.6562 28.4207 35.5312 26.1707C37.4062 23.9207 37.0312 22.2332 37.0312 22.2332C37.0312 22.2332 38.1562 24.1082 39.8437 24.4832C40.7812 24.6707 41.9062 26.3582 40.5937 30.1082C40.5937 30.1082 40.4062 27.4832 38.5312 27.4832C36.6562 27.6707 33.6562 29.1707 31.4062 27.1082Z" stroke="#1A1A1A" stroke-width="1.5" stroke-linecap="round" stroke-linejoin="round"/>
<path d="M34.2188 28.4207C34.2188 28.4207 38.1562 31.7957 39.6562 28.7957" stroke="#1A1A1A" stroke-width="1.5" stroke-linecap="round" stroke-linejoin="round"/>
<path d="M43.0312 35.7331C43.0312 35.7331 44.5312 46.2331 42.2812 53.3581C42.0937 54.1081 39.8437 55.0456 39.0937 55.2331L35.9062 55.9831C39.6562 53.3581 41.7187 44.3581 42.4687 39.8581C43.2187 35.3581 43.9687 24.8581 41.5312 18.6706C38.9062 12.4831 33.4688 13.4206 33.4688 13.4206" stroke="#1A1A1A" stroke-width="1.5" stroke-linecap="round" stroke-linejoin="round"/>
<path d="M23.5312 41.9207C23.5312 41.9207 23.5313 53.1707 21.2812 55.7957C21.2812 55.7957 22.0313 56.3582 22.7813 56.1707C22.5938 55.9832 25.2188 48.6707 23.5312 41.9207Z" fill="#1A1A1A"/>
<path d="M37.9688 46.4207C38.9062 43.9832 39.0937 42.6707 39.0937 42.6707" stroke="#1A1A1A" stroke-width="1.5" stroke-linecap="round" stroke-linejoin="round"/>
<path d="M35.3438 52.4207C35.9063 51.4832 36.2812 50.1707 36.8437 49.0457" stroke="#1A1A1A" stroke-width="1.5" stroke-linecap="round" stroke-linejoin="round"/>
<path d="M31.7812 53.5457C32.3437 52.4207 32.7188 51.8582 33.0938 50.9207" stroke="#1A1A1A" stroke-width="1.5" stroke-linecap="round" stroke-linejoin="round"/>
<path d="M34.4062 47.7332C34.7813 46.6082 35.1562 46.2332 35.3438 45.1082" stroke="#1A1A1A" stroke-width="1.5" stroke-linecap="round" stroke-linejoin="round"/>
<path d="M33.0938 56.7332C33.6563 55.7957 33.2812 56.1707 33.8437 55.2332" stroke="#1A1A1A" stroke-width="1.5" stroke-linecap="round" stroke-linejoin="round"/>
</svg>
