<svg width="121" height="124" viewBox="0 0 121 124" fill="none" xmlns="http://www.w3.org/2000/svg">
<path d="M73.8383 122.999C88.1747 119.7 100.702 110.967 108.54 99.2458C111.06 95.4777 113.107 91.4282 115.15 87.3887C117.158 83.4157 119.188 79.3762 119.938 74.9689C120.608 71.0577 120.241 67.0083 119.83 63.0082C118.573 50.7834 116.503 37.7073 107.817 28.266C104.541 24.7077 100.488 21.8773 96.3174 19.3232C90.8447 15.9722 85.1037 13.0455 79.1708 10.5803C71.2496 7.28847 62.5631 4.79367 54.3294 6.29154C50.8204 6.9282 47.5303 8.27307 44.383 9.80055C28.5012 17.5145 15.5945 30.3068 8.10397 45.7519C2.82809 56.6342 0.229528 69.3007 3.80256 81.2368C7.65119 94.0908 15.2107 104.739 26.4391 112.897C37.67 121.055 59.5019 126.299 73.8383 122.999Z" fill="#FABFA1"/>
<circle cx="59.9999" cy="60.0001" r="57.2308" stroke="#1A1A1A" stroke-width="4"/>
<path d="M45.9366 58.0814C48.0603 55.9724 50.766 55.0308 53.7115 54.449C56.6571 53.8672 59.7102 54.1659 62.4848 55.3074C65.2594 56.4489 67.6309 58.6176 69.2994 61.0977C70.9678 63.5777 71.8584 66.2578 71.8584 69.2405C71.8584 72.2232 71.3183 74.9724 69.2994 76.7821C67.2805 78.5918 65.2594 81.6731 62.4848 82.8146C59.7102 83.9561 56.6571 84.6138 53.7115 84.032C50.766 83.4502 48.7527 81.3041 46.6291 79.1951C45.2189 77.7947 43.4078 76.8419 42.6447 75.0121C41.8815 73.1823 41.7699 71.2211 41.7699 69.2405C41.7699 67.2599 41.8815 65.2987 42.6447 63.4689C43.4078 61.6391 44.5265 59.4819 45.9366 58.0814Z" fill="white"/>
<path d="M62.6365 60.3508C62.6365 60.3508 69.7128 52.7431 71.6554 51.3319C73.598 49.9207 78.0217 44.4351 78.0217 44.4351" fill="white"/>
<path d="M62.6365 60.3508C62.6365 60.3508 69.7128 52.7431 71.6554 51.3319C73.598 49.9207 78.0217 44.4351 78.0217 44.4351" stroke="white" stroke-width="4" stroke-linecap="round" stroke-linejoin="round"/>
<path d="M66.8807 42.8435C66.5767 41.5172 77.2064 41.5172 78.0217 42.313C78.8369 43.1088 78.5522 46.9551 78.5522 48.6793C78.5522 50.4035 79.6133 55.5761 78.0217 55.5761" stroke="white" stroke-width="4" stroke-linecap="round" stroke-linejoin="round"/>
<path d="M54.6018 80.0884C62.6661 80.0884 69.2035 73.551 69.2035 65.4867C69.2035 57.4223 62.6661 50.8849 54.6018 50.8849C46.5374 50.8849 40 57.4223 40 65.4867C40 73.551 46.5374 80.0884 54.6018 80.0884Z" stroke="#1A1A1A" stroke-width="4" stroke-miterlimit="10" stroke-linecap="round" stroke-linejoin="round"/>
<path d="M78.0531 42.0354L66.1947 53.8938" stroke="#1A1A1A" stroke-width="4" stroke-miterlimit="10" stroke-linecap="round" stroke-linejoin="round"/>
<path d="M66.0177 40L77.7876 40.9735C78.4071 41.0619 79.0266 41.5929 79.0266 42.2124L80 54.0708" stroke="#1A1A1A" stroke-width="4" stroke-miterlimit="10" stroke-linecap="round" stroke-linejoin="round"/>
</svg>
