<svg width="67" height="69" viewBox="0 0 67 69" fill="none" xmlns="http://www.w3.org/2000/svg">
<path d="M40.784 68.4372C48.8482 66.5813 55.8951 61.669 60.3037 55.0757C61.7211 52.9562 62.8727 50.6783 64.0216 48.4061C65.1511 46.1713 66.293 43.8991 66.7152 41.42C67.0917 39.2199 66.8854 36.9421 66.6543 34.6921C65.947 27.8156 64.7829 20.4603 59.8967 15.1496C58.0544 13.148 55.7746 11.5559 53.4284 10.1193C50.35 8.23431 47.1207 6.58808 43.7835 5.20141C39.3278 3.34974 34.4417 1.94641 29.8102 2.78896C27.8364 3.14708 25.9857 3.90357 24.2153 4.76278C15.2819 9.10185 8.02183 16.2975 3.80839 24.9854C0.840711 31.1067 -0.620982 38.2316 1.38885 44.9457C3.5537 52.1761 7.8059 58.1655 14.1219 62.7545C20.4393 67.3434 32.7197 70.293 40.784 68.4372Z" fill="#70B394"/>
<circle cx="32.9999" cy="33" r="32.1923" stroke="#1A1A1A" stroke-width="1.5"/>
<path d="M45.6562 20.3427L28.6777 44.5965C28.4537 44.9184 28.1564 45.1825 27.8103 45.3669C27.4643 45.5514 27.0793 45.651 26.6872 45.6574C26.2951 45.6639 25.907 45.5771 25.555 45.4042C25.203 45.2313 24.8972 44.9772 24.6626 44.6629L20.3438 38.9052" stroke="white" stroke-width="4" stroke-linecap="round" stroke-linejoin="round"/>
</svg>
