<svg width="121" height="124" viewBox="0 0 121 124" fill="none" xmlns="http://www.w3.org/2000/svg">
<path d="M73.8384 122.999C88.1748 119.7 100.703 110.967 108.54 99.2458C111.06 95.4777 113.107 91.4282 115.15 87.3887C117.158 83.4157 119.188 79.3762 119.938 74.9689C120.608 71.0577 120.241 67.0083 119.83 63.0082C118.573 50.7834 116.503 37.7073 107.817 28.266C104.541 24.7077 100.488 21.8773 96.3175 19.3232C90.8447 15.9722 85.1038 13.0455 79.1709 10.5803C71.2497 7.28847 62.5632 4.79367 54.3295 6.29154C50.8204 6.9282 47.5304 8.27307 44.3831 9.80055C28.5013 17.5145 15.5946 30.3068 8.10403 45.7519C2.82815 56.6342 0.229589 69.3007 3.80262 81.2368C7.65125 94.0908 15.2107 104.739 26.4392 112.897C37.6701 121.055 59.502 126.299 73.8384 122.999Z" fill="#FABFA1"/>
<circle cx="60" cy="60.0001" r="57.2308" stroke="#1A1A1A" stroke-width="4"/>
<path d="M63.6001 69.8999C63.6001 69.8999 63.0001 75.5999 63.0001 77.3999C63.0001 79.1999 63.6001 84.8999 63.6001 84.8999" fill="white"/>
<path d="M63.6001 69.8999C63.6001 69.8999 63.0001 75.5999 63.0001 77.3999C63.0001 79.1999 63.6001 84.8999 63.6001 84.8999" stroke="white" stroke-width="2.5" stroke-linecap="round" stroke-linejoin="round"/>
<path d="M57.6 78.9C57.6 78.9 60.6 78 63 78C65.4 78 68.4 78 68.4 78" fill="white"/>
<path d="M57.6 78.9C57.6 78.9 60.6 78 63 78C65.4 78 68.4 78 68.4 78" stroke="white" stroke-width="2.5" stroke-linecap="round" stroke-linejoin="round"/>
<path d="M48.6 54.8999C48.6 58.8782 50.1804 61.9869 52.9934 64.7999C55.8065 67.6129 59.6218 69.8999 63.6 69.8999C67.5783 69.8999 70.987 67.6129 73.8 64.7999C76.6131 61.9869 78.6 58.8782 78.6 54.8999C78.6 50.9217 77.8131 46.0129 75 43.1999C72.187 40.3869 67.5783 39.8999 63.6 39.8999C59.6218 39.8999 55.8065 40.3869 52.9934 43.1999C50.1804 46.0129 48.6 50.9217 48.6 54.8999Z" fill="white"/>
<path d="M60 67.5V82.5" stroke="#1A1A1A" stroke-width="4" stroke-linecap="round" stroke-linejoin="round"/>
<path d="M54 76.5H66" stroke="#1A1A1A" stroke-width="4" stroke-linecap="round" stroke-linejoin="round"/>
<path d="M45 52.5C45 56.4782 46.5804 60.2936 49.3934 63.1066C52.2064 65.9196 56.0218 67.5 60 67.5C63.9782 67.5 67.7936 65.9196 70.6066 63.1066C73.4197 60.2936 75 56.4782 75 52.5C75 48.5218 73.4197 44.7064 70.6066 41.8934C67.7936 39.0804 63.9782 37.5 60 37.5C56.0218 37.5 52.2064 39.0804 49.3934 41.8934C46.5804 44.7064 45 48.5218 45 52.5V52.5Z" stroke="#1A1A1A" stroke-width="4" stroke-linecap="round" stroke-linejoin="round"/>
</svg>
