<svg width="52" height="52" viewBox="0 0 52 52" fill="none" xmlns="http://www.w3.org/2000/svg">
<path d="M31.6218 51.5935C37.446 50.2532 42.5354 46.7054 45.7194 41.9436C46.7431 40.4128 47.5748 38.7677 48.4045 37.1266C49.2203 35.5126 50.045 33.8716 50.3499 32.0811C50.6218 30.4922 50.4729 28.8471 50.306 27.2221C49.7951 22.2558 48.9544 16.9436 45.4255 13.1081C44.0949 11.6625 42.4484 10.5126 40.754 9.47505C38.5307 8.11368 36.1984 6.92473 33.7882 5.92324C30.5702 4.58593 27.0413 3.57241 23.6963 4.18092C22.2708 4.43956 20.9342 4.98592 19.6556 5.60646C13.2036 8.74023 7.96029 13.9371 4.91725 20.2117C2.77393 24.6326 1.71826 29.7784 3.1698 34.6274C4.73331 39.8494 7.80434 44.1751 12.3659 47.4893C16.9285 50.8036 25.7977 52.9338 31.6218 51.5935Z" fill="#FABFA1"/>
<circle cx="26" cy="26" r="23.25" stroke="#1A1A1A" stroke-width="2"/>
</svg>
