<svg width="106" height="135" viewBox="0 0 106 135" fill="none" xmlns="http://www.w3.org/2000/svg">
<path d="M97.9001 42.3L3.30007 106.8C3.30007 106.8 -1.79994 111.7 2.40006 118.7C6.60006 125.7 9.80007 123.9 34.4001 106.1C58.9001 88.4 102.4 49.6 102.4 49.6C102.4 49.6 103.8 46.7 103.2 44.4C102.7 43.1 101.9 41.4 97.9001 42.3Z" fill="#FABFA1"/>
<path d="M15.0005 114.2C27.5005 109.5 29.3005 101.5 44.1005 96.6001" stroke="#1A1A1A" stroke-width="1.5" stroke-miterlimit="10" stroke-linecap="round"/>
<path d="M11.1001 108.1C14.6001 107 16.1001 102.4 30.4001 95.7001" stroke="#1A1A1A" stroke-width="1.5" stroke-miterlimit="10" stroke-linecap="round"/>
<path d="M18.1001 108.4C19.8001 107.3 27.2001 99.7 36.1001 96.3C50.4001 90.8 55.7001 87.4 56.3001 87" stroke="#1A1A1A" stroke-width="1.5" stroke-miterlimit="10" stroke-linecap="round"/>
<path d="M71.8003 65.9C71.8003 65.9 65.2003 70.6 60.6003 74.1C58.4003 75.5 56.7003 73.8 52.2003 76.9C48.2003 79.7 46.9003 82.9 43.6003 86.4C40.4003 89.9 38.3003 91.2 33.3003 93.9" stroke="#1A1A1A" stroke-width="1.5" stroke-miterlimit="10" stroke-linecap="round"/>
<path d="M54.1004 81.8C61.1004 75.5 55.5004 76.2001 51.9004 80.4001C48.9004 83.9001 48.4004 85.5 49.0004 86.3C49.5004 87.1 53.6004 86.7001 58.9004 80.6001C63.0004 75.7001 64.1004 74.1001 69.7004 70.7001" stroke="#1A1A1A" stroke-width="1.5" stroke-miterlimit="10" stroke-linecap="round"/>
<path d="M88.9001 58.6001L77.5001 67.6001C71.4001 72.4001 66.4001 76.6001 65.9001 77.5001C63.8001 81.6001 59.1001 85.2001 59.1001 85.2001" stroke="#1A1A1A" stroke-width="1.5" stroke-miterlimit="10" stroke-linecap="round"/>
<path d="M71.8003 68.3C71.8003 68.3 90.8003 53.2 95.6003 50.7C100.4 48.2 103.3 45.4 103.3 45.4" stroke="#1A1A1A" stroke-width="1.5" stroke-miterlimit="10" stroke-linecap="round"/>
<path d="M14.7003 114.9C14.7003 119.1 11.7003 122.4 8.00029 122.4C4.30029 122.4 1.30029 119 1.30029 114.9C1.30029 110.7 3.40029 106.9 7.10029 106.9C10.8003 106.9 14.7003 110.8 14.7003 114.9Z" stroke="#1A1A1A" stroke-width="1.5" stroke-miterlimit="10" stroke-linecap="round"/>
<path d="M5.90039 107L99.4004 44.2C99.4004 44.2 107.1 43.8001 103.6 50.0001C103.6 50.0001 31.6004 107.4 25.7004 111.3C15.7004 118 13.1004 119.7 13.1004 119.7" stroke="#1A1A1A" stroke-width="1.5" stroke-miterlimit="10" stroke-linecap="round"/>
<path d="M90.8003 57.2C90.8003 57.2 94.7003 55.2 98.2003 52.9C100.6 51.4 102.2 49.6 104.5 48.5" stroke="#1A1A1A" stroke-width="1.5" stroke-miterlimit="10" stroke-linecap="round"/>
<path d="M4.50046 112.5C4.50046 112.5 2.30046 116.5 5.90046 119.1" stroke="#1A1A1A" stroke-width="1.5" stroke-miterlimit="10" stroke-linecap="round"/>
<path d="M5.6001 110.5C5.6001 110.5 9.1001 108.5 11.0001 113.4" stroke="#1A1A1A" stroke-width="1.5" stroke-miterlimit="10" stroke-linecap="round"/>
<path d="M14.7003 119.9C14.7003 119.9 12.1003 131.6 12.8003 132C13.4003 132.3 18.2003 127.4 20.3003 123.7C22.9003 118.9 25.7003 111.7 25.7003 111.7C25.7003 111.7 17.1003 118.1 14.7003 119.9Z" fill="white"/>
<path d="M89.5004 2.60001C90.2004 1.40001 88.4004 0.5 87.0004 0.5C81.9004 0.6 68.0004 3.6 49.9004 30.7C49.9004 30.7 13.3004 77.6 14.3004 80.1C17.0004 81.1 15.8004 83 25.8004 77L13.4004 99.9L42.1004 80.3L46.2004 76C46.2004 76 55.4004 75.6 60.5004 72.3C65.5004 69 80.6004 62 86.5004 45.7C90.5004 35.1 96.6004 9.29999 84.1004 5.39999C84.1004 5.39999 87.4004 2.80001 89.5004 2.60001Z" fill="white"/>
<path d="M72.0005 31C72.0005 31 78.0005 30.9 78.9005 23.6C78.9005 23.6 81.0005 24.9 82.9005 27.3C84.8005 29.7 83.0005 34.8 83.0005 34.8C83.0005 34.8 81.4005 30.9 80.3005 31.5C80.2005 31.6 78.1005 37.9 72.0005 31Z" fill="#FABFA1"/>
<path d="M82.9004 21.7C82.9004 20.5 83.5004 19.5 84.3004 19.5C85.1004 19.5 85.7004 20.5 85.7004 21.7C85.7004 22.9 85.1004 23.9 84.3004 23.9C83.5004 23.8 82.9004 22.9 82.9004 21.7Z" fill="#1A1A1A"/>
<path d="M67.1001 25C67.1001 23.8 67.7001 22.8 68.5001 22.8C69.3001 22.8 69.9001 23.8 69.9001 25C69.9001 26.2 69.3001 27.2 68.5001 27.2C67.7001 27.2 67.1001 26.2 67.1001 25Z" fill="#1A1A1A"/>
<path d="M66.0001 81.8C65.8001 80.1 65.6001 78.6 63.9001 76.7C61.9001 75.1 58.4001 72.1 55.9001 74.7C54.5001 76.1 49.0001 76 47.6001 76.5C52.3001 78.2 54.4001 81.2 54.8001 82.7C55.3001 87.9 53.5001 90.5 54.7001 91.2C55.5001 91.6 58.8001 86.5 58.4001 82.8C58.3001 81.7 56.2001 78.8 56.3001 78.8C59.7001 80.5 60.0001 83.6 59.9001 85C59.7001 87.8 58.0001 91.5 58.8001 92.2C59.8001 92.5 63.7001 88.4 62.8001 83.1C62.3001 80.2 61.6001 78.8 59.5001 77.6C60.8001 78 62.3001 79 62.9001 79.8C65.4001 83.3 62.9001 87.9 63.2001 88.6C64.0001 88.6 66.5001 85.8 66.0001 81.8Z" fill="#1A1A1A"/>
<path d="M70.0005 31C70.0005 31 73.6005 31 76.0005 28.8C78.7005 26.4 79.2005 22.3 79.2005 22.3C79.2005 22.3 81.2005 26.8 83.6005 28C86.0005 29.2 82.2005 37 82.2005 37C82.2005 37 82.3005 31.5 79.0005 31.7C75.8005 31.9 77.0005 32.3 70.0005 31Z" stroke="#1A1A1A" stroke-width="1.5" stroke-miterlimit="10" stroke-linecap="round" stroke-linejoin="round"/>
<path d="M72.6006 31.5C72.6006 31.5 74.4006 35.7 78.1006 35.3C79.9006 35.1 80.9006 33.1 80.9006 33.1" stroke="#1A1A1A" stroke-width="1.5" stroke-miterlimit="10" stroke-linecap="round" stroke-linejoin="round"/>
<path d="M40.7002 37.7C40.7002 37.7 59.4002 10.1 69.1002 4.3C78.8002 -1.5 83.7002 2 83.7002 2C83.7002 2 78.6002 5.2 79.6002 8.8C79.6002 8.8 86.1002 9.2 87.9002 19.5C89.7002 29.8 84.2002 50 75.9002 61.1C67.6002 72.3 55.8002 77.3 36.7002 75.3" stroke="#1A1A1A" stroke-width="1.5" stroke-miterlimit="10" stroke-linecap="round" stroke-linejoin="round"/>
<path d="M22.1002 72.6001C22.1002 72.6001 17.0002 81.5001 7.7002 84.4001C7.7002 84.4001 22.4002 55.0001 35.2002 42.6001C40.5002 37.5001 44.3002 35.0001 46.9002 33.9001C49.5002 32.8001 52.5002 34.4001 52.9002 37.2001C54.2002 44.7001 54.5002 61.5001 36.0002 73.0001C32.7002 75.1001 25.6002 77.8001 26.6002 76.9001C28.3002 75.5001 30.5002 72.4001 34.0002 68.2001" stroke="#1A1A1A" stroke-width="1.5" stroke-miterlimit="10" stroke-linecap="round" stroke-linejoin="round"/>
<path d="M14.9004 80.7C14.9004 80.7 19.9004 81.8 26.6004 76.9" stroke="#1A1A1A" stroke-width="1.5" stroke-miterlimit="10" stroke-linecap="round" stroke-linejoin="round"/>
<path d="M23.9004 63C23.9004 63 25.5004 60.5 27.1004 58.5" stroke="#1A1A1A" stroke-width="1.5" stroke-miterlimit="10" stroke-linecap="round" stroke-linejoin="round"/>
<path d="M28.9004 56.1C28.9004 56.1 30.5004 53.6 32.1004 51.6" stroke="#1A1A1A" stroke-width="1.5" stroke-miterlimit="10" stroke-linecap="round" stroke-linejoin="round"/>
<path d="M34.2002 49.3C34.2002 49.3 36.5002 46.6 37.4002 45.8" stroke="#1A1A1A" stroke-width="1.5" stroke-miterlimit="10" stroke-linecap="round" stroke-linejoin="round"/>
<path d="M34.4004 54C34.4004 54 36.0004 51.8 36.9004 51" stroke="#1A1A1A" stroke-width="1.5" stroke-miterlimit="10" stroke-linecap="round" stroke-linejoin="round"/>
<path d="M29.6001 60.2999C29.6001 60.2999 31.1001 58 31.9001 57.2" stroke="#1A1A1A" stroke-width="1.5" stroke-miterlimit="10" stroke-linecap="round" stroke-linejoin="round"/>
<path d="M79.4002 47.4C79.4002 47.4 78.6002 49.9 77.2002 52.2" stroke="#1A1A1A" stroke-width="1.5" stroke-miterlimit="10" stroke-linecap="round" stroke-linejoin="round"/>
<path d="M75.5004 55.1C75.5004 55.1 74.4004 57.7 72.4004 59.6" stroke="#1A1A1A" stroke-width="1.5" stroke-miterlimit="10" stroke-linecap="round" stroke-linejoin="round"/>
<path d="M70.1003 61.9C70.1003 61.9 68.3003 64 66.3003 65.6" stroke="#1A1A1A" stroke-width="1.5" stroke-miterlimit="10" stroke-linecap="round" stroke-linejoin="round"/>
<path d="M63.7001 67.3C63.7001 67.3 62.0001 68.9001 60.1001 69.9001" stroke="#1A1A1A" stroke-width="1.5" stroke-miterlimit="10" stroke-linecap="round" stroke-linejoin="round"/>
<path d="M70.0003 56.7C70.0003 56.7 68.4003 59 66.3003 60.7" stroke="#1A1A1A" stroke-width="1.5" stroke-miterlimit="10" stroke-linecap="round" stroke-linejoin="round"/>
<path d="M74.4001 50C74.4001 50 72.9001 53 72.1001 53.9" stroke="#1A1A1A" stroke-width="1.5" stroke-miterlimit="10" stroke-linecap="round" stroke-linejoin="round"/>
<path d="M19.0003 80.7L6.80029 106.4L39.1003 84.7L43.2003 76.2" stroke="#1A1A1A" stroke-width="1.5" stroke-miterlimit="10" stroke-linecap="round" stroke-linejoin="round"/>
<path d="M37.8001 71.9L28.1001 92.1" stroke="#1A1A1A" stroke-width="1.5" stroke-miterlimit="10" stroke-linecap="round" stroke-linejoin="round"/>
<path d="M13.6002 119.4L10.2002 133.5C10.2002 133.5 20.8002 125.8 26.9002 110.8" stroke="#1A1A1A" stroke-width="1.5" stroke-miterlimit="10" stroke-linecap="round" stroke-linejoin="round"/>
<path d="M78.3001 72.6001C77.9001 71.2001 77.5001 70.0001 75.9001 68.6001C74.1001 67.6001 70.7001 65.5001 68.9001 68.0001C67.9001 69.3001 65.2001 70.9001 64.1001 71.6001C68.2001 72.4001 68.5001 73.6001 69.1001 74.9001C70.2001 79.1001 69.0001 81.5001 70.2001 81.9001C70.9001 82.1001 73.0001 77.5001 72.1001 74.4001C71.9001 73.5001 69.8001 71.4001 69.8001 71.4001C72.9001 72.4001 73.5001 74.9001 73.6001 76.1001C73.8001 78.4001 72.9001 81.8001 73.6001 82.2001C74.5001 82.3001 77.2001 78.4001 75.7001 74.1001C74.9001 71.8001 74.1001 70.7001 72.2001 69.9001C73.4001 70.1001 74.7001 70.7001 75.3001 71.3001C77.8001 73.9001 76.4001 78.0001 76.7001 78.5001C77.5001 78.5001 79.2001 75.8001 78.3001 72.6001Z" fill="#1A1A1A"/>
</svg>
