<svg width="187" height="188" viewBox="0 0 187 188" fill="none" xmlns="http://www.w3.org/2000/svg">
<path d="M125.272 184.073C146.272 176.273 163.672 160.673 173.872 141.473C176.872 135.473 179.272 128.873 181.672 122.273C184.072 115.673 186.472 109.673 186.472 102.473C187.072 96.4727 185.272 90.4727 184.072 84.4727C179.872 65.8727 174.472 46.6727 159.472 34.0727C154.072 29.2727 147.472 25.6727 140.272 22.6727C131.272 18.4727 122.272 15.4727 112.672 12.4727C100.072 8.87267 86.2724 6.47267 74.2724 10.6727C68.8724 12.4727 64.0724 14.8727 59.8724 17.8727C37.0724 32.2727 20.2724 53.8727 11.2724 78.4727C5.27242 95.8727 3.47242 115.673 11.2724 133.073C19.6724 151.673 32.8724 166.673 51.4724 176.873C70.0724 187.673 104.272 191.273 125.272 184.073Z" fill="#FABFA1"/>
<path d="M79.0724 27.4724C92.2724 25.0724 119.272 38.8724 127.072 47.8724C134.272 56.2724 133.072 65.8724 138.472 70.0724C142.072 72.4724 154.672 80.2724 155.272 82.6724C157.072 112.672 129.472 118.072 119.272 121.072C117.472 127.672 118.072 176.272 111.472 177.472C66.4724 185.872 28.0724 159.472 32.2724 153.472C37.0724 146.872 49.0724 130.072 57.4724 118.072C65.2724 106.672 62.8724 104.272 55.6724 96.4724C46.6724 86.8724 48.4724 61.6724 59.8724 43.0724C68.8724 32.2724 74.2724 30.4724 79.0724 27.4724Z" fill="white"/>
<path d="M57.4724 116.872C57.4724 116.872 39.4724 138.472 29.8724 151.072C29.8724 159.472 36.4724 163.072 41.8724 163.072C48.4724 158.272 54.4724 152.872 55.6724 138.472C56.8724 123.472 57.4724 116.872 57.4724 116.872Z" fill="#FABFA1"/>
<path d="M61.0724 175.672C65.2724 173.272 63.4724 164.272 59.2724 164.272C52.0724 163.672 47.8724 172.672 53.8724 174.472C53.2724 174.472 59.8724 176.272 61.0724 175.672Z" fill="#FABFA1"/>
<path d="M105.472 29.2721L129.472 40.6721L136.672 61.0721L140.872 50.8721L128.272 31.6721L115.672 26.8721L105.472 29.2721Z" fill="#1A1A1A"/>
<path d="M64.6724 37.6722C64.6724 37.6722 74.2724 28.0722 80.2724 25.6722C86.2724 23.8722 98.8724 27.4722 104.872 29.2722C110.872 31.0722 128.872 39.4722 130.672 43.6722C133.072 49.6722 135.472 57.4722 136.672 68.8722C139.072 71.2722 158.272 79.0722 158.272 79.0722C158.272 79.0722 160.672 85.6722 158.272 93.4722C155.872 101.872 154.072 106.072 152.272 107.872C150.472 109.672 148.072 101.872 148.072 101.872C148.072 101.872 138.472 113.272 116.272 120.472C107.872 123.472 92.2724 110.272 88.6724 104.272" stroke="#1A1A1A" stroke-width="4" stroke-linecap="round" stroke-linejoin="round"/>
<path d="M148.072 101.873C148.072 101.873 149.872 95.8727 150.472 90.4727" stroke="#1A1A1A" stroke-width="4" stroke-linecap="round" stroke-linejoin="round"/>
<path d="M149.872 107.272C149.872 107.272 143.272 120.472 124.072 119.272" stroke="#1A1A1A" stroke-width="4" stroke-linecap="round" stroke-linejoin="round"/>
<path d="M139.072 86.272C139.072 83.272 141.472 80.272 144.472 79.672C147.472 78.472 154.672 76.672 155.872 79.672C158.272 83.872 149.872 90.472 149.872 90.472C149.872 90.472 142.672 89.872 139.072 86.272Z" stroke="#1A1A1A" stroke-width="4" stroke-linecap="round" stroke-linejoin="round"/>
<path d="M99.4724 75.2327C99.4724 72.3527 100.192 70.1927 102.352 69.4727C104.512 69.4727 105.952 70.9127 106.672 73.7927C107.392 76.6727 105.952 79.5527 103.792 79.5527C101.632 79.5527 100.192 78.1127 99.4724 75.2327Z" fill="#1A1A1A"/>
<path d="M127.68 65.5127C126.96 62.6327 128.4 60.4727 130.56 60.4727C132.72 60.4727 134.16 61.9127 134.88 64.7927C135.6 67.6727 134.16 69.8327 132 69.8327C129.12 69.8327 128.4 68.3927 127.68 65.5127Z" fill="#1A1A1A"/>
<path d="M123.472 118.672C123.472 118.672 119.272 133.672 121.072 175.072" stroke="#1A1A1A" stroke-width="4" stroke-linecap="round" stroke-linejoin="round"/>
<path d="M60.4724 116.872C60.4724 116.872 78.4724 140.872 103.672 141.472C121.672 141.472 121.672 136.672 121.672 136.672L121.072 147.472C121.072 147.472 110.272 152.872 95.2724 151.072C85.6724 149.872 65.8724 143.872 53.8724 124.672L60.4724 116.872Z" fill="#1A1A1A"/>
<path d="M99.4725 159.472C100.672 152.872 107.272 148.072 113.872 149.272C120.472 150.472 125.272 157.072 124.072 163.672C122.872 170.272 116.272 175.072 109.672 173.872C102.472 172.672 98.2725 166.072 99.4725 159.472Z" fill="#1A1A1A"/>
<path d="M107.272 160.672C107.872 156.472 110.872 153.472 114.472 153.472C118.072 154.072 120.472 157.672 119.872 161.872C119.272 166.072 116.272 169.072 112.672 169.072C109.072 169.072 106.672 164.872 107.272 160.672Z" fill="white"/>
<path d="M150.472 91.0726C150.472 91.0726 140.872 89.2726 139.672 86.2726C137.872 81.4726 148.072 79.0726 148.072 79.0726C148.072 79.0726 155.872 77.2726 157.672 80.2726C159.472 83.2726 150.472 91.0726 150.472 91.0726Z" fill="#1A1A1A"/>
<path d="M103.672 28.6726C103.672 28.6726 107.272 27.4726 113.872 26.2726C117.472 25.6726 128.272 31.6726 128.272 31.6726C128.272 31.6726 134.272 39.4726 140.872 49.0726C141.472 50.8726 136.672 63.4726 136.672 63.4726C136.672 63.4726 131.272 43.0726 130.072 41.8726C129.472 41.2726 116.272 33.4726 103.672 28.6726Z" stroke="#1A1A1A" stroke-width="4" stroke-linecap="round" stroke-linejoin="round"/>
<path d="M88.0724 40.0721C88.0724 40.0721 76.0724 34.6721 71.8724 32.8721C71.8724 32.8721 41.2724 46.0721 32.8724 51.4721C32.8724 51.4721 31.0724 76.6721 50.8724 110.272C50.8724 110.272 53.8724 110.872 58.0724 101.272C58.0724 101.272 72.4724 40.6721 88.0724 40.0721Z" stroke="#1A1A1A" stroke-width="4" stroke-linecap="round" stroke-linejoin="round"/>
<path d="M32.8724 52.6724C32.8724 52.6724 33.4724 91.6724 50.2724 108.472C50.2724 108.472 55.0724 113.272 59.8724 93.4724C65.2724 73.6724 77.8724 38.2724 86.8724 41.2724C86.8724 41.2724 74.2724 31.6724 70.0724 34.0724C66.4724 35.8724 34.0724 49.0724 32.8724 52.6724Z" fill="#1A1A1A"/>
<path d="M56.8724 87.4727C56.8724 91.0727 59.8724 95.2727 62.2724 98.8727C65.8724 103.073 65.8724 108.473 62.8724 112.673C56.2724 122.873 43.6724 140.873 31.6724 153.473" stroke="#1A1A1A" stroke-width="4" stroke-linecap="round" stroke-linejoin="round"/>
<path d="M8.27238 119.272C-6.72762 73.0724 19.0724 23.2724 65.2724 8.27238C111.472 -6.72762 161.272 19.0724 176.272 65.2724C191.272 111.472 166.072 161.872 119.272 176.272C72.4724 190.672 23.2724 165.472 8.27238 119.272Z" stroke="#1A1A1A" stroke-width="6" stroke-linecap="round" stroke-linejoin="round"/>
<path d="M159.975 181.526C166.77 179.962 172.708 175.823 176.423 170.268C177.617 168.482 178.587 166.562 179.555 164.648C180.507 162.765 181.469 160.85 181.825 158.761C182.142 156.908 181.968 154.988 181.774 153.092C181.178 147.298 180.197 141.101 176.08 136.626C174.527 134.94 172.606 133.598 170.63 132.388C168.036 130.799 165.315 129.412 162.503 128.244C158.749 126.684 154.631 125.501 150.729 126.211C149.066 126.513 147.507 127.15 146.015 127.874C138.488 131.53 132.37 137.593 128.82 144.914C126.32 150.071 125.088 156.075 126.781 161.732C128.606 167.824 132.188 172.871 137.51 176.738C142.833 180.604 153.181 183.089 159.975 181.526Z" fill="#1A1A1A"/>
<path fill-rule="evenodd" clip-rule="evenodd" d="M165.748 163.761C166.294 163.216 166.6 162.477 166.6 161.705V150.016C166.6 149.245 166.294 148.506 165.748 147.96C165.203 147.415 164.463 147.109 163.692 147.109H161.134C160.932 147.107 160.736 147.043 160.573 146.925C160.409 146.807 160.287 146.641 160.222 146.45L159.815 145.228C159.622 144.681 159.27 144.204 158.804 143.858C158.337 143.513 157.778 143.315 157.198 143.29H150.957C150.35 143.284 149.757 143.467 149.26 143.815C148.763 144.162 148.387 144.657 148.185 145.228L147.7 146.508C147.636 146.699 147.513 146.865 147.35 146.983C147.187 147.101 146.99 147.165 146.789 147.167H144.308C143.537 147.167 142.797 147.473 142.252 148.019C141.706 148.564 141.4 149.303 141.4 150.075V161.705C141.4 162.477 141.706 163.216 142.252 163.761C142.797 164.307 143.537 164.613 144.308 164.613H163.692C164.463 164.613 165.203 164.307 165.748 163.761ZM159.815 154.921C159.815 158.132 157.212 160.736 154 160.736C150.788 160.736 148.185 158.132 148.185 154.921C148.185 151.709 150.788 149.105 154 149.105C157.212 149.105 159.815 151.709 159.815 154.921Z" fill="white"/>
</svg>
