<svg width="67" height="67" viewBox="0 0 67 67" fill="none" xmlns="http://www.w3.org/2000/svg">
<path d="M40.784 66.4373C48.8482 64.5815 55.8951 59.6691 60.3037 53.0758C61.7211 50.9563 62.8727 48.6785 64.0216 46.4062C65.1511 44.1714 66.293 41.8992 66.7152 39.4201C67.0917 37.2201 66.8854 34.9422 66.6543 32.6922C65.947 25.8158 64.7829 18.4604 59.8967 13.1497C58.0544 11.1482 55.7746 9.55606 53.4284 8.11942C50.35 6.23443 47.1207 4.5882 43.7835 3.20153C39.3278 1.34986 34.4417 -0.0534681 29.8102 0.789083C27.8364 1.1472 25.9857 1.90369 24.2153 2.7629C15.2819 7.10197 8.02183 14.2977 3.80839 22.9855C0.840711 29.1069 -0.620982 36.2318 1.38885 42.9458C3.5537 50.1762 7.8059 56.1657 14.1219 60.7546C20.4393 65.3435 32.7197 68.2931 40.784 66.4373Z" fill="white"/>
</svg>
