<svg width="28" height="28" viewBox="0 0 28 28" fill="none" xmlns="http://www.w3.org/2000/svg">
<path d="M19.3707 18.1236C19.3707 17.0566 18.9468 16.0333 18.1924 15.2789C17.4379 14.5244 16.4147 14.1006 15.3477 14.1006C14.2807 14.1006 13.2575 14.5244 12.503 15.2789C11.7486 16.0333 11.3247 17.0566 11.3247 18.1236C10.4711 18.1236 9.65253 18.4627 9.04897 19.0662C8.4454 19.6698 8.10632 20.4884 8.10632 21.342C8.10632 22.1955 8.4454 23.0141 9.04897 23.6177C9.65253 24.2213 10.4711 24.5604 11.3247 24.5604C12.0334 24.5438 12.7281 24.36 13.3523 24.024C13.9685 23.7036 14.6527 23.5364 15.3472 23.5364C16.0416 23.5364 16.7259 23.7036 17.342 24.024C17.9666 24.3599 18.6617 24.5437 19.3707 24.5604C20.2243 24.5604 21.0429 24.2213 21.6464 23.6177C22.25 23.0141 22.5891 22.1955 22.5891 21.342C22.5891 20.4884 22.25 19.6698 21.6464 19.0662C21.0429 18.4627 20.2243 18.1236 19.3707 18.1236Z" fill="#FABFA1"/>
<path d="M4.08331 14.1008C4.08331 14.4178 4.14575 14.7317 4.26705 15.0245C4.38836 15.3174 4.56616 15.5835 4.7903 15.8076C5.01444 16.0318 5.28053 16.2096 5.57339 16.3309C5.86624 16.4522 6.18012 16.5146 6.49711 16.5146C6.81409 16.5146 7.12797 16.4522 7.42083 16.3309C7.71368 16.2096 7.97977 16.0318 8.20392 15.8076C8.42806 15.5835 8.60586 15.3174 8.72716 15.0245C8.84847 14.7317 8.9109 14.4178 8.9109 14.1008C8.9109 13.7838 8.84847 13.4699 8.72716 13.1771C8.60586 12.8842 8.42806 12.6181 8.20392 12.394C7.97977 12.1699 7.71368 11.9921 7.42083 11.8708C7.12797 11.7494 6.81409 11.687 6.49711 11.687C6.18012 11.687 5.86624 11.7494 5.57339 11.8708C5.28053 11.9921 5.01444 12.1699 4.7903 12.394C4.56616 12.6181 4.38836 12.8842 4.26705 13.1771C4.14575 13.4699 4.08331 13.7838 4.08331 14.1008Z" fill="#FABFA1"/>
<path d="M8.91089 7.66379C8.91089 8.30397 9.1652 8.91793 9.61787 9.3706C10.0705 9.82328 10.6845 10.0776 11.3247 10.0776C11.9649 10.0776 12.5788 9.82328 13.0315 9.3706C13.4842 8.91793 13.7385 8.30397 13.7385 7.66379C13.7385 7.02362 13.4842 6.40966 13.0315 5.95698C12.5788 5.50431 11.9649 5.25 11.3247 5.25C10.6845 5.25 10.0705 5.50431 9.61787 5.95698C9.1652 6.40966 8.91089 7.02362 8.91089 7.66379Z" fill="#FABFA1"/>
<path d="M16.9568 7.66379C16.9568 8.30397 17.2112 8.91793 17.6638 9.3706C18.1165 9.82328 18.7305 10.0776 19.3706 10.0776C20.0108 10.0776 20.6248 9.82328 21.0775 9.3706C21.5301 8.91793 21.7844 8.30397 21.7844 7.66379C21.7844 7.02362 21.5301 6.40966 21.0775 5.95698C20.6248 5.50431 20.0108 5.25 19.3706 5.25C18.7305 5.25 18.1165 5.50431 17.6638 5.95698C17.2112 6.40966 16.9568 7.02362 16.9568 7.66379Z" fill="#FABFA1"/>
<path d="M22.5891 14.1008C22.5891 14.741 22.8434 15.3549 23.296 15.8076C23.7487 16.2603 24.3627 16.5146 25.0028 16.5146C25.643 16.5146 26.257 16.2603 26.7097 15.8076C27.1623 15.3549 27.4166 14.741 27.4166 14.1008C27.4166 13.4606 27.1623 12.8467 26.7097 12.394C26.257 11.9413 25.643 11.687 25.0028 11.687C24.3627 11.687 23.7487 11.9413 23.296 12.394C22.8434 12.8467 22.5891 13.4606 22.5891 14.1008Z" fill="#FABFA1"/>
<path d="M17.6207 16.9571C17.6207 15.8901 17.1968 14.8668 16.4424 14.1124C15.6879 13.3579 14.6647 12.9341 13.5977 12.9341C12.5307 12.9341 11.5075 13.3579 10.753 14.1124C9.99856 14.8668 9.57471 15.8901 9.57471 16.9571C8.72114 16.9571 7.90253 17.2961 7.29897 17.8997C6.6954 18.5033 6.35632 19.3219 6.35632 20.1755C6.35632 21.029 6.6954 21.8476 7.29897 22.4512C7.90253 23.0548 8.72114 23.3939 9.57471 23.3939C10.2834 23.3773 10.9781 23.1935 11.6023 22.8575C12.2185 22.5371 12.9027 22.3698 13.5972 22.3698C14.2916 22.3698 14.9759 22.5371 15.592 22.8575C16.2166 23.1934 16.9117 23.3772 17.6207 23.3939C18.4743 23.3939 19.2929 23.0548 19.8964 22.4512C20.5 21.8476 20.8391 21.029 20.8391 20.1755C20.8391 19.3219 20.5 18.5033 19.8964 17.8997C19.2929 17.2961 18.4743 16.9571 17.6207 16.9571Z" stroke="#1A1A1A" stroke-width="1.5" stroke-linecap="round" stroke-linejoin="round"/>
<path d="M2.33331 12.9343C2.33331 13.2513 2.39575 13.5652 2.51705 13.858C2.63836 14.1509 2.81616 14.417 3.0403 14.6411C3.26444 14.8653 3.53053 15.0431 3.82339 15.1644C4.11624 15.2857 4.43012 15.3481 4.74711 15.3481C5.06409 15.3481 5.37797 15.2857 5.67083 15.1644C5.96368 15.0431 6.22977 14.8653 6.45392 14.6411C6.67806 14.417 6.85586 14.1509 6.97716 13.858C7.09846 13.5652 7.1609 13.2513 7.1609 12.9343C7.1609 12.6173 7.09846 12.3034 6.97716 12.0106C6.85586 11.7177 6.67806 11.4516 6.45392 11.2275C6.22977 11.0034 5.96368 10.8256 5.67083 10.7042C5.37797 10.5829 5.06409 10.5205 4.74711 10.5205C4.43012 10.5205 4.11624 10.5829 3.82339 10.7042C3.53053 10.8256 3.26444 11.0034 3.0403 11.2275C2.81616 11.4516 2.63836 11.7177 2.51705 12.0106C2.39575 12.3034 2.33331 12.6173 2.33331 12.9343V12.9343Z" stroke="#1A1A1A" stroke-width="1.5" stroke-linecap="round" stroke-linejoin="round"/>
<path d="M7.16089 6.49729C7.16089 7.13747 7.4152 7.75142 7.86787 8.2041C8.32055 8.65677 8.9345 8.91108 9.57468 8.91108C10.2149 8.91108 10.8288 8.65677 11.2815 8.2041C11.7342 7.75142 11.9885 7.13747 11.9885 6.49729C11.9885 5.85711 11.7342 5.24315 11.2815 4.79048C10.8288 4.33781 10.2149 4.0835 9.57468 4.0835C8.9345 4.0835 8.32055 4.33781 7.86787 4.79048C7.4152 5.24315 7.16089 5.85711 7.16089 6.49729V6.49729Z" stroke="#1A1A1A" stroke-width="1.5" stroke-linecap="round" stroke-linejoin="round"/>
<path d="M15.2068 6.49729C15.2068 7.13747 15.4612 7.75142 15.9138 8.2041C16.3665 8.65677 16.9805 8.91108 17.6206 8.91108C18.2608 8.91108 18.8748 8.65677 19.3275 8.2041C19.7801 7.75142 20.0344 7.13747 20.0344 6.49729C20.0344 5.85711 19.7801 5.24315 19.3275 4.79048C18.8748 4.33781 18.2608 4.0835 17.6206 4.0835C16.9805 4.0835 16.3665 4.33781 15.9138 4.79048C15.4612 5.24315 15.2068 5.85711 15.2068 6.49729V6.49729Z" stroke="#1A1A1A" stroke-width="1.5" stroke-linecap="round" stroke-linejoin="round"/>
<path d="M20.8391 12.9343C20.8391 13.5745 21.0934 14.1884 21.546 14.6411C21.9987 15.0938 22.6127 15.3481 23.2528 15.3481C23.893 15.3481 24.507 15.0938 24.9597 14.6411C25.4123 14.1884 25.6666 13.5745 25.6666 12.9343C25.6666 12.2941 25.4123 11.6802 24.9597 11.2275C24.507 10.7748 23.893 10.5205 23.2528 10.5205C22.6127 10.5205 21.9987 10.7748 21.546 11.2275C21.0934 11.6802 20.8391 12.2941 20.8391 12.9343V12.9343Z" stroke="#1A1A1A" stroke-width="1.5" stroke-linecap="round" stroke-linejoin="round"/>
</svg>
