<svg width="40" height="40" viewBox="0 0 40 40" fill="none" xmlns="http://www.w3.org/2000/svg">
<path d="M24.2682 39.6613C29.1217 38.5443 33.3628 35.5878 36.0162 31.6197C36.8692 30.344 37.5623 28.9731 38.2538 27.6055C38.9336 26.2605 39.6209 24.893 39.8749 23.4009C40.1015 22.0768 39.9774 20.7059 39.8383 19.3517C39.4126 15.2131 38.712 10.7863 35.7712 7.59005C34.6624 6.3854 33.2904 5.42719 31.8783 4.56254C30.0256 3.42806 28.082 2.43727 26.0735 1.6027C23.3918 0.488273 20.4511 -0.356322 17.6636 0.150769C16.4757 0.366304 15.3618 0.8216 14.2963 1.33872C8.9197 3.95019 4.55025 8.28093 2.01438 13.5097C0.228274 17.1939 -0.651449 21.482 0.55817 25.5229C1.86109 29.8745 4.42029 33.4793 8.22159 36.2411C12.0237 39.003 19.4147 40.7782 24.2682 39.6613" fill="#FABFA1"/>
<path d="M22.6562 27.0312L15.9562 20.3312C15.9127 20.2878 15.8781 20.2361 15.8545 20.1793C15.831 20.1225 15.8188 20.0615 15.8188 20C15.8188 19.9385 15.831 19.8775 15.8545 19.8207C15.8781 19.7639 15.9127 19.7122 15.9562 19.6688L22.6562 12.9688" stroke="#1A1A1A" stroke-width="2.5" stroke-linecap="round" stroke-linejoin="round"/>
</svg>
