<svg width="72" height="72" viewBox="0 0 72 72" fill="none" xmlns="http://www.w3.org/2000/svg">
<path d="M43.784 71.4373C51.8482 69.5815 58.8951 64.6691 63.3037 58.0758C64.7211 55.9563 65.8727 53.6785 67.0216 51.4062C68.1511 49.1714 69.293 46.8992 69.7152 44.4201C70.0917 42.2201 69.8854 39.9422 69.6543 37.6922C68.947 30.8158 67.7829 23.4604 62.8967 18.1497C61.0544 16.1482 58.7746 14.5561 56.4284 13.1194C53.35 11.2344 50.1207 9.5882 46.7835 8.20153C42.3278 6.34986 37.4417 4.94653 32.8102 5.78908C30.8364 6.1472 28.9857 6.90369 27.2153 7.7629C18.2819 12.102 11.0218 19.2977 6.80839 27.9855C3.84071 34.1069 2.37902 41.2318 4.38885 47.9458C6.5537 55.1762 10.8059 61.1657 17.1219 65.7546C23.4393 70.3435 35.7197 73.2931 43.784 71.4373Z" fill="white"/>
<circle cx="35.9999" cy="35.9999" r="32.1923" stroke="#1A1A1A" stroke-width="2"/>
</svg>
