<svg width="128" height="128" viewBox="0 0 128 128" fill="none" xmlns="http://www.w3.org/2000/svg">
<path d="M77.7993 125.83C92.5993 122.63 105.399 113.43 113.799 101.43C116.199 97.8305 118.199 93.4305 120.599 89.0305C122.599 85.0305 124.599 80.6305 125.399 76.2305C126.199 72.2305 125.799 67.8305 125.399 63.8305C124.199 51.4305 122.199 37.8305 112.999 27.8305C109.799 24.6305 105.399 21.8305 100.999 18.6305C95.3993 15.4305 89.3993 11.8305 83.3993 9.43048C74.9993 6.23048 66.5993 3.83048 57.7993 5.03048C54.1993 5.83048 50.9993 7.03048 47.3993 8.63048C30.9993 16.6305 17.7993 29.8305 10.1993 45.8305C4.99933 57.0305 1.79932 70.2305 5.79932 82.2305C9.79932 95.4305 17.3993 106.63 28.9993 115.03C40.5993 123.83 62.5993 129.43 77.7993 125.83Z" fill="#FABFA1"/>
<path d="M79.7995 18.2306C69.3995 17.8306 55.7995 28.6306 39.3995 68.2306C29.7995 91.8306 20.9995 104.631 20.9995 104.631C20.9995 104.631 35.3995 117.431 50.5995 120.231C65.7995 123.031 76.5995 120.231 81.7995 117.431C83.7995 116.231 91.3995 115.431 93.3995 111.031C95.7995 105.431 96.1995 93.0306 95.7995 87.0306C95.7995 83.8306 93.7995 77.0306 94.1995 74.2306C96.1995 59.4306 97.7995 33.0306 78.9995 25.4306C78.9995 25.4306 82.9995 23.4306 83.7995 21.8306C84.5995 20.2306 82.9995 19.0306 79.7995 18.2306Z" fill="white"/>
<path d="M70.9995 59.0305C70.9995 59.0305 79.7995 58.6305 78.5995 49.0305C78.5995 49.0305 83.7995 51.4305 86.9995 53.8305C90.1995 56.2305 87.7995 62.2305 87.7995 62.2305C87.7995 62.2305 84.5995 57.8305 82.9995 59.0305C82.9995 58.6305 82.1995 67.8305 70.9995 59.0305Z" fill="#FABFA1"/>
<path d="M65.7993 49.0999C65.7993 47.5999 66.2993 45.5999 67.2993 45.5999C68.2993 45.5999 69.7993 46.5999 69.7993 48.5999C69.7993 50.0998 69.2993 52.0998 68.2993 52.0998C67.2993 52.0998 66.2993 51.0999 65.7993 49.0999Z" fill="#1A1A1A"/>
<path d="M82.7811 46.0964C82.2984 44.6482 82.7811 43.2 84.2294 43.2C85.1948 43.2 86.1603 44.1654 86.6431 45.6137C87.1258 47.0619 86.6431 48.5101 85.1948 48.5101C84.2294 48.5101 82.7811 47.5446 82.7811 46.0964Z" fill="#1A1A1A"/>
<path d="M18.9995 101.83C18.9995 101.83 35.3995 66.6304 37.3995 63.0304C44.9995 48.6304 53.3995 21.0304 74.1995 19.8304C88.9995 19.0304 76.5995 25.4304 76.5995 27.8304" stroke="#1A1A1A" stroke-width="2.5" stroke-linecap="round" stroke-linejoin="round"/>
<path d="M32.1992 74.2305C32.1992 74.2305 37.3992 67.0305 43.7992 71.4305C50.1992 75.8305 50.1992 93.4305 49.3992 99.4305C48.1992 110.231 44.9992 119.031 44.9992 119.031" stroke="#1A1A1A" stroke-width="2.5" stroke-linecap="round" stroke-linejoin="round"/>
<path d="M25.7993 99.8305L28.1993 95.0305" stroke="#1A1A1A" stroke-width="2.5" stroke-linecap="round" stroke-linejoin="round"/>
<path d="M30.5994 89.4306L33.3994 83.8306" stroke="#1A1A1A" stroke-width="2.5" stroke-linecap="round" stroke-linejoin="round"/>
<path d="M33.3994 97.8304L35.7994 92.6304" stroke="#1A1A1A" stroke-width="2.5" stroke-linecap="round" stroke-linejoin="round"/>
<path d="M27.7993 108.231L30.5993 103.031" stroke="#1A1A1A" stroke-width="2.5" stroke-linecap="round" stroke-linejoin="round"/>
<path d="M66.9995 57.8304C66.9995 57.8304 71.7995 60.6304 75.7995 55.8304C79.7995 51.0304 78.9995 47.4304 78.9995 47.4304C78.9995 47.4304 81.3995 51.4304 84.9995 52.2304C86.9995 52.6304 89.3995 56.2304 86.5995 64.2304C86.5995 64.2304 86.1995 58.6304 82.1995 58.6304C78.1995 59.0304 71.7995 62.2304 66.9995 57.8304Z" stroke="#1A1A1A" stroke-width="2.5" stroke-linecap="round" stroke-linejoin="round"/>
<path d="M72.9995 60.6304C72.9995 60.6304 81.3995 67.8304 84.5995 61.4304" stroke="#1A1A1A" stroke-width="2.5" stroke-linecap="round" stroke-linejoin="round"/>
<path d="M91.7994 76.2304C91.7994 76.2304 94.9994 98.6304 90.1994 113.83C89.7994 115.43 84.9994 117.43 83.3994 117.83L76.5994 119.43C84.5994 113.83 88.9994 94.6304 90.5994 85.0304C92.1994 75.4304 93.7994 53.0304 88.5994 39.8304C82.9994 26.6304 71.3994 28.6304 71.3994 28.6304" stroke="#1A1A1A" stroke-width="2.5" stroke-linecap="round" stroke-linejoin="round"/>
<path d="M50.1994 89.4304C50.1994 89.4304 50.1994 113.43 45.3994 119.03C45.3994 119.03 46.9994 120.23 48.5994 119.83C48.1994 119.43 53.7994 103.83 50.1994 89.4304Z" fill="#1A1A1A"/>
<path d="M80.9995 99.0305C82.9995 93.8305 83.3995 91.0305 83.3995 91.0305" stroke="#1A1A1A" stroke-width="2.5" stroke-linecap="round" stroke-linejoin="round"/>
<path d="M75.3994 111.83C76.5994 109.83 77.3994 107.03 78.5994 104.63" stroke="#1A1A1A" stroke-width="2.5" stroke-linecap="round" stroke-linejoin="round"/>
<path d="M67.7993 114.23C68.9993 111.83 69.7993 110.63 70.5993 108.63" stroke="#1A1A1A" stroke-width="2.5" stroke-linecap="round" stroke-linejoin="round"/>
<path d="M73.3994 101.83C74.1994 99.4305 74.9994 98.6305 75.3994 96.2305" stroke="#1A1A1A" stroke-width="2.5" stroke-linecap="round" stroke-linejoin="round"/>
<path d="M70.5994 121.031C71.7994 119.031 70.9994 119.831 72.1994 117.831" stroke="#1A1A1A" stroke-width="2.5" stroke-linecap="round" stroke-linejoin="round"/>
<path d="M5.39935 73.8305C-1.00065 42.2305 19.7994 11.4305 51.7994 5.03049C83.3994 -0.969511 114.199 19.8305 120.599 51.8305C126.599 83.4305 105.799 114.23 74.1993 120.63C42.1993 126.63 11.3994 105.83 5.39935 73.8305Z" stroke="#1A1A1A" stroke-width="4" stroke-linecap="round" stroke-linejoin="round"/>
</svg>
