<svg width="84" height="165" viewBox="0 0 84 165" fill="none" xmlns="http://www.w3.org/2000/svg">
<path d="M16.4998 33.2L16.1998 32.9L15.7998 32.8L15.8998 33.1001L16.1998 33.4" fill="white"/>
<path d="M22.9001 44.5C23.6001 43.5 26.7001 41.4 28.3001 41.4C30.9001 41.4 35.9001 51.3 35.7001 54.1C35.5001 57.7 35.9001 60.9 35.9001 62.5C35.9001 64.4 31.3001 70.2 28.1001 65.6C21.7001 56.2 21.2001 47 22.9001 44.5Z" fill="#FABFA1"/>
<path d="M15.3002 21.3C8.60019 12.9 11.1002 9.40003 16.5002 10C19.4002 10.3 39.6002 27.5 43.1002 33.2C45.5002 32.5 44.7002 31.9 46.6002 31.6C46.7002 29.9 45.5002 7.40003 48.6002 2.00003C51.7002 -3.19997 55.4002 3.50003 57.3002 11.5C59.1002 19.5 56.2002 29.9 56.0002 34C56.0002 34.4 58.7002 40.8 58.9002 47.4C62.3002 49.8 65.0002 53.3 66.0002 58.3C67.0002 63.2 63.2002 66.7 63.0002 67.1C62.9002 67.3 69.0002 81.4 70.8002 91.2C72.6002 101 68.8002 109 68.9002 109.5C69.0002 110 73.7002 124.2 73.8002 133C73.8002 141.8 69.1002 144.8 69.1002 144.8C69.1002 144.8 73.9002 146.2 74.3002 146.2C76.4002 145.9 82.7002 146.9 83.4002 149.6C84.1002 152.3 83.7002 157.1 77.0002 156.8C73.7002 156.6 65.3002 153.7 62.8002 151.5C61.9002 150.7 60.9002 147.8 59.7002 147.4C58.3002 146.9 42.2002 150.1 38.0002 147.1C36.9002 151.2 36.4002 152.7 35.6002 155.3C35.1002 156.9 30.7002 160.9 29.8002 161.8C27.7002 164 22.9002 164.9 20.1002 164.8C17.4002 164.7 14.9002 161.2 15.8002 157C16.7002 152.9 20.5002 152.2 22.1002 151.8C24.5002 151.2 25.1002 149.3 25.9002 147C26.1002 146.4 20.9002 148.7 20.2002 139.8C19.4002 130.9 24.5002 117.3 26.3002 112.1C26.8002 110.6 29.3002 101 30.4002 99.9C31.3002 99 32.5002 75.5 34.2002 70.8C35.2002 67.9 37.3002 69.7 36.3002 58.9C35.7002 51.9 36.8002 53.6 37.8002 50C37.0002 46.8 37.5002 42.2 37.3002 41.9C36.2002 40.3 19.9002 27.1 15.3002 21.3Z" fill="white"/>
<path d="M48.5003 31.2001C48.5003 31.2001 46.9002 1.70005 53.9002 0.900052C60.9002 0.100052 61.3003 20.7001 57.1003 35.5001" stroke="#1A1A1A" stroke-width="1.5" stroke-linecap="round" stroke-linejoin="round"/>
<path d="M37.8 41.3001C37.8 41.3001 11 19.0001 15.5 9.80009C20.1 0.400086 39.3 25.0001 43.6 32.3001" stroke="#1A1A1A" stroke-width="1.5" stroke-linecap="round" stroke-linejoin="round"/>
<path d="M48.9003 70.7C48.9003 70.7 44.5003 71.9 40.4003 69C31.6003 62.6 37.3003 49.9 37.3003 49.9C37.3003 49.9 37.4003 42.9 38.8003 39.8C40.8003 35.3 44.8003 31.6 49.1003 31.8C53.0003 31.9 59.6003 33.8 61.3003 47.7C61.3003 47.7 67.7003 51.1 68.0003 57.6C68.2003 62 65.3003 66.4 62.4003 67.4" stroke="#1A1A1A" stroke-width="1.5" stroke-linecap="round" stroke-linejoin="round"/>
<path d="M64.2001 59.9C64.2001 59.9 66.3001 65.5 62.1001 67.5C56.6001 70.1 55.6001 62.2 55.6001 62.2C55.9001 66.1 54.7001 69.9 49.6001 70.4C42.7001 71.1 42.1001 63.6 42.1001 63.6" stroke="#1A1A1A" stroke-width="1.5" stroke-linecap="round" stroke-linejoin="round"/>
<path d="M49.1001 71.0001C49.1001 71.0001 52.2001 72.8001 54.9001 72.2001C57.6001 71.5001 59.7001 68.3 59.7001 68.3" stroke="#1A1A1A" stroke-width="1.5" stroke-linecap="round" stroke-linejoin="round"/>
<path d="M30.0999 64.3C30.0999 64.3 23.1999 49.1 22.7999 48C22.3999 46.9 22.1999 44.5 24.7999 42.4C27.3999 40.3 30.2999 39.5 32.2999 41C34.2999 42.5 36.9999 50 36.9999 50" stroke="#1A1A1A" stroke-width="1.5" stroke-linecap="round" stroke-linejoin="round"/>
<path d="M24.3999 50.6001C24.3999 50.6001 26.5999 48.2001 29.3999 47.2001" stroke="#1A1A1A" stroke-width="1.5" stroke-linecap="round" stroke-linejoin="round"/>
<path d="M26.5 54.6001C26.5 54.6001 28.8 52.6001 30.8 51.7001" stroke="#1A1A1A" stroke-width="1.5" stroke-linecap="round" stroke-linejoin="round"/>
<path d="M28 59.1C28 59.1 29.8 57.6 31.4 57" stroke="#1A1A1A" stroke-width="1.5" stroke-linecap="round" stroke-linejoin="round"/>
<path d="M51.7002 59.3001L55.3002 61.9001L57.5002 58.6001" stroke="#1A1A1A" stroke-width="1.5" stroke-linecap="round" stroke-linejoin="round"/>
<path d="M42.9001 52.8C42.7001 51.8 43.1001 50.9 43.8001 50.8C44.5001 50.7 45.2001 51.4 45.3001 52.4C45.5001 53.4 45.1001 54.3 44.4001 54.4C43.7001 54.5 43.1001 53.8 42.9001 52.8Z" fill="#1A1A1A"/>
<path d="M56.9001 49.7001C56.7001 48.7001 57.1001 47.8001 57.8001 47.7001C58.5001 47.6001 59.1001 48.3 59.3001 49.3C59.5001 50.3 59.1001 51.2 58.4001 51.3C57.8001 51.4 57.1001 50.7001 56.9001 49.7001Z" fill="#1A1A1A"/>
<path d="M24.1001 42C24.2001 42.2 23.3001 40.3 23.0001 39.8C22.3001 38.6 20.9001 35.9 19.0001 36.2C17.8001 36.4 16.6001 37.4 15.8001 38.1C15.2001 38.7 14.7001 39.7 13.8001 40C12.2001 40.5 11.8001 38.8 10.5001 38.5C9.00007 38.1 6.40007 42 4.70007 41.7C3.00007 41.4 1.30007 41.3 1.00007 38.9C0.600073 36.5 4.90007 36.9 4.50007 34.6C4.10007 32.1 1.40007 33.8 1.00007 32C0.300073 28.5 3.30007 28.3 3.60007 27.4C4.00007 26.4 1.50007 25.6 3.60007 23.8C5.00007 22.4 7.80007 25.6 9.40007 25.3C10.9001 25 6.50007 23.5 8.60007 20.6C9.40007 19.5 13.8001 18.9 16.0001 18.9C17.2001 18.9 18.5001 20.3 18.7001 21.4C18.8001 22.3 24.2001 28 24.6001 29C25.0001 30.1 23.6001 31.1 23.7001 32.2C23.9001 33.8 24.1001 33.8 24.8001 35.3C24.9001 35.6 27.6001 40.2 27.6001 40.3C27.6001 40.3 23.9001 41.6 24.1001 42Z" fill="#1A1A1A"/>
<path d="M39.4 69.1001C39.4 69.1001 31.5 79.8001 31.7 91.5001C32 109 37.5 110.1 38.7 110.2C41.6 110.4 47.2 99.7001 46.6 85.0001C46.6 85.0001 46.4 81.0001 38.3 80.1001C38.3 80.1001 36.3 84.1001 36.3 87.9001C36.2 90.8001 39.6 91.3001 39.6 91.3001" stroke="#1A1A1A" stroke-width="1.5" stroke-linecap="round" stroke-linejoin="round"/>
<path d="M31.9002 97.7001C31.9002 97.7001 21.7002 128.5 23.0002 136.6C24.3002 144.7 29.4002 146.9 32.6002 148.4C35.8002 149.9 53.7002 150.8 63.4002 147.1C73.1002 143.5 77.1002 138 76.4002 129.9C75.6002 121.8 69.0002 110.3 69.0002 110.3" stroke="#1A1A1A" stroke-width="1.5" stroke-linecap="round" stroke-linejoin="round"/>
<path d="M35.0003 62.3C35.0003 62.3 27.3003 62.4001 27.3003 65.2001C27.3003 72.5001 27.9003 99.1001 27.9003 99.1001C27.9003 99.1001 28.4003 102.5 29.8003 102.3L32.1003 96.6001C32.1003 96.6001 28.5003 83.9001 37.5003 72.0001L39.9003 68.7001C39.8003 68.8001 36.6003 65.3 35.0003 62.3Z" fill="#1A1A1A"/>
<path d="M67.3999 61.9001C67.3999 61.9001 70.6999 61.2001 70.7999 62.7001C71.3999 70.5001 71.1999 82.4001 71.1999 82.4001L63.8999 67.3001C63.8999 67.4001 66.7999 63.1001 67.3999 61.9001Z" fill="#1A1A1A"/>
<path d="M32.4999 103C32.4999 103 31.1999 105.1 29.9999 105.8L27.8999 112.5C27.8999 112.5 32.2999 110 34.2999 106L32.4999 103Z" fill="#1A1A1A"/>
<path d="M37.1002 90.8C37.1002 90.8 36.4002 92.9 36.8002 93.8C37.1002 94.7 37.7002 95.1001 38.6002 94.6001C39.5002 94.1001 40.0002 93.3001 40.5002 91.9001C39.5002 91.3001 37.1002 90.8 37.1002 90.8Z" fill="#1A1A1A"/>
<path d="M38.7001 79.5001C38.7001 79.5001 38.4001 73.8001 38.1001 72.4001L39.9001 69.2001L41.4001 70.3L42.0001 80.0001L38.7001 79.5001Z" fill="#1A1A1A"/>
<path d="M64.0002 67.1001C64.0002 67.1001 71.6002 82.9001 72.2002 89.8001C72.9002 96.7001 71.8002 108.6 65.8002 112C59.8002 115.4 55.8002 96.7001 55.7002 88.9001C55.7002 83.8001 63.4002 81.9001 64.1002 83.0001C64.8002 84.1001 67.1002 89.1001 66.5002 89.7001C66.5002 89.7001 65.5002 91.4001 64.2002 92.5001" stroke="#1A1A1A" stroke-width="1.5" stroke-linecap="round" stroke-linejoin="round"/>
<path d="M59.5 69.5001C59.5 69.5001 59.6 82.2001 59.9 82.9001L63 82.5001L62.9 67.8L60.8 68.2001L59.5 69.5001Z" fill="#1A1A1A"/>
<path d="M63.5002 92.0001C63.5002 92.0001 62.3002 93.3001 65.3002 95.5001C65.3002 95.5001 67.2002 96.9001 66.5002 91.2001L63.5002 92.0001Z" fill="#1A1A1A"/>
<path d="M37.0999 145.3C37.0999 145.3 31.3999 128.7 42.3999 119.2C50.5999 112.2 60.7999 115.9 64.7999 126.4C68.9999 137.4 67.8999 143.8 64.3999 145.9C60.8999 148 41.1999 151.6 37.0999 145.3Z" fill="#FABFA1"/>
</svg>
